<?xml version="1.0" encoding="UTF-8"?>
<!DOCTYPE svg PUBLIC "-//W3C//DTD SVG 1.1//EN" "http://www.w3.org/Graphics/SVG/1.1/DTD/svg11.dtd">
<svg xmlns="http://www.w3.org/2000/svg" version="1.1" width="199px" height="199px" style="shape-rendering:geometricPrecision; text-rendering:geometricPrecision; image-rendering:optimizeQuality; fill-rule:evenodd; clip-rule:evenodd" xmlns:xlink="http://www.w3.org/1999/xlink">
<g><path style="opacity:1" fill="#011e45" d="M -0.5,-0.5 C 65.8333,-0.5 132.167,-0.5 198.5,-0.5C 198.5,65.8333 198.5,132.167 198.5,198.5C 132.167,198.5 65.8333,198.5 -0.5,198.5C -0.5,132.167 -0.5,65.8333 -0.5,-0.5 Z"/></g>
<g><path style="opacity:1" fill="#17212e" d="M 74.5,86.5 C 70.4689,84.6291 66.4689,84.2958 62.5,85.5C 58.8333,86.5 56.5,88.8333 55.5,92.5C 54.596,93.209 54.2627,94.209 54.5,95.5C 53.7736,99.3205 53.7736,103.321 54.5,107.5C 53.8826,107.389 53.3826,107.056 53,106.5C 52.0385,100.276 52.5385,94.276 54.5,88.5C 56.0481,88.1788 56.7148,87.1788 56.5,85.5C 60.9925,83.7313 65.6592,83.2313 70.5,84C 72.3197,84.2004 73.653,85.0337 74.5,86.5 Z"/></g>
<g><path style="opacity:1" fill="#a09982" d="M 62.5,85.5 C 66.4689,84.2958 70.4689,84.6291 74.5,86.5C 76.0862,88.6705 77.4196,91.0038 78.5,93.5C 78.5,93.8333 78.5,94.1667 78.5,94.5C 78.1667,94.5 77.8333,94.5 77.5,94.5C 76.8333,93.5 76.1667,92.5 75.5,91.5C 74.9688,89.3763 73.6355,87.8763 71.5,87C 68.5682,86.0467 65.5682,85.5467 62.5,85.5 Z"/></g>
<g><path style="opacity:1" fill="#414446" d="M 158.5,85.5 C 161.287,84.5233 164.287,84.19 167.5,84.5C 167.833,85.1667 168.167,85.8333 168.5,86.5C 165.236,85.6758 161.902,85.3424 158.5,85.5 Z"/></g>
<g><path style="opacity:1" fill="#c4b486" d="M 155.5,85.5 C 156.5,85.5 157.5,85.5 158.5,85.5C 161.902,85.3424 165.236,85.6758 168.5,86.5C 169.925,87.922 170.925,89.5887 171.5,91.5C 171.5,92.1667 171.5,92.8333 171.5,93.5C 170.542,93.0472 169.708,92.3805 169,91.5C 168.802,93.3817 168.302,95.0484 167.5,96.5C 167.737,95.209 167.404,94.209 166.5,93.5C 164.565,89.4293 161.565,88.5959 157.5,91C 156.748,91.6708 156.414,92.5041 156.5,93.5C 155.662,93.8417 155.328,94.5084 155.5,95.5C 154.837,93.9581 154.17,92.2914 153.5,90.5C 152.824,91.6016 152.158,92.6016 151.5,93.5C 151.5,92.5 151.5,91.5 151.5,90.5C 152.833,88.8333 154.167,87.1667 155.5,85.5 Z"/></g>
<g><path style="opacity:1" fill="#c3b58d" d="M 62.5,85.5 C 65.5682,85.5467 68.5682,86.0467 71.5,87C 73.6355,87.8763 74.9688,89.3763 75.5,91.5C 74.4246,90.4376 73.4246,90.4376 72.5,91.5C 73.1272,92.4168 73.4606,93.4168 73.5,94.5C 73.1667,94.5 72.8333,94.5 72.5,94.5C 70.0374,89.3002 66.3707,88.3002 61.5,91.5C 61.719,90.325 61.3857,89.325 60.5,88.5C 58.8144,89.8569 57.1477,91.1902 55.5,92.5C 56.5,88.8333 58.8333,86.5 62.5,85.5 Z"/></g>
<g><path style="opacity:1" fill="#afa58c" d="M 42.5,86.5 C 33.9891,84.6956 29.6558,88.0289 29.5,96.5C 28.1211,93.1174 28.4544,89.7841 30.5,86.5C 32.7345,85.5531 35.0678,84.8864 37.5,84.5C 39.5566,84.4357 41.2233,85.1024 42.5,86.5 Z"/></g>
<g><path style="opacity:1" fill="#c2b082" d="M 42.5,86.5 C 43.791,86.2627 44.791,86.596 45.5,87.5C 45.5,88.8333 45.5,90.1667 45.5,91.5C 41.8648,90.8857 38.1981,90.5524 34.5,90.5C 34.366,92.2915 34.6993,93.9582 35.5,95.5C 33.9755,94.8262 32.6422,93.8262 31.5,92.5C 30.4808,94.4595 30.4808,96.4595 31.5,98.5C 30.5,98.1667 29.8333,97.5 29.5,96.5C 29.6558,88.0289 33.9891,84.6956 42.5,86.5 Z"/></g>
<g><path style="opacity:1" fill="#1d262e" d="M 92.5,84.5 C 93.4959,84.4142 94.3292,84.7476 95,85.5C 96.9312,89.0405 99.0979,92.3738 101.5,95.5C 102.167,92.3583 102.834,89.3583 103.5,86.5C 103.5,90.5 103.5,94.5 103.5,98.5C 103.869,100.993 103.203,101.66 101.5,100.5C 100.416,97.9959 99.0828,95.6626 97.5,93.5C 96.8897,91.5659 95.8897,89.8993 94.5,88.5C 94.5858,87.5041 94.2524,86.6708 93.5,86C 91.8333,85.3333 90.1667,85.3333 88.5,86C 87.5562,88.7191 87.2229,91.5525 87.5,94.5C 87.5,97.5 87.5,100.5 87.5,103.5C 87.5,106.833 87.5,110.167 87.5,113.5C 89.1667,113.5 90.8333,113.5 92.5,113.5C 90.7354,114.461 88.7354,114.795 86.5,114.5C 86.5,104.5 86.5,94.5 86.5,84.5C 88.5,84.5 90.5,84.5 92.5,84.5 Z"/></g>
<g><path style="opacity:1" fill="#bdb294" d="M 94.5,88.5 C 92.5648,87.8505 90.5648,87.5172 88.5,87.5C 88.5,89.8333 88.5,92.1667 88.5,94.5C 88.1667,94.5 87.8333,94.5 87.5,94.5C 87.2229,91.5525 87.5562,88.7191 88.5,86C 90.1667,85.3333 91.8333,85.3333 93.5,86C 94.2524,86.6708 94.5858,87.5041 94.5,88.5 Z"/></g>
<g><path style="opacity:1" fill="#bcaf88" d="M 136.5,85.5 C 138.099,85.2322 139.432,85.5655 140.5,86.5C 140.5,90.8333 140.5,95.1667 140.5,99.5C 139.679,96.3586 139.179,93.0252 139,89.5C 138.586,89.0426 138.086,88.7093 137.5,88.5C 136.833,91.6417 136.166,94.6417 135.5,97.5C 135.5,93.8333 135.5,90.1667 135.5,86.5C 135.5,85.8333 135.833,85.5 136.5,85.5 Z"/></g>
<g><path style="opacity:1" fill="#1e272e" d="M 45.5,87.5 C 46.4511,88.9187 46.7845,90.5853 46.5,92.5C 43.1016,92.1796 39.7683,92.513 36.5,93.5C 36.8627,94.1835 37.1961,94.8501 37.5,95.5C 36.8333,95.5 36.1667,95.5 35.5,95.5C 34.6993,93.9582 34.366,92.2915 34.5,90.5C 38.1981,90.5524 41.8648,90.8857 45.5,91.5C 45.5,90.1667 45.5,88.8333 45.5,87.5 Z"/></g>
<g><path style="opacity:1" fill="#14202c" d="M 108.5,113.5 C 109.447,104.22 109.78,94.8864 109.5,85.5C 107.5,85.5 105.5,85.5 103.5,85.5C 105.279,83.6565 107.612,82.9898 110.5,83.5C 110.666,93.1724 110.5,102.839 110,112.5C 109.617,113.056 109.117,113.389 108.5,113.5 Z"/></g>
<g><path style="opacity:1" fill="#c7ab6d" d="M 94.5,88.5 C 95.8897,89.8993 96.8897,91.5659 97.5,93.5C 97.5,94.8333 97.5,96.1667 97.5,97.5C 96.5,97.5 95.5,97.5 94.5,97.5C 93.5384,95.0144 92.7051,95.0144 92,97.5C 91.3333,96.1667 90.6667,96.1667 90,97.5C 88.9614,96.7562 88.4614,95.7562 88.5,94.5C 88.5,92.1667 88.5,89.8333 88.5,87.5C 90.5648,87.5172 92.5648,87.8505 94.5,88.5 Z"/></g>
<g><path style="opacity:1" fill="#112036" d="M 47.5,101.5 C 47.1667,101.5 46.8333,101.5 46.5,101.5C 44.3696,98.2633 41.3696,96.2633 37.5,95.5C 37.1961,94.8501 36.8627,94.1835 36.5,93.5C 39.7683,92.513 43.1016,92.1796 46.5,92.5C 46.7845,90.5853 46.4511,88.9187 45.5,87.5C 44.791,86.596 43.791,86.2627 42.5,86.5C 41.2233,85.1024 39.5566,84.4357 37.5,84.5C 35.0678,84.8864 32.7345,85.5531 30.5,86.5C 31.1744,83.0933 33.3411,81.76 37,82.5C 38.5,82.6667 40,82.8333 41.5,83C 42.7158,84.7398 44.3825,85.7398 46.5,86C 48.074,89.6546 47.4073,92.8213 44.5,95.5C 45.5588,97.5336 46.5588,99.5336 47.5,101.5 Z"/></g>
<g><path style="opacity:1" fill="#14202e" d="M 72.5,94.5 C 72.665,97.8499 72.4983,101.183 72,104.5C 68.8295,109.414 65.1628,109.747 61,105.5C 60.5014,101.848 60.3347,98.1817 60.5,94.5C 61.1098,93.609 61.4431,92.609 61.5,91.5C 66.3707,88.3002 70.0374,89.3002 72.5,94.5 Z"/></g>
<g><path style="opacity:1" fill="#c1a468" d="M 75.5,91.5 C 76.1667,92.5 76.8333,93.5 77.5,94.5C 76.8848,100.495 75.5515,100.829 73.5,95.5C 73.5,95.1667 73.5,94.8333 73.5,94.5C 73.4606,93.4168 73.1272,92.4168 72.5,91.5C 73.4246,90.4376 74.4246,90.4376 75.5,91.5 Z"/></g>
<g><path style="opacity:1" fill="#142136" d="M 155.5,85.5 C 154.167,87.1667 152.833,88.8333 151.5,90.5C 149.953,92.8066 149.287,95.4733 149.5,98.5C 149.455,102.319 150.122,105.986 151.5,109.5C 150.542,109.047 149.708,108.381 149,107.5C 148.717,103.867 147.883,100.367 146.5,97C 147.593,94.2663 147.593,91.5996 146.5,89C 149.148,86.9504 152.148,85.7837 155.5,85.5 Z"/></g>
<g><path style="opacity:1" fill="#121f34" d="M 166.5,93.5 C 166.5,94.5 166.5,95.5 166.5,96.5C 163.167,96.5 159.833,96.5 156.5,96.5C 156.5,95.5 156.5,94.5 156.5,93.5C 156.414,92.5041 156.748,91.6708 157.5,91C 161.565,88.5959 164.565,89.4293 166.5,93.5 Z"/></g>
<g><path style="opacity:1" fill="#021e45" d="M 63.5,92.5 C 65.8333,92.5 68.1667,92.5 70.5,92.5C 71.0065,96.0071 70.3398,99.1737 68.5,102C 69.3802,103.356 69.7135,104.856 69.5,106.5C 63.9237,107.749 61.257,105.583 61.5,100C 61.9653,97.3967 62.632,94.8967 63.5,92.5 Z"/></g>
<g><path style="opacity:1" fill="#ba9d61" d="M 171.5,93.5 C 171.5,95.8333 171.5,98.1667 171.5,100.5C 170.167,100.5 168.833,100.5 167.5,100.5C 167.5,99.5 167.5,98.5 167.5,97.5C 167.5,97.1667 167.5,96.8333 167.5,96.5C 168.302,95.0484 168.802,93.3817 169,91.5C 169.708,92.3805 170.542,93.0472 171.5,93.5 Z"/></g>
<g><path style="opacity:1" fill="#555045" d="M 156.5,93.5 C 156.5,94.5 156.5,95.5 156.5,96.5C 159.833,96.5 163.167,96.5 166.5,96.5C 166.5,95.5 166.5,94.5 166.5,93.5C 167.404,94.209 167.737,95.209 167.5,96.5C 167.5,96.8333 167.5,97.1667 167.5,97.5C 163.833,97.5 160.167,97.5 156.5,97.5C 155.662,97.1583 155.328,96.4916 155.5,95.5C 155.328,94.5084 155.662,93.8417 156.5,93.5 Z"/></g>
<g><path style="opacity:1" fill="#bea56d" d="M 61.5,91.5 C 61.4431,92.609 61.1098,93.609 60.5,94.5C 59.8333,94.5 59.5,94.8333 59.5,95.5C 58.735,96.6602 57.735,97.6602 56.5,98.5C 55.5344,96.604 55.2011,94.604 55.5,92.5C 57.1477,91.1902 58.8144,89.8569 60.5,88.5C 61.3857,89.325 61.719,90.325 61.5,91.5 Z"/></g>
<g><path style="opacity:1" fill="#161b26" d="M 134.5,87.5 C 134.818,92.0323 134.485,96.3656 133.5,100.5C 133.5,99.8333 133.167,99.5 132.5,99.5C 132.167,98.1667 131.833,96.8333 131.5,95.5C 133.098,93.1433 134.098,90.4766 134.5,87.5 Z"/></g>
<g><path style="opacity:1" fill="#4a473f" d="M 135.5,86.5 C 135.5,90.1667 135.5,93.8333 135.5,97.5C 135.66,99.1992 135.494,100.866 135,102.5C 134.283,101.956 133.783,101.289 133.5,100.5C 134.485,96.3656 134.818,92.0323 134.5,87.5C 134.5,86.8333 134.833,86.5 135.5,86.5 Z"/></g>
<g><path style="opacity:1" fill="#a8925c" d="M 35.5,95.5 C 36.1667,95.5 36.8333,95.5 37.5,95.5C 41.3696,96.2633 44.3696,98.2633 46.5,101.5C 46.719,102.675 46.3857,103.675 45.5,104.5C 44.069,104.023 42.7357,103.357 41.5,102.5C 40.3595,101.575 40.3595,100.741 41.5,100C 38.5184,99.502 35.5184,99.3354 32.5,99.5C 31.8333,99.5 31.5,99.1667 31.5,98.5C 30.4808,96.4595 30.4808,94.4595 31.5,92.5C 32.6422,93.8262 33.9755,94.8262 35.5,95.5 Z"/></g>
<g><path style="opacity:1" fill="#b79d64" d="M 127.5,91.5 C 128.974,92.4363 129.974,93.7697 130.5,95.5C 130.705,98.9864 129.371,99.9864 126.5,98.5C 125.452,96.0673 124.786,96.0673 124.5,98.5C 123.833,98.5 123.5,98.8333 123.5,99.5C 122.857,101.076 121.857,102.41 120.5,103.5C 119.586,100.272 119.253,96.9387 119.5,93.5C 120.461,91.7354 120.795,89.7354 120.5,87.5C 121.833,87.5 123.167,87.5 124.5,87.5C 124.468,89.6188 125.468,90.9522 127.5,91.5 Z"/></g>
<g><path style="opacity:1" fill="#918462" d="M 103.5,85.5 C 105.5,85.5 107.5,85.5 109.5,85.5C 109.78,94.8864 109.447,104.22 108.5,113.5C 108.167,113.5 107.833,113.5 107.5,113.5C 105.856,113.714 104.356,113.38 103,112.5C 100.155,107.473 97.3214,102.473 94.5,97.5C 95.5,97.5 96.5,97.5 97.5,97.5C 97.5,96.1667 97.5,94.8333 97.5,93.5C 99.0828,95.6626 100.416,97.9959 101.5,100.5C 100.325,100.281 99.325,100.614 98.5,101.5C 100.368,104.843 102.368,108.01 104.5,111C 105.448,111.483 106.448,111.649 107.5,111.5C 107.283,106.77 107.617,102.103 108.5,97.5C 108.5,93.8333 108.5,90.1667 108.5,86.5C 107.167,86.5 105.833,86.5 104.5,86.5C 104.5,89.5 104.5,92.5 104.5,95.5C 104.737,96.791 104.404,97.791 103.5,98.5C 103.5,94.5 103.5,90.5 103.5,86.5C 103.5,86.1667 103.5,85.8333 103.5,85.5 Z"/></g>
<g><path style="opacity:1" fill="#c5ac6e" d="M 108.5,97.5 C 106.801,97.4729 105.467,96.8062 104.5,95.5C 104.5,92.5 104.5,89.5 104.5,86.5C 105.833,86.5 107.167,86.5 108.5,86.5C 108.5,90.1667 108.5,93.8333 108.5,97.5 Z"/></g>
<g><path style="opacity:1" fill="#af9356" d="M 155.5,95.5 C 155.328,96.4916 155.662,97.1583 156.5,97.5C 158.698,98.1653 161.031,98.8319 163.5,99.5C 160.694,100.168 158.028,100.834 155.5,101.5C 154.685,102.429 153.852,103.429 153,104.5C 151.184,100.949 150.684,97.2823 151.5,93.5C 152.158,92.6016 152.824,91.6016 153.5,90.5C 154.17,92.2914 154.837,93.9581 155.5,95.5 Z"/></g>
<g><path style="opacity:1" fill="#998a62" d="M 171.5,91.5 C 173.697,94.5629 174.03,97.8962 172.5,101.5C 166.833,101.5 161.167,101.5 155.5,101.5C 158.028,100.834 160.694,100.168 163.5,99.5C 161.031,98.8319 158.698,98.1653 156.5,97.5C 160.167,97.5 163.833,97.5 167.5,97.5C 167.5,98.5 167.5,99.5 167.5,100.5C 168.833,100.5 170.167,100.5 171.5,100.5C 171.5,98.1667 171.5,95.8333 171.5,93.5C 171.5,92.8333 171.5,92.1667 171.5,91.5 Z"/></g>
<g><path style="opacity:1" fill="#0e1e37" d="M 131.5,95.5 C 131.167,95.5 130.833,95.5 130.5,95.5C 129.974,93.7697 128.974,92.4363 127.5,91.5C 126.813,86.2962 124.146,84.6295 119.5,86.5C 118.343,94.9901 118.176,103.657 119,112.5C 121.339,114.078 123.172,113.745 124.5,111.5C 124.833,111.5 125.167,111.5 125.5,111.5C 124.618,115.143 122.284,116.31 118.5,115C 118,114.5 117.5,114 117,113.5C 116.667,106.167 116.333,98.8333 116,91.5C 115.13,90.8921 114.63,90.0588 114.5,89C 115.148,87.5603 115.481,86.0603 115.5,84.5C 119.043,83.1529 122.71,82.3196 126.5,82C 126.167,82.3333 125.833,82.6667 125.5,83C 127.625,87.2637 129.625,91.4303 131.5,95.5 Z"/></g>
<g><path style="opacity:1" fill="#bdb18f" d="M 127.5,91.5 C 125.468,90.9522 124.468,89.6188 124.5,87.5C 123.167,87.5 121.833,87.5 120.5,87.5C 120.795,89.7354 120.461,91.7354 119.5,93.5C 119.5,91.1667 119.5,88.8333 119.5,86.5C 124.146,84.6295 126.813,86.2962 127.5,91.5 Z"/></g>
<g><path style="opacity:1" fill="#474843" d="M 155.5,101.5 C 161.167,101.5 166.833,101.5 172.5,101.5C 171.432,102.434 170.099,102.768 168.5,102.5C 164.029,101.911 160.029,102.577 156.5,104.5C 155.596,103.791 155.263,102.791 155.5,101.5 Z"/></g>
<g><path style="opacity:1" fill="#a28857" d="M 55.5,92.5 C 55.2011,94.604 55.5344,96.604 56.5,98.5C 57.735,97.6602 58.735,96.6602 59.5,95.5C 59.6655,99.5138 59.4988,103.514 59,107.5C 57.9887,106.663 56.8221,106.33 55.5,106.5C 55.3573,104.738 55.6906,103.071 56.5,101.5C 54.9137,99.8273 54.2471,97.8273 54.5,95.5C 54.2627,94.209 54.596,93.209 55.5,92.5 Z"/></g>
<g><path style="opacity:1" fill="#9c8855" d="M 77.5,94.5 C 77.8333,94.5 78.1667,94.5 78.5,94.5C 78.5,97.1667 78.5,99.8333 78.5,102.5C 77.4415,103.6 76.6082,104.934 76,106.5C 73.7912,103.211 72.9579,99.5443 73.5,95.5C 75.5515,100.829 76.8848,100.495 77.5,94.5 Z"/></g>
<g><path style="opacity:1" fill="#051d3d" d="M 92.5,84.5 C 90.5,84.5 88.5,84.5 86.5,84.5C 86.5,94.5 86.5,104.5 86.5,114.5C 88.7354,114.795 90.7354,114.461 92.5,113.5C 93.1667,113.5 93.8333,113.5 94.5,113.5C 94.3893,114.117 94.056,114.617 93.5,115C 90.854,115.497 88.1873,115.664 85.5,115.5C 85.5,114.167 85.5,112.833 85.5,111.5C 79.7524,109.069 76.0857,110.902 74.5,117C 71.7759,117.27 69.1092,117.77 66.5,118.5C 65.0815,117.995 64.4148,116.995 64.5,115.5C 67.1873,115.664 69.854,115.497 72.5,115C 73.2524,114.329 73.5858,113.496 73.5,112.5C 76.091,111.746 77.9243,110.079 79,107.5C 79.8151,102.648 79.6484,97.9811 78.5,93.5C 77.4196,91.0038 76.0862,88.6705 74.5,86.5C 73.653,85.0337 72.3197,84.2004 70.5,84C 65.6592,83.2313 60.9925,83.7313 56.5,85.5C 56.7148,87.1788 56.0481,88.1788 54.5,88.5C 55.8835,84.5994 54.5502,81.9327 50.5,80.5C 51.3333,80.1667 52.1667,79.8333 53,79.5C 54.8773,80.2529 56.7107,81.0862 58.5,82C 64.32,82.0477 69.9867,82.881 75.5,84.5C 77,87.1667 78.5,89.8333 80,92.5C 80.4986,96.1516 80.6653,99.8183 80.5,103.5C 83.3882,103.78 84.8882,102.447 85,99.5C 84.4876,92.8216 84.9876,86.1549 86.5,79.5C 90.3144,78.9807 92.3144,80.6473 92.5,84.5 Z"/></g>
<g><path style="opacity:1" fill="#998352" d="M 87.5,94.5 C 87.8333,94.5 88.1667,94.5 88.5,94.5C 88.4614,95.7562 88.9614,96.7562 90,97.5C 90.6667,96.1667 91.3333,96.1667 92,97.5C 92.7051,95.0144 93.5384,95.0144 94.5,97.5C 93.8333,97.5 93.5,97.8333 93.5,98.5C 92.7321,99.2625 92.2321,100.263 92,101.5C 91.5017,104.817 91.335,108.15 91.5,111.5C 90.5,111.5 89.5,111.5 88.5,111.5C 88.8064,108.615 88.4731,105.948 87.5,103.5C 87.5,100.5 87.5,97.5 87.5,94.5 Z"/></g>
<g><path style="opacity:1" fill="#a08451" d="M 140.5,99.5 C 140.24,103.302 139.406,106.969 138,110.5C 136.59,108.116 134.59,106.45 132,105.5C 129.986,103.03 130.153,101.03 132.5,99.5C 133.167,99.5 133.5,99.8333 133.5,100.5C 133.783,101.289 134.283,101.956 135,102.5C 135.494,100.866 135.66,99.1992 135.5,97.5C 136.166,94.6417 136.833,91.6417 137.5,88.5C 138.086,88.7093 138.586,89.0426 139,89.5C 139.179,93.0252 139.679,96.3586 140.5,99.5 Z"/></g>
<g><path style="opacity:1" fill="#162131" d="M 94.5,97.5 C 97.3214,102.473 100.155,107.473 103,112.5C 104.356,113.38 105.856,113.714 107.5,113.5C 105.393,114.468 103.059,114.802 100.5,114.5C 100.15,111.314 98.8171,108.647 96.5,106.5C 95.914,106.709 95.414,107.043 95,107.5C 94.5045,109.473 94.3379,111.473 94.5,113.5C 93.8333,113.5 93.1667,113.5 92.5,113.5C 93.3924,108.562 93.7257,103.562 93.5,98.5C 93.5,97.8333 93.8333,97.5 94.5,97.5 Z"/></g>
<g><path style="opacity:1" fill="#987e4a" d="M 104.5,95.5 C 105.467,96.8062 106.801,97.4729 108.5,97.5C 107.617,102.103 107.283,106.77 107.5,111.5C 106.448,111.649 105.448,111.483 104.5,111C 102.368,108.01 100.368,104.843 98.5,101.5C 99.325,100.614 100.325,100.281 101.5,100.5C 103.203,101.66 103.869,100.993 103.5,98.5C 104.404,97.791 104.737,96.791 104.5,95.5 Z"/></g>
<g><path style="opacity:1" fill="#111e35" d="M 136.5,85.5 C 138.223,84.193 140.057,84.193 142,85.5C 142.5,95.4944 142.666,105.494 142.5,115.5C 135.29,117.078 130.957,114.411 129.5,107.5C 128.675,106.614 127.675,106.281 126.5,106.5C 126.784,108.415 126.451,110.081 125.5,111.5C 124.92,107.351 125.586,103.684 127.5,100.5C 129.782,104.893 132.448,109.059 135.5,113C 137.701,113.825 139.534,113.325 141,111.5C 141.823,102.99 141.657,94.6563 140.5,86.5C 139.432,85.5655 138.099,85.2322 136.5,85.5 Z"/></g>
<g><path style="opacity:1" fill="#161e28" d="M 168.5,102.5 C 164.979,103.166 161.313,103.833 157.5,104.5C 157.977,105.478 158.643,106.311 159.5,107C 162.531,107.495 165.531,107.329 168.5,106.5C 168.082,107.222 167.416,107.722 166.5,108C 163.833,108.667 161.167,108.667 158.5,108C 157.177,107.184 156.511,106.017 156.5,104.5C 160.029,102.577 164.029,101.911 168.5,102.5 Z"/></g>
<g><path style="opacity:1" fill="#091d3d" d="M 172.5,109.5 C 172.306,107.088 170.973,106.088 168.5,106.5C 165.531,107.329 162.531,107.495 159.5,107C 158.643,106.311 157.977,105.478 157.5,104.5C 161.313,103.833 164.979,103.166 168.5,102.5C 170.099,102.768 171.432,102.434 172.5,101.5C 174.03,97.8962 173.697,94.5629 171.5,91.5C 170.925,89.5887 169.925,87.922 168.5,86.5C 168.167,85.8333 167.833,85.1667 167.5,84.5C 171.308,83.5612 171.308,82.2279 167.5,80.5C 169.167,79.1667 170.833,79.1667 172.5,80.5C 171.39,83.4579 172.39,85.6246 175.5,87C 174.484,87.5194 173.818,88.3527 173.5,89.5C 174.771,93.8542 174.771,98.1875 173.5,102.5C 175.963,105.142 175.63,107.476 172.5,109.5 Z"/></g>
<g><path style="opacity:1" fill="#7a745f" d="M 119.5,86.5 C 119.5,88.8333 119.5,91.1667 119.5,93.5C 119.253,96.9387 119.586,100.272 120.5,103.5C 120.5,106.167 120.5,108.833 120.5,111.5C 121.5,111.5 122.5,111.5 123.5,111.5C 123.5,107.5 123.5,103.5 123.5,99.5C 123.5,98.8333 123.833,98.5 124.5,98.5C 124.5,102.833 124.5,107.167 124.5,111.5C 123.172,113.745 121.339,114.078 119,112.5C 118.176,103.657 118.343,94.9901 119.5,86.5 Z"/></g>
<g><path style="opacity:1" fill="#282a31" d="M 78.5,93.5 C 79.6484,97.9811 79.8151,102.648 79,107.5C 77.9243,110.079 76.091,111.746 73.5,112.5C 76.6827,109.967 78.3494,106.634 78.5,102.5C 78.5,99.8333 78.5,97.1667 78.5,94.5C 78.5,94.1667 78.5,93.8333 78.5,93.5 Z"/></g>
<g><path style="opacity:1" fill="#292a22" d="M 126.5,98.5 C 126.833,99.1667 127.167,99.8333 127.5,100.5C 125.586,103.684 124.92,107.351 125.5,111.5C 125.167,111.5 124.833,111.5 124.5,111.5C 124.5,107.167 124.5,102.833 124.5,98.5C 124.786,96.0673 125.452,96.0673 126.5,98.5 Z"/></g>
<g><path style="opacity:1" fill="#917c51" d="M 32.5,99.5 C 35.5184,99.3354 38.5184,99.502 41.5,100C 40.3595,100.741 40.3595,101.575 41.5,102.5C 42.7357,103.357 44.069,104.023 45.5,104.5C 46.3857,103.675 46.719,102.675 46.5,101.5C 46.8333,101.5 47.1667,101.5 47.5,101.5C 47.6633,103.857 47.4966,106.19 47,108.5C 46.6232,109.942 45.7899,110.942 44.5,111.5C 40.4793,112.505 36.4793,112.505 32.5,111.5C 34.7662,110.686 37.0995,110.186 39.5,110C 40.3805,109.292 41.0472,108.458 41.5,107.5C 41.7035,105.61 41.0368,104.11 39.5,103C 37.0748,101.787 34.7415,100.621 32.5,99.5 Z"/></g>
<g><path style="opacity:1" fill="#7c7456" d="M 93.5,98.5 C 93.7257,103.562 93.3924,108.562 92.5,113.5C 90.8333,113.5 89.1667,113.5 87.5,113.5C 87.5,110.167 87.5,106.833 87.5,103.5C 88.4731,105.948 88.8064,108.615 88.5,111.5C 89.5,111.5 90.5,111.5 91.5,111.5C 91.335,108.15 91.5017,104.817 92,101.5C 92.2321,100.263 92.7321,99.2625 93.5,98.5 Z"/></g>
<g><path style="opacity:1" fill="#947b4d" d="M 123.5,99.5 C 123.5,103.5 123.5,107.5 123.5,111.5C 122.5,111.5 121.5,111.5 120.5,111.5C 120.5,108.833 120.5,106.167 120.5,103.5C 121.857,102.41 122.857,101.076 123.5,99.5 Z"/></g>
<g><path style="opacity:1" fill="#867553" d="M 60.5,94.5 C 60.3347,98.1817 60.5014,101.848 61,105.5C 65.1628,109.747 68.8295,109.414 72,104.5C 72.4983,101.183 72.665,97.8499 72.5,94.5C 72.8333,94.5 73.1667,94.5 73.5,94.5C 73.5,94.8333 73.5,95.1667 73.5,95.5C 72.9579,99.5443 73.7912,103.211 76,106.5C 76.6082,104.934 77.4415,103.6 78.5,102.5C 78.3494,106.634 76.6827,109.967 73.5,112.5C 69.2201,113.54 64.8868,113.706 60.5,113C 57.9774,111.64 55.9774,109.807 54.5,107.5C 53.7736,103.321 53.7736,99.3205 54.5,95.5C 54.2471,97.8273 54.9137,99.8273 56.5,101.5C 55.6906,103.071 55.3573,104.738 55.5,106.5C 56.8221,106.33 57.9887,106.663 59,107.5C 59.4988,103.514 59.6655,99.5138 59.5,95.5C 59.5,94.8333 59.8333,94.5 60.5,94.5 Z"/></g>
<g><path style="opacity:1" fill="#8b7c54" d="M 151.5,90.5 C 151.5,91.5 151.5,92.5 151.5,93.5C 150.684,97.2823 151.184,100.949 153,104.5C 153.852,103.429 154.685,102.429 155.5,101.5C 155.263,102.791 155.596,103.791 156.5,104.5C 156.511,106.017 157.177,107.184 158.5,108C 161.167,108.667 163.833,108.667 166.5,108C 167.416,107.722 168.082,107.222 168.5,106.5C 170.973,106.088 172.306,107.088 172.5,109.5C 172.5,109.833 172.5,110.167 172.5,110.5C 167.552,113.168 162.219,114.168 156.5,113.5C 154.858,112.197 153.191,110.864 151.5,109.5C 150.122,105.986 149.455,102.319 149.5,98.5C 149.287,95.4733 149.953,92.8066 151.5,90.5 Z"/></g>
<g><path style="opacity:1" fill="#172232" d="M 54.5,107.5 C 55.9774,109.807 57.9774,111.64 60.5,113C 64.8868,113.706 69.2201,113.54 73.5,112.5C 73.5858,113.496 73.2524,114.329 72.5,115C 69.854,115.497 67.1873,115.664 64.5,115.5C 58.6797,115.625 55.3464,112.958 54.5,107.5 Z"/></g>
<g><path style="opacity:1" fill="#7e7050" d="M 140.5,86.5 C 141.657,94.6563 141.823,102.99 141,111.5C 139.534,113.325 137.701,113.825 135.5,113C 132.448,109.059 129.782,104.893 127.5,100.5C 127.167,99.8333 126.833,99.1667 126.5,98.5C 129.371,99.9864 130.705,98.9864 130.5,95.5C 130.833,95.5 131.167,95.5 131.5,95.5C 131.833,96.8333 132.167,98.1667 132.5,99.5C 130.153,101.03 129.986,103.03 132,105.5C 134.59,106.45 136.59,108.116 138,110.5C 139.406,106.969 140.24,103.302 140.5,99.5C 140.5,95.1667 140.5,90.8333 140.5,86.5 Z"/></g>
<g><path style="opacity:1" fill="#142033" d="M 30.5,86.5 C 28.4544,89.7841 28.1211,93.1174 29.5,96.5C 29.8333,97.5 30.5,98.1667 31.5,98.5C 31.5,99.1667 31.8333,99.5 32.5,99.5C 34.7415,100.621 37.0748,101.787 39.5,103C 41.0368,104.11 41.7035,105.61 41.5,107.5C 37.5303,108.979 33.697,108.645 30,106.5C 26.6344,109.135 27.1344,111.302 31.5,113C 33.3333,113.167 35.1667,113.333 37,113.5C 39.8655,113.7 42.3655,113.033 44.5,111.5C 45.7899,110.942 46.6232,109.942 47,108.5C 47.4966,106.19 47.6633,103.857 47.5,101.5C 50.417,112.096 46.2504,116.763 35,115.5C 27.2383,116.397 24.5716,113.063 27,105.5C 29.0693,104.736 31.236,104.236 33.5,104C 32.6921,102.294 31.3588,101.461 29.5,101.5C 28.5145,98.8408 27.5145,96.1741 26.5,93.5C 26.6922,91.4233 27.1922,89.4233 28,87.5C 28.6708,86.7476 29.5041,86.4142 30.5,86.5 Z"/></g>
<g><path style="opacity:1" fill="#837757" d="M 41.5,107.5 C 41.0472,108.458 40.3805,109.292 39.5,110C 37.0995,110.186 34.7662,110.686 32.5,111.5C 36.4793,112.505 40.4793,112.505 44.5,111.5C 42.3655,113.033 39.8655,113.7 37,113.5C 35.1667,113.333 33.3333,113.167 31.5,113C 27.1344,111.302 26.6344,109.135 30,106.5C 33.697,108.645 37.5303,108.979 41.5,107.5 Z"/></g>
<g><path style="opacity:1" fill="#122237" d="M 172.5,110.5 C 171.74,114.677 169.24,117.01 165,117.5C 161.785,116.808 158.952,115.474 156.5,113.5C 162.219,114.168 167.552,113.168 172.5,110.5 Z"/></g>
</svg>
