<?xml version="1.0" encoding="UTF-8"?>
<!DOCTYPE svg PUBLIC "-//W3C//DTD SVG 1.1//EN" "http://www.w3.org/Graphics/SVG/1.1/DTD/svg11.dtd">
<svg xmlns="http://www.w3.org/2000/svg" version="1.1" width="2600px" height="2300px" style="shape-rendering:geometricPrecision; text-rendering:geometricPrecision; image-rendering:optimizeQuality; fill-rule:evenodd; clip-rule:evenodd" xmlns:xlink="http://www.w3.org/1999/xlink">
<g><path style="opacity:1" fill="#fefefe" d="M -0.5,-0.5 C 866.167,-0.5 1732.83,-0.5 2599.5,-0.5C 2599.5,766.167 2599.5,1532.83 2599.5,2299.5C 1732.83,2299.5 866.167,2299.5 -0.5,2299.5C -0.5,1532.83 -0.5,766.167 -0.5,-0.5 Z"/></g>
<g><path style="opacity:1" fill="#edf1f5" d="M 925.5,309.5 C 748.333,309.167 571.333,309.5 394.5,310.5C 393.957,310.44 393.624,310.107 393.5,309.5C 571,308.167 748.333,308.167 925.5,309.5 Z"/></g>
<g><path style="opacity:1" fill="#edf7fb" d="M 1610.5,309.5 C 1788,308.167 1965.67,308.167 2143.5,309.5C 2143.38,310.107 2143.04,310.44 2142.5,310.5C 1965.33,309.5 1788,309.167 1610.5,309.5 Z"/></g>
<g><path style="opacity:1" fill="#003e7e" d="M 925.5,309.5 C 936.739,321.664 947.239,334.331 957,347.5C 961.989,349.831 965.655,353.498 968,358.5C 972.154,360.653 974.82,363.986 976,368.5C 978.468,369.104 980.468,370.438 982,372.5C 988.913,382.09 996.247,391.423 1004,400.5C 1006.67,402.5 1009.33,404.5 1012,406.5C 1016.72,413.512 1022.22,419.845 1028.5,425.5C 1029.1,426.795 1029.6,428.128 1030,429.5C 1036.74,435.401 1042.57,442.068 1047.5,449.5C 1057.98,458.139 1066.81,468.139 1074,479.5C 1084.4,488.572 1093.4,498.905 1101,510.5C 1103.54,511.207 1105.71,512.54 1107.5,514.5C 1111.94,519.436 1115.78,524.77 1119,530.5C 1124.56,535.304 1129.89,540.304 1135,545.5C 1139.26,552.26 1144.09,558.593 1149.5,564.5C 1154.32,566.812 1157.48,570.478 1159,575.5C 1162.09,576.923 1164.09,579.257 1165,582.5C 1169.17,585.333 1172.67,588.833 1175.5,593C 1189.16,609.007 1203.32,624.84 1218,640.5C 1218.97,643.972 1221.14,646.306 1224.5,647.5C 1230.03,654.496 1235.87,661.162 1242,667.5C 1243.45,670.09 1244.61,672.757 1245.5,675.5C 1250.29,676.117 1253.46,678.784 1255,683.5C 1256.96,684.453 1258.62,685.787 1260,687.5C 1262.61,691.618 1265.44,695.618 1268.5,699.5C 1277.68,706.836 1285.18,715.503 1291,725.5C 1293.2,727.621 1295.7,729.288 1298.5,730.5C 1306.48,741.976 1315.65,752.309 1326,761.5C 1329.87,768.05 1334.54,774.05 1340,779.5C 1340.17,782.333 1341.67,783.833 1344.5,784C 1351.04,790.872 1357.21,798.039 1363,805.5C 1365.07,808.07 1367.57,810.07 1370.5,811.5C 1371.3,813.078 1371.8,814.744 1372,816.5C 1386.25,831.087 1400.25,846.087 1414,861.5C 1420.25,870.421 1427.25,878.754 1435,886.5C 1435.33,887.5 1435.67,888.5 1436,889.5C 1439.14,890.403 1441.8,892.07 1444,894.5C 1450.59,904.095 1457.59,913.428 1465,922.5C 1471.84,929.011 1478.34,935.844 1484.5,943C 1486.33,943.273 1487.83,944.107 1489,945.5C 1492,949.167 1495,952.833 1498,956.5C 1498.33,957.833 1498.67,959.167 1499,960.5C 1510.09,971.919 1520.76,983.585 1531,995.5C 1531.82,996.823 1532.98,997.489 1534.5,997.5C 1357,998.5 1179.33,998.833 1001.5,998.5C 989.442,986.056 977.608,973.39 966,960.5C 965.654,958.782 965.154,957.115 964.5,955.5C 962.356,953.07 959.856,951.07 957,949.5C 956.667,948.5 956.333,947.5 956,946.5C 940.98,933.125 927.813,918.125 916.5,901.5C 914.929,899.585 912.929,898.585 910.5,898.5C 910.649,897.448 910.483,896.448 910,895.5C 895.247,880.25 881.413,864.25 868.5,847.5C 862.045,841.877 856.045,835.71 850.5,829C 849.552,828.517 848.552,828.351 847.5,828.5C 846.415,823.57 843.581,819.903 839,817.5C 838.667,815.833 838.333,814.167 838,812.5C 824.129,797.17 809.796,782.17 795,767.5C 794.529,765.754 793.862,764.087 793,762.5C 786.074,755.572 779.741,748.238 774,740.5C 771.815,738.46 769.315,737.126 766.5,736.5C 766.509,734.692 766.009,733.025 765,731.5C 761.112,729.278 758.279,726.112 756.5,722C 752.611,721.017 750.444,718.517 750,714.5C 746.242,710.018 742.242,705.685 738,701.5C 736.725,697.724 734.225,695.057 730.5,693.5C 729.573,691.887 728.739,690.221 728,688.5C 720.291,682.624 713.791,675.624 708.5,667.5C 699.711,659.384 692.045,650.384 685.5,640.5C 681.314,637.148 677.647,633.314 674.5,629C 672.671,628.727 671.171,627.893 670,626.5C 667.667,622.833 665.333,619.167 663,615.5C 658.118,611.408 653.451,607.074 649,602.5C 647.923,598.228 645.59,594.895 642,592.5C 640.628,588.743 638.128,586.076 634.5,584.5C 631.952,581.241 629.286,578.074 626.5,575C 625.552,574.517 624.552,574.351 623.5,574.5C 623.392,572.217 622.559,570.217 621,568.5C 615.228,563.64 609.895,558.306 605,552.5C 600.716,545.883 596.05,539.55 591,533.5C 586.808,531.316 584.142,527.983 583,523.5C 577.796,519.457 572.796,515.123 568,510.5C 559.346,499.515 550.346,488.849 541,478.5C 540.667,477.167 540.333,475.833 540,474.5C 534.497,469.861 529.164,465.194 524,460.5C 515.206,449.858 506.206,439.525 497,429.5C 496.529,427.754 495.862,426.087 495,424.5C 490.126,420.627 485.959,416.127 482.5,411C 479.031,408.205 475.531,405.371 472,402.5C 461.299,389.302 450.799,375.968 440.5,362.5C 434.247,358.002 428.414,353.002 423,347.5C 420.795,343.284 417.795,339.617 414,336.5C 413,334.5 412,332.5 411,330.5C 405.636,323.644 400.136,316.977 394.5,310.5C 571.333,309.5 748.333,309.167 925.5,309.5 Z"/></g>
<g><path style="opacity:1" fill="#008fd0" d="M 1610.5,309.5 C 1788,309.167 1965.33,309.5 2142.5,310.5C 2139.45,313.93 2135.95,316.93 2132,319.5C 2131.73,321.329 2130.89,322.829 2129.5,324C 2124.99,325.682 2121.99,328.849 2120.5,333.5C 2117.03,335.14 2114.36,337.64 2112.5,341C 2110.2,341.895 2107.86,342.729 2105.5,343.5C 2092.99,354.933 2080.65,366.6 2068.5,378.5C 2065.16,383.656 2060.5,387.156 2054.5,389C 2052.19,390.637 2050.69,392.804 2050,395.5C 2045.55,397.614 2042.05,400.781 2039.5,405C 2038.5,405.333 2037.5,405.667 2036.5,406C 2031.34,411.831 2026.01,417.497 2020.5,423C 2019.17,423.333 2017.83,423.667 2016.5,424C 2014.59,427.025 2012.26,429.692 2009.5,432C 2008.17,432.333 2006.83,432.667 2005.5,433C 1994.62,444.667 1983.29,456 1971.5,467C 1965.35,468.59 1961.01,472.257 1958.5,478C 1954.58,479.584 1951.58,482.25 1949.5,486C 1948.5,486.333 1947.5,486.667 1946.5,487C 1937.83,495.667 1929.17,504.333 1920.5,513C 1918.83,513.333 1917.17,513.667 1915.5,514C 1904.05,525.667 1892.39,537.333 1880.5,549C 1876.9,551.594 1873.57,554.594 1870.5,558C 1865.7,559.778 1861.7,562.778 1858.5,567C 1854.06,568.442 1851.39,571.442 1850.5,576C 1849.5,576.333 1848.5,576.667 1847.5,577C 1843.03,582.667 1838.03,587.667 1832.5,592C 1830.73,593.439 1828.73,594.439 1826.5,595C 1825.39,600.445 1822.05,603.445 1816.5,604C 1815.21,606.292 1813.54,608.292 1811.5,610C 1803.51,615.655 1796.51,622.322 1790.5,630C 1779.74,638.511 1769.41,647.511 1759.5,657C 1755.24,658.92 1751.91,661.92 1749.5,666C 1748.5,666.333 1747.5,666.667 1746.5,667C 1744.71,671.948 1741.38,675.281 1736.5,677C 1733.69,681.808 1729.69,685.142 1724.5,687C 1722.75,690.42 1720.08,692.754 1716.5,694C 1710.41,700.085 1704.07,706.085 1697.5,712C 1694.5,715.023 1691.67,717.857 1689,720.5C 1687.77,720.355 1686.61,720.022 1685.5,719.5C 1681.93,714.916 1677.27,712.082 1671.5,711C 1665.84,706.952 1659.84,703.452 1653.5,700.5C 1649.2,695.676 1643.87,692.342 1637.5,690.5C 1634.49,686.488 1630.49,684.154 1625.5,683.5C 1620.19,679.69 1614.52,676.523 1608.5,674C 1607.18,672.341 1605.52,671.174 1603.5,670.5C 1602.74,669.372 1602.07,668.205 1601.5,667C 1595.55,665.027 1590.22,662.027 1585.5,658C 1583.83,657.667 1582.17,657.333 1580.5,657C 1574.74,652.905 1568.74,649.238 1562.5,646C 1561.17,644 1559.5,642.333 1557.5,641C 1548.1,635.63 1538.43,630.63 1528.5,626C 1524.07,621.612 1519.07,617.946 1513.5,615C 1503.34,609.139 1493.01,603.805 1482.5,599C 1481.83,597.667 1481.17,596.333 1480.5,595C 1468.3,588.737 1456.3,582.237 1444.5,575.5C 1443.1,573.395 1441.43,571.562 1439.5,570C 1436.19,568.716 1432.86,567.383 1429.5,566C 1419.83,560.335 1410.17,554.669 1400.5,549C 1396.62,544.223 1391.62,541.223 1385.5,540C 1380.16,535.995 1374.49,532.495 1368.5,529.5C 1376.29,520.16 1385.29,511.993 1395.5,505C 1403.95,494.882 1413.61,486.216 1424.5,479C 1427.92,472.575 1432.92,467.908 1439.5,465C 1444.91,458.924 1450.91,453.591 1457.5,449C 1463.18,442.657 1469.51,436.99 1476.5,432C 1478.72,429.695 1480.38,427.028 1481.5,424C 1483.5,423.333 1485.5,422.667 1487.5,422C 1492.6,417.439 1497.27,412.439 1501.5,407C 1503.25,406.529 1504.91,405.862 1506.5,405C 1508.89,400.947 1512.22,397.947 1516.5,396C 1521.28,391.221 1526.11,386.387 1531,381.5C 1531.48,380.552 1531.65,379.552 1531.5,378.5C 1532.87,378.657 1534.21,378.49 1535.5,378C 1545.34,367.744 1556,358.41 1567.5,350C 1571.46,344.929 1575.79,340.263 1580.5,336C 1585.06,335.469 1587.89,332.969 1589,328.5C 1591.57,326.131 1594.4,324.131 1597.5,322.5C 1598.25,321.624 1598.75,320.624 1599,319.5C 1603.6,316.965 1607.43,313.631 1610.5,309.5 Z"/></g>
<g><path style="opacity:1" fill="#ccd8e5" d="M 1534.5,997.5 C 1535.04,997.56 1535.38,997.893 1535.5,998.5C 1357.33,999.833 1179.33,999.833 1001.5,998.5C 1179.33,998.833 1357,998.5 1534.5,997.5 Z"/></g>
<g><path style="opacity:1" fill="#003e7e" d="M 1370.5,1775.5 C 1371.5,1750.01 1371.83,1724.34 1371.5,1698.5C 1329.5,1698.5 1287.5,1698.5 1245.5,1698.5C 1245.5,1655.17 1245.5,1611.83 1245.5,1568.5C 1343.17,1568.5 1440.83,1568.5 1538.5,1568.5C 1538.67,1664.5 1538.5,1760.5 1538,1856.5C 1485.94,1899.28 1426.77,1928.44 1360.5,1944C 1292.68,1958.63 1225.01,1957.97 1157.5,1942C 1081.36,1921.41 1019.86,1879.91 973,1817.5C 940.491,1771 921.158,1719.33 915,1662.5C 904.241,1555.23 936.074,1463.4 1010.5,1387C 1074.26,1327.15 1150.26,1295.15 1238.5,1291C 1311.84,1287.07 1381.17,1301.4 1446.5,1334C 1470.83,1347.98 1493.83,1363.98 1515.5,1382C 1516.52,1383.05 1516.68,1384.22 1516,1385.5C 1490,1416.17 1464,1446.83 1438,1477.5C 1431.99,1484.87 1425.99,1492.21 1420,1499.5C 1419.67,1500.5 1419.33,1501.5 1419,1502.5C 1416.33,1504 1414.16,1506 1412.5,1508.5C 1380.62,1480.22 1343.62,1461.39 1301.5,1452C 1224.69,1437.68 1164.52,1462.52 1121,1526.5C 1089.12,1585.3 1086.12,1645.63 1112,1707.5C 1137.73,1757.55 1178.23,1788.38 1233.5,1800C 1261.6,1802.49 1289.6,1801.82 1317.5,1798C 1326.41,1795.14 1335.41,1792.47 1344.5,1790C 1350.75,1786.71 1357.09,1783.71 1363.5,1781C 1365.9,1779.15 1368.24,1777.31 1370.5,1775.5 Z"/></g>
<g><path style="opacity:1" fill="#336598" d="M 1549.5,1304.5 C 1582.33,1303.83 1615.33,1303.5 1648.5,1303.5C 1681.84,1303.5 1714.84,1304.17 1747.5,1305.5C 1681.57,1304.5 1615.57,1304.17 1549.5,1304.5 Z"/></g>
<g><path style="opacity:1" fill="#336598" d="M 2037.5,1304.5 C 2102.33,1303.17 2167.33,1303.17 2232.5,1304.5C 2232.38,1305.11 2232.04,1305.44 2231.5,1305.5C 2167,1304.5 2102.34,1304.17 2037.5,1304.5 Z"/></g>
<g><path style="opacity:1" fill="#003e7e" d="M 334.5,1303.5 C 504.833,1303.5 675.167,1303.5 845.5,1303.5C 845.5,1355.17 845.5,1406.83 845.5,1458.5C 734.167,1458.5 622.833,1458.5 511.5,1458.5C 511.5,1494.5 511.5,1530.5 511.5,1566.5C 612.167,1566.5 712.833,1566.5 813.5,1566.5C 813.5,1615.5 813.5,1664.5 813.5,1713.5C 712.833,1713.5 612.167,1713.5 511.5,1713.5C 511.5,1789.83 511.5,1866.17 511.5,1942.5C 452.5,1942.5 393.5,1942.5 334.5,1942.5C 334.5,1729.5 334.5,1516.5 334.5,1303.5 Z"/></g>
<g><path style="opacity:1" fill="#003e7e" d="M 1549.5,1304.5 C 1615.57,1304.17 1681.57,1304.5 1747.5,1305.5C 1795.91,1439.22 1844.08,1573.22 1892,1707.5C 1940.03,1572.82 1988.53,1438.49 2037.5,1304.5C 2102.34,1304.17 2167,1304.5 2231.5,1305.5C 2145.41,1518.02 2059.58,1730.68 1974,1943.5C 1973.31,1944.03 1972.81,1944.69 1972.5,1945.5C 1917.5,1946.5 1862.5,1946.83 1807.5,1946.5C 1793.74,1908.99 1778.91,1871.99 1763,1835.5C 1762.59,1832.77 1761.92,1830.1 1761,1827.5C 1690.04,1653.32 1619.54,1478.99 1549.5,1304.5 Z"/></g>
<g><path style="opacity:1" fill="#acbfd5" d="M 1245.5,1568.5 C 1245.5,1611.83 1245.5,1655.17 1245.5,1698.5C 1287.5,1698.5 1329.5,1698.5 1371.5,1698.5C 1371.83,1724.34 1371.5,1750.01 1370.5,1775.5C 1370.5,1750.17 1370.5,1724.83 1370.5,1699.5C 1328.5,1699.5 1286.5,1699.5 1244.5,1699.5C 1244.17,1655.66 1244.5,1612 1245.5,1568.5 Z"/></g>
</svg>
