<?xml version="1.0" encoding="UTF-8"?>
<!DOCTYPE svg PUBLIC "-//W3C//DTD SVG 1.1//EN" "http://www.w3.org/Graphics/SVG/1.1/DTD/svg11.dtd">
<svg xmlns="http://www.w3.org/2000/svg" version="1.1" width="1006px" height="787px" style="shape-rendering:geometricPrecision; text-rendering:geometricPrecision; image-rendering:optimizeQuality; fill-rule:evenodd; clip-rule:evenodd" xmlns:xlink="http://www.w3.org/1999/xlink">
<g><path style="opacity:1" fill="#272454" d="M -0.5,-0.5 C 334.833,-0.5 670.167,-0.5 1005.5,-0.5C 1005.5,261.833 1005.5,524.167 1005.5,786.5C 670.167,786.5 334.833,786.5 -0.5,786.5C -0.5,524.167 -0.5,261.833 -0.5,-0.5 Z"/></g>
<g><path style="opacity:1" fill="#35a5d2" d="M 511.5,205.5 C 511.795,203.265 511.461,201.265 510.5,199.5C 517.768,196.023 525.435,193.856 533.5,193C 536.326,195.522 535.993,197.522 532.5,199C 525.452,201.072 518.452,203.239 511.5,205.5 Z"/></g>
<g><path style="opacity:1" fill="#35a5cc" d="M 457.5,209.5 C 457.795,207.265 457.461,205.265 456.5,203.5C 463.106,198.856 470.106,194.689 477.5,191C 479.955,190.228 481.622,191.061 482.5,193.5C 482.471,195.029 481.804,196.196 480.5,197C 472.779,201.191 465.113,205.358 457.5,209.5 Z"/></g>
<g><path style="opacity:1" fill="#35a3d2" d="M 573.5,212.5 C 573.5,210.167 573.5,207.833 573.5,205.5C 575.099,205.768 576.432,205.434 577.5,204.5C 590.169,203.123 602.836,203.29 615.5,205C 617.325,206.466 617.825,208.299 617,210.5C 602.563,211.309 588.063,211.975 573.5,212.5 Z"/></g>
<g><path style="opacity:1" fill="#35a4be" d="M 510.5,199.5 C 511.461,201.265 511.795,203.265 511.5,205.5C 504.684,208.736 497.684,211.736 490.5,214.5C 490.795,212.265 490.461,210.265 489.5,208.5C 496.084,204.713 503.084,201.713 510.5,199.5 Z"/></g>
<g><path style="opacity:1" fill="#36a4b3" d="M 577.5,204.5 C 576.432,205.434 575.099,205.768 573.5,205.5C 573.5,207.833 573.5,210.167 573.5,212.5C 561.246,213.633 549.246,215.967 537.5,219.5C 538.01,216.612 537.344,214.279 535.5,212.5C 549.044,208.129 563.044,205.462 577.5,204.5 Z"/></g>
<g><path style="opacity:1" fill="#36a4b3" d="M 456.5,203.5 C 457.461,205.265 457.795,207.265 457.5,209.5C 450.205,214.821 442.871,220.155 435.5,225.5C 435.802,222.941 435.468,220.607 434.5,218.5C 441.28,212.726 448.613,207.726 456.5,203.5 Z"/></g>
<g><path style="opacity:1" fill="#37a4a7" d="M 489.5,208.5 C 490.461,210.265 490.795,212.265 490.5,214.5C 480.87,219.65 471.536,225.316 462.5,231.5C 462.802,228.941 462.468,226.607 461.5,224.5C 470.174,218.159 479.507,212.825 489.5,208.5 Z"/></g>
<g><path style="opacity:1" fill="#38a59c" d="M 535.5,212.5 C 537.344,214.279 538.01,216.612 537.5,219.5C 526.205,222.709 515.205,226.709 504.5,231.5C 505.01,228.612 504.344,226.279 502.5,224.5C 512.918,219.135 523.918,215.135 535.5,212.5 Z"/></g>
<g><path style="opacity:1" fill="#35a5c2" d="M 574.5,225.5 C 584.987,224.506 595.654,224.172 606.5,224.5C 607.209,225.404 608.209,225.737 609.5,225.5C 609.5,227.833 609.5,230.167 609.5,232.5C 599.833,232.5 590.167,232.5 580.5,232.5C 580.5,230.167 580.5,227.833 580.5,225.5C 578.5,225.5 576.5,225.5 574.5,225.5 Z"/></g>
<g><path style="opacity:1" fill="#35a3d4" d="M 606.5,224.5 C 614.186,225.086 621.853,225.919 629.5,227C 633.645,227.421 637.478,228.588 641,230.5C 642.073,234.095 640.739,236.095 637,236.5C 627.919,234.478 618.752,233.145 609.5,232.5C 609.5,230.167 609.5,227.833 609.5,225.5C 608.209,225.737 607.209,225.404 606.5,224.5 Z"/></g>
<g><path style="opacity:1" fill="#38a49b" d="M 434.5,218.5 C 435.468,220.607 435.802,222.941 435.5,225.5C 428.858,231.137 422.192,236.804 415.5,242.5C 415.802,239.941 415.468,237.607 414.5,235.5C 420.554,229.113 427.221,223.446 434.5,218.5 Z"/></g>
<g><path style="opacity:1" fill="#37a5a7" d="M 574.5,225.5 C 576.5,225.5 578.5,225.5 580.5,225.5C 580.5,227.833 580.5,230.167 580.5,232.5C 567.551,233.368 554.884,235.701 542.5,239.5C 542.5,237.167 542.5,234.833 542.5,232.5C 541.5,232.5 540.5,232.5 539.5,232.5C 550.771,228.771 562.437,226.438 574.5,225.5 Z"/></g>
<g><path style="opacity:1" fill="#39a591" d="M 461.5,224.5 C 462.468,226.607 462.802,228.941 462.5,231.5C 454.887,236.447 447.553,241.78 440.5,247.5C 440.802,244.941 440.468,242.607 439.5,240.5C 446.471,234.68 453.804,229.347 461.5,224.5 Z"/></g>
<g><path style="opacity:1" fill="#3aa584" d="M 502.5,224.5 C 504.344,226.279 505.01,228.612 504.5,231.5C 493.743,236.714 483.41,242.714 473.5,249.5C 473.806,246.615 473.473,243.948 472.5,241.5C 481.518,234.318 491.518,228.652 502.5,224.5 Z"/></g>
<g><path style="opacity:1" fill="#39a590" d="M 539.5,232.5 C 540.5,232.5 541.5,232.5 542.5,232.5C 542.5,234.833 542.5,237.167 542.5,239.5C 532.204,242.376 522.204,246.043 512.5,250.5C 513.01,247.612 512.344,245.279 510.5,243.5C 519.559,238.48 529.226,234.814 539.5,232.5 Z"/></g>
<g><path style="opacity:1" fill="#37a8b1" d="M 573.5,246.5 C 576.287,245.523 579.287,245.19 582.5,245.5C 590.5,245.5 598.5,245.5 606.5,245.5C 606.5,247.833 606.5,250.167 606.5,252.5C 597.134,252.279 587.801,252.613 578.5,253.5C 578.5,251.167 578.5,248.833 578.5,246.5C 576.833,246.5 575.167,246.5 573.5,246.5 Z"/></g>
<g><path style="opacity:1" fill="#38a599" d="M 573.5,246.5 C 575.167,246.5 576.833,246.5 578.5,246.5C 578.5,248.833 578.5,251.167 578.5,253.5C 566.909,254.764 555.576,257.097 544.5,260.5C 544.5,258.167 544.5,255.833 544.5,253.5C 543.5,253.5 542.5,253.5 541.5,253.5C 551.718,249.68 562.385,247.346 573.5,246.5 Z"/></g>
<g><path style="opacity:1" fill="#3aa584" d="M 414.5,235.5 C 415.468,237.607 415.802,239.941 415.5,242.5C 408.768,249.227 402.435,256.227 396.5,263.5C 396.81,260.287 396.477,257.287 395.5,254.5C 401.5,247.833 407.833,241.5 414.5,235.5 Z"/></g>
<g><path style="opacity:1" fill="#35a3c5" d="M 582.5,245.5 C 603.743,243.457 624.743,245.457 645.5,251.5C 646.01,254.388 645.344,256.721 643.5,258.5C 631.208,256.174 618.875,254.174 606.5,252.5C 606.5,250.167 606.5,247.833 606.5,245.5C 598.5,245.5 590.5,245.5 582.5,245.5 Z"/></g>
<g><path style="opacity:1" fill="#35a4d6" d="M 645.5,251.5 C 652.922,253.696 660.255,256.196 667.5,259C 669.653,264.848 667.653,266.848 661.5,265C 655.391,262.817 649.391,260.651 643.5,258.5C 645.344,256.721 646.01,254.388 645.5,251.5 Z"/></g>
<g><path style="opacity:1" fill="#3aa476" d="M 510.5,243.5 C 512.344,245.279 513.01,247.612 512.5,250.5C 499.396,256.887 487.063,264.554 475.5,273.5C 475.81,270.287 475.477,267.287 474.5,264.5C 485.507,255.989 497.507,248.989 510.5,243.5 Z"/></g>
<g><path style="opacity:1" fill="#3aa46c" d="M 472.5,241.5 C 473.473,243.948 473.806,246.615 473.5,249.5C 462.77,256.539 452.77,264.539 443.5,273.5C 443.81,270.287 443.477,267.287 442.5,264.5C 451.411,255.382 461.411,247.715 472.5,241.5 Z"/></g>
<g><path style="opacity:1" fill="#3aa57e" d="M 541.5,253.5 C 542.5,253.5 543.5,253.5 544.5,253.5C 544.5,255.833 544.5,258.167 544.5,260.5C 533.558,263.478 523.225,267.811 513.5,273.5C 513.806,270.615 513.473,267.948 512.5,265.5C 521.538,260.153 531.204,256.153 541.5,253.5 Z"/></g>
<g><path style="opacity:1" fill="#39a389" d="M 610.5,265.5 C 611.036,268.698 610.369,271.365 608.5,273.5C 599.143,273.35 589.809,273.683 580.5,274.5C 580.5,271.833 580.5,269.167 580.5,266.5C 578.5,266.5 576.5,266.5 574.5,266.5C 586.327,264.328 598.327,263.995 610.5,265.5 Z"/></g>
<g><path style="opacity:1" fill="#3aa46e" d="M 439.5,240.5 C 440.468,242.607 440.802,244.941 440.5,247.5C 428.43,258.234 417.43,269.901 407.5,282.5C 407.81,279.287 407.477,276.287 406.5,273.5C 416.5,261.5 427.5,250.5 439.5,240.5 Z"/></g>
<g><path style="opacity:1" fill="#3aa578" d="M 574.5,266.5 C 576.5,266.5 578.5,266.5 580.5,266.5C 580.5,269.167 580.5,271.833 580.5,274.5C 570.009,275.706 559.675,277.706 549.5,280.5C 550.036,277.302 549.369,274.635 547.5,272.5C 556.082,269.107 565.082,267.107 574.5,266.5 Z"/></g>
<g><path style="opacity:1" fill="#38a4a0" d="M 610.5,265.5 C 626.019,266.62 641.019,269.953 655.5,275.5C 655.81,278.713 655.477,281.713 654.5,284.5C 639.364,279.548 624.03,275.881 608.5,273.5C 610.369,271.365 611.036,268.698 610.5,265.5 Z"/></g>
<g><path style="opacity:1" fill="#3aa45a" d="M 442.5,264.5 C 443.477,267.287 443.81,270.287 443.5,273.5C 436.138,281.859 428.804,290.192 421.5,298.5C 421.813,294.958 421.479,291.625 420.5,288.5C 426.756,279.575 434.089,271.575 442.5,264.5 Z"/></g>
<g><path style="opacity:1" fill="#3aa464" d="M 512.5,265.5 C 513.473,267.948 513.806,270.615 513.5,273.5C 499.941,280.444 487.607,289.111 476.5,299.5C 475.922,296.72 475.255,294.053 474.5,291.5C 478.639,287.532 482.973,283.699 487.5,280C 495.233,274.133 503.567,269.3 512.5,265.5 Z"/></g>
<g><path style="opacity:1" fill="#36a6b3" d="M 655.5,275.5 C 664.308,279.07 672.642,283.403 680.5,288.5C 680.81,291.713 680.477,294.713 679.5,297.5C 671.258,292.88 662.925,288.547 654.5,284.5C 655.477,281.713 655.81,278.713 655.5,275.5 Z"/></g>
<g><path style="opacity:1" fill="#3aa362" d="M 395.5,254.5 C 396.477,257.287 396.81,260.287 396.5,263.5C 386.297,275.697 377.297,288.697 369.5,302.5C 369.815,298.629 369.482,294.962 368.5,291.5C 376.34,278.326 385.34,265.992 395.5,254.5 Z"/></g>
<g><path style="opacity:1" fill="#3aa45a" d="M 474.5,264.5 C 475.477,267.287 475.81,270.287 475.5,273.5C 464.544,281.789 454.544,291.122 445.5,301.5C 445.813,297.958 445.479,294.625 444.5,291.5C 453.327,281.105 463.327,272.105 474.5,264.5 Z"/></g>
<g><path style="opacity:1" fill="#3aa460" d="M 547.5,272.5 C 549.369,274.635 550.036,277.302 549.5,280.5C 535.615,285.122 522.615,291.455 510.5,299.5C 509.912,296.39 509.245,293.39 508.5,290.5C 520.518,282.594 533.518,276.594 547.5,272.5 Z"/></g>
<g><path style="opacity:1" fill="#39a487" d="M 608.5,285.5 C 608.5,288.5 608.5,291.5 608.5,294.5C 607.167,294.5 605.833,294.5 604.5,294.5C 593.011,294.034 581.678,295.034 570.5,297.5C 572.176,293.757 571.843,290.424 569.5,287.5C 582.302,284.58 595.302,283.914 608.5,285.5 Z"/></g>
<g><path style="opacity:1" fill="#38a59e" d="M 608.5,285.5 C 618.577,286.119 628.243,288.119 637.5,291.5C 638.055,295.012 637.388,298.012 635.5,300.5C 625.212,297.772 614.879,295.772 604.5,294.5C 605.833,294.5 607.167,294.5 608.5,294.5C 608.5,291.5 608.5,288.5 608.5,285.5 Z"/></g>
<g><path style="opacity:1" fill="#3aa46c" d="M 569.5,287.5 C 571.843,290.424 572.176,293.757 570.5,297.5C 558.15,299.509 546.483,303.509 535.5,309.5C 536.069,305.671 535.402,302.337 533.5,299.5C 544.681,293.328 556.681,289.328 569.5,287.5 Z"/></g>
<g><path style="opacity:1" fill="#37a6ad" d="M 637.5,291.5 C 645.313,293.083 652.646,295.75 659.5,299.5C 659.813,303.042 659.479,306.375 658.5,309.5C 650.868,306.175 643.201,303.175 635.5,300.5C 637.388,298.012 638.055,295.012 637.5,291.5 Z"/></g>
<g><path style="opacity:1" fill="#3aa454" d="M 406.5,273.5 C 407.477,276.287 407.81,279.287 407.5,282.5C 399.409,293.021 392.076,304.021 385.5,315.5C 385.813,311.958 385.479,308.625 384.5,305.5C 390.669,294.004 398.003,283.337 406.5,273.5 Z"/></g>
<g><path style="opacity:1" fill="#35a5be" d="M 680.5,288.5 C 689.562,292.695 697.562,298.362 704.5,305.5C 703.521,308.625 703.187,311.958 703.5,315.5C 695.759,309.084 687.759,303.084 679.5,297.5C 680.477,294.713 680.81,291.713 680.5,288.5 Z"/></g>
<g><path style="opacity:1" fill="#38a297" d="M 583.5,305.5 C 599.853,303.641 615.853,305.308 631.5,310.5C 632.069,314.329 631.402,317.663 629.5,320.5C 616.407,317.002 603.074,315.669 589.5,316.5C 591.607,315.532 593.941,315.198 596.5,315.5C 596.5,312.167 596.5,308.833 596.5,305.5C 592.167,305.5 587.833,305.5 583.5,305.5 Z"/></g>
<g><path style="opacity:1" fill="#36a5b9" d="M 659.5,299.5 C 667.347,302.584 674.347,306.917 680.5,312.5C 680.5,316.167 680.5,319.833 680.5,323.5C 673.159,318.83 665.825,314.164 658.5,309.5C 659.479,306.375 659.813,303.042 659.5,299.5 Z"/></g>
<g><path style="opacity:1" fill="#3aa67d" d="M 583.5,305.5 C 587.833,305.5 592.167,305.5 596.5,305.5C 596.5,308.833 596.5,312.167 596.5,315.5C 593.941,315.198 591.607,315.532 589.5,316.5C 578.833,316.967 568.5,318.967 558.5,322.5C 559.08,318.351 558.414,314.684 556.5,311.5C 565.05,307.988 574.05,305.988 583.5,305.5 Z"/></g>
<g><path style="opacity:1" fill="#3aa543" d="M 420.5,288.5 C 421.479,291.625 421.813,294.958 421.5,298.5C 411.479,312.531 402.979,327.531 396,343.5C 392.474,347.766 389.974,347.266 388.5,342C 396.26,322.293 406.927,304.46 420.5,288.5 Z"/></g>
<g><path style="opacity:1" fill="#37a6ad" d="M 631.5,310.5 C 637.828,311.58 643.828,313.58 649.5,316.5C 649.5,320.5 649.5,324.5 649.5,328.5C 642.766,325.792 636.099,323.126 629.5,320.5C 631.402,317.663 632.069,314.329 631.5,310.5 Z"/></g>
<g><path style="opacity:1" fill="#3aa545" d="M 508.5,290.5 C 509.245,293.39 509.912,296.39 510.5,299.5C 490.621,312.879 474.288,329.713 461.5,350C 456.008,350.486 454.175,347.986 456,342.5C 469.378,320.955 486.878,303.622 508.5,290.5 Z"/></g>
<g><path style="opacity:1" fill="#3aa554" d="M 533.5,299.5 C 535.402,302.337 536.069,305.671 535.5,309.5C 522.601,316.116 510.934,324.449 500.5,334.5C 500.817,330.298 500.483,326.298 499.5,322.5C 509.442,312.856 520.775,305.189 533.5,299.5 Z"/></g>
<g><path style="opacity:1" fill="#3aa445" d="M 368.5,291.5 C 369.482,294.962 369.815,298.629 369.5,302.5C 362.084,315.999 355.751,329.999 350.5,344.5C 348.926,345.631 347.259,345.798 345.5,345C 344.941,344.275 344.608,343.442 344.5,342.5C 350.648,324.541 358.648,307.541 368.5,291.5 Z"/></g>
<g><path style="opacity:1" fill="#3aa441" d="M 384.5,305.5 C 385.479,308.625 385.813,311.958 385.5,315.5C 380.738,325.36 376.238,335.36 372,345.5C 368.889,347.272 367.056,346.439 366.5,343C 370.894,329.609 376.894,317.109 384.5,305.5 Z"/></g>
<g><path style="opacity:1" fill="#3aa545" d="M 474.5,291.5 C 475.255,294.053 475.922,296.72 476.5,299.5C 461.883,312.784 449.883,328.117 440.5,345.5C 434.56,349.071 432.394,347.404 434,340.5C 441.222,328.612 449.222,317.279 458,306.5C 463.091,300.902 468.591,295.902 474.5,291.5 Z"/></g>
<g><path style="opacity:1" fill="#36a4bc" d="M 331.5,320.5 C 332.601,319.402 333.934,319.235 335.5,320C 336.057,324.174 335.057,328.007 332.5,331.5C 332.815,327.629 332.482,323.962 331.5,320.5 Z"/></g>
<g><path style="opacity:1" fill="#fefefe" d="M 270.5,320.5 C 276.167,320.5 281.833,320.5 287.5,320.5C 287.667,372.168 287.5,423.834 287,475.5C 285.167,481.333 281.333,485.167 275.5,487C 269.509,487.499 263.509,487.666 257.5,487.5C 257.333,435.832 257.5,384.166 258,332.5C 260.769,326.895 264.936,322.895 270.5,320.5 Z"/></g>
<g><path style="opacity:1" fill="#35a7c7" d="M 680.5,312.5 C 689.69,318.016 697.69,325.016 704.5,333.5C 704.819,338.363 704.486,343.03 703.5,347.5C 696.507,338.841 688.84,330.841 680.5,323.5C 680.5,319.833 680.5,316.167 680.5,312.5 Z"/></g>
<g><path style="opacity:1" fill="#3aa442" d="M 444.5,291.5 C 445.479,294.625 445.813,297.958 445.5,301.5C 435.314,314.207 426.481,327.874 419,342.5C 415.474,346.766 412.974,346.266 411.5,341C 419.648,322.52 430.648,306.02 444.5,291.5 Z"/></g>
<g><path style="opacity:1" fill="#3aa560" d="M 556.5,311.5 C 558.414,314.684 559.08,318.351 558.5,322.5C 547.414,326.542 537.08,331.875 527.5,338.5C 527.817,334.298 527.483,330.298 526.5,326.5C 535.624,319.938 545.624,314.938 556.5,311.5 Z"/></g>
<g><path style="opacity:1" fill="#36a6b9" d="M 649.5,316.5 C 655.997,319.914 662.33,323.581 668.5,327.5C 668.818,332.032 668.485,336.366 667.5,340.5C 661.463,336.487 655.463,332.487 649.5,328.5C 649.5,324.5 649.5,320.5 649.5,316.5 Z"/></g>
<g><path style="opacity:1" fill="#39a88c" d="M 578.5,326.5 C 580.265,325.539 582.265,325.205 584.5,325.5C 590.5,325.5 596.5,325.5 602.5,325.5C 602.5,329.167 602.5,332.833 602.5,336.5C 597.968,336.182 593.634,336.515 589.5,337.5C 587.167,337.5 584.833,337.5 582.5,337.5C 582.5,333.833 582.5,330.167 582.5,326.5C 581.167,326.5 579.833,326.5 578.5,326.5 Z"/></g>
<g><path style="opacity:1" fill="#39a486" d="M 331.5,320.5 C 332.482,323.962 332.815,327.629 332.5,331.5C 331.404,336.132 329.737,340.466 327.5,344.5C 327.815,340.629 327.482,336.962 326.5,333.5C 327.579,328.927 329.246,324.593 331.5,320.5 Z"/></g>
<g><path style="opacity:1" fill="#38a49d" d="M 584.5,325.5 C 597.878,323.839 611.211,324.839 624.5,328.5C 625.089,332.971 624.423,336.971 622.5,340.5C 611.689,337.84 600.689,336.84 589.5,337.5C 593.634,336.515 597.968,336.182 602.5,336.5C 602.5,332.833 602.5,329.167 602.5,325.5C 596.5,325.5 590.5,325.5 584.5,325.5 Z"/></g>
<g><path style="opacity:1" fill="#3aa641" d="M 499.5,322.5 C 500.483,326.298 500.817,330.298 500.5,334.5C 491.897,343.94 484.23,354.106 477.5,365C 472.932,366.65 470.266,365.15 469.5,360.5C 476.855,345.804 486.855,333.138 499.5,322.5 Z"/></g>
<g><path style="opacity:1" fill="#3aa672" d="M 578.5,326.5 C 579.833,326.5 581.167,326.5 582.5,326.5C 582.5,330.167 582.5,333.833 582.5,337.5C 573.748,339.526 565.082,342.192 556.5,345.5C 556.817,341.298 556.483,337.298 555.5,333.5C 562.654,329.784 570.32,327.451 578.5,326.5 Z"/></g>
<g><path style="opacity:1" fill="#3aa550" d="M 526.5,326.5 C 527.483,330.298 527.817,334.298 527.5,338.5C 522.193,343.472 516.86,348.472 511.5,353.5C 511.819,348.637 511.486,343.97 510.5,339.5C 515.229,334.439 520.562,330.106 526.5,326.5 Z"/></g>
<g><path style="opacity:1" fill="#fcfcfd" d="M 171.5,333.5 C 178.2,333.17 184.866,333.503 191.5,334.5C 210.304,384.911 229.304,435.244 248.5,485.5C 241.858,486.664 235.192,486.831 228.5,486C 221.091,483.592 215.924,478.758 213,471.5C 209.296,461.263 205.463,451.097 201.5,441C 184.49,440.167 167.49,440.334 150.5,441.5C 144.762,456.384 139.428,471.384 134.5,486.5C 124.161,486.666 113.828,486.5 103.5,486C 121.192,439.928 138.692,393.761 156,347.5C 159.492,340.834 164.659,336.168 171.5,333.5 Z"/></g>
<g><path style="opacity:1" fill="#36a7b3" d="M 624.5,328.5 C 632.905,330.857 640.905,334.191 648.5,338.5C 649.097,343.294 648.43,347.627 646.5,351.5C 638.788,347.048 630.788,343.381 622.5,340.5C 624.423,336.971 625.089,332.971 624.5,328.5 Z"/></g>
<g><path style="opacity:1" fill="#35a6c6" d="M 668.5,327.5 C 675.963,332.573 682.629,338.573 688.5,345.5C 688.821,350.695 688.487,355.695 687.5,360.5C 681.167,353.5 674.5,346.833 667.5,340.5C 668.485,336.366 668.818,332.032 668.5,327.5 Z"/></g>
<g><path style="opacity:1" fill="#35a6d1" d="M 704.5,305.5 C 721.312,319.298 734.312,335.965 743.5,355.5C 742.511,360.975 742.178,366.642 742.5,372.5C 733.079,351.074 720.079,332.074 703.5,315.5C 703.187,311.958 703.521,308.625 704.5,305.5 Z"/></g>
<g><path style="opacity:1" fill="#3aa254" d="M 326.5,333.5 C 327.482,336.962 327.815,340.629 327.5,344.5C 324.996,346.031 323.663,345.197 323.5,342C 324.012,338.963 325.012,336.129 326.5,333.5 Z"/></g>
<g><path style="opacity:1" fill="#3aa54e" d="M 780.5,339.5 C 780.821,344.695 780.487,349.695 779.5,354.5C 777.938,350.655 776.271,346.821 774.5,343C 775.429,340.091 777.429,338.925 780.5,339.5 Z"/></g>
<g><path style="opacity:1" fill="#3aa551" d="M 758.5,341.5 C 758.819,346.363 758.486,351.03 757.5,355.5C 755.284,351.735 753.618,347.735 752.5,343.5C 752.427,339.927 754.094,338.76 757.5,340C 758.056,340.383 758.389,340.883 758.5,341.5 Z"/></g>
<g><path style="opacity:1" fill="#3aa65a" d="M 804.5,341.5 C 804.823,348.022 804.49,354.355 803.5,360.5C 801.646,354.623 799.646,348.79 797.5,343C 798.138,339.707 800.138,338.707 803.5,340C 804.056,340.383 804.389,340.883 804.5,341.5 Z"/></g>
<g><path style="opacity:1" fill="#3aa25d" d="M 847.5,341.5 C 847.822,347.358 847.489,353.025 846.5,358.5C 845.34,353.186 843.673,348.019 841.5,343C 842.933,339.234 844.933,338.734 847.5,341.5 Z"/></g>
<g><path style="opacity:1" fill="#3aa363" d="M 868.5,341.5 C 868.819,346.363 868.486,351.03 867.5,355.5C 866.608,351.655 865.608,347.821 864.5,344C 864.663,340.803 865.996,339.969 868.5,341.5 Z"/></g>
<g><path style="opacity:1" fill="#3aa55d" d="M 826.5,342.5 C 826.822,348.358 826.489,354.025 825.5,359.5C 823.936,354.307 822.269,349.14 820.5,344C 821.627,338.917 823.627,338.417 826.5,342.5 Z"/></g>
<g><path style="opacity:1" fill="#3ba55a" d="M 555.5,333.5 C 556.483,337.298 556.817,341.298 556.5,345.5C 546.647,350.935 537.647,357.602 529.5,365.5C 529.821,360.305 529.487,355.305 528.5,350.5C 536.161,342.865 545.161,337.198 555.5,333.5 Z"/></g>
<g><path style="opacity:1" fill="#35a5bf" d="M 648.5,338.5 C 654.071,341.446 659.071,345.112 663.5,349.5C 663.821,354.695 663.487,359.695 662.5,364.5C 657.494,359.677 652.161,355.344 646.5,351.5C 648.43,347.627 649.097,343.294 648.5,338.5 Z"/></g>
<g><path style="opacity:1" fill="#39a086" d="M 868.5,341.5 C 870.213,342.635 870.88,344.302 870.5,346.5C 870.821,352.026 870.488,357.36 869.5,362.5C 868.833,360.167 868.167,357.833 867.5,355.5C 868.486,351.03 868.819,346.363 868.5,341.5 Z"/></g>
<g><path style="opacity:1" fill="#38a39d" d="M 585.5,345.5 C 596.494,343.934 607.494,344.601 618.5,347.5C 618.5,351.833 618.5,356.167 618.5,360.5C 617.5,360.5 616.5,360.5 615.5,360.5C 607.269,358.819 598.936,358.153 590.5,358.5C 593.287,357.523 596.287,357.19 599.5,357.5C 599.5,353.5 599.5,349.5 599.5,345.5C 594.833,345.5 590.167,345.5 585.5,345.5 Z"/></g>
<g><path style="opacity:1" fill="#3aa56b" d="M 780.5,339.5 C 782.771,341.612 784.104,344.279 784.5,347.5C 784.823,353.69 784.49,359.69 783.5,365.5C 782.442,361.721 781.109,358.054 779.5,354.5C 780.487,349.695 780.821,344.695 780.5,339.5 Z"/></g>
<g><path style="opacity:1" fill="#3ca743" d="M 510.5,339.5 C 511.486,343.97 511.819,348.637 511.5,353.5C 506.341,359.817 501.674,366.484 497.5,373.5C 493.524,372.705 489.524,372.038 485.5,371.5C 491.913,359.345 500.246,348.678 510.5,339.5 Z"/></g>
<g><path style="opacity:1" fill="#3aa881" d="M 585.5,345.5 C 590.167,345.5 594.833,345.5 599.5,345.5C 599.5,349.5 599.5,353.5 599.5,357.5C 596.287,357.19 593.287,357.523 590.5,358.5C 584.392,358.86 578.392,359.86 572.5,361.5C 572.5,357.167 572.5,352.833 572.5,348.5C 576.615,347.057 580.948,346.057 585.5,345.5 Z"/></g>
<g><path style="opacity:1" fill="#3aa46b" d="M 758.5,341.5 C 760.588,343.336 761.921,345.669 762.5,348.5C 762.821,354.026 762.488,359.36 761.5,364.5C 760.167,361.5 758.833,358.5 757.5,355.5C 758.486,351.03 758.819,346.363 758.5,341.5 Z"/></g>
<g><path style="opacity:1" fill="#39a390" d="M 847.5,341.5 C 850.473,347.085 852.473,353.085 853.5,359.5C 853.5,366.833 853.5,374.167 853.5,381.5C 852.883,381.389 852.383,381.056 852,380.5C 850.158,373.132 848.325,365.799 846.5,358.5C 847.489,353.025 847.822,347.358 847.5,341.5 Z"/></g>
<g><path style="opacity:1" fill="#379fa9" d="M 870.5,346.5 C 873.242,352.136 874.742,358.136 875,364.5C 872.189,366.18 870.356,365.513 869.5,362.5C 870.488,357.36 870.821,352.026 870.5,346.5 Z"/></g>
<g><path style="opacity:1" fill="#3aa482" d="M 826.5,342.5 C 828.405,346.216 829.739,350.216 830.5,354.5C 830.824,361.354 830.491,368.021 829.5,374.5C 828.014,369.555 826.68,364.555 825.5,359.5C 826.489,354.025 826.822,348.358 826.5,342.5 Z"/></g>
<g><path style="opacity:1" fill="#35a5da" d="M 743.5,355.5 C 761.533,390.244 766.366,426.911 758,465.5C 755.822,473.213 753.488,480.88 751,488.5C 748.333,491.167 745.667,491.167 743,488.5C 745.804,476.943 748.471,465.276 751,453.5C 755.149,425.703 752.316,398.703 742.5,372.5C 742.178,366.642 742.511,360.975 743.5,355.5 Z"/></g>
<g><path style="opacity:1" fill="#3ba648" d="M 528.5,350.5 C 529.487,355.305 529.821,360.305 529.5,365.5C 524.42,371.238 519.754,377.238 515.5,383.5C 512.129,381.154 508.796,378.821 505.5,376.5C 509.115,371.045 512.948,365.712 517,360.5C 520.429,356.561 524.263,353.228 528.5,350.5 Z"/></g>
<g><path style="opacity:1" fill="#3aa666" d="M 572.5,348.5 C 572.5,352.833 572.5,357.167 572.5,361.5C 565.203,364.481 558.536,368.481 552.5,373.5C 551.833,373.5 551.167,373.5 550.5,373.5C 550.819,368.637 550.486,363.97 549.5,359.5C 556.194,353.988 563.861,350.321 572.5,348.5 Z"/></g>
<g><path style="opacity:1" fill="#36a7b6" d="M 618.5,347.5 C 627.817,350.158 636.484,354.158 644.5,359.5C 644.821,365.026 644.488,370.36 643.5,375.5C 635.064,368.709 625.731,363.709 615.5,360.5C 616.5,360.5 617.5,360.5 618.5,360.5C 618.5,356.167 618.5,351.833 618.5,347.5 Z"/></g>
<g><path style="opacity:1" fill="#39a486" d="M 804.5,341.5 C 807.071,346.537 809.071,351.871 810.5,357.5C 810.826,365.684 810.492,373.684 809.5,381.5C 808.243,374.297 806.243,367.297 803.5,360.5C 804.49,354.355 804.823,348.022 804.5,341.5 Z"/></g>
<g><path style="opacity:1" fill="#39a690" d="M 762.5,348.5 C 765.345,353.531 767.678,358.864 769.5,364.5C 769.825,372.352 769.492,380.018 768.5,387.5C 766.77,379.643 764.436,371.976 761.5,364.5C 762.488,359.36 762.821,354.026 762.5,348.5 Z"/></g>
<g><path style="opacity:1" fill="#37a2a4" d="M 830.5,354.5 C 833.146,359.782 834.813,365.448 835.5,371.5C 835.827,380.682 835.493,389.682 834.5,398.5C 832.833,390.5 831.167,382.5 829.5,374.5C 830.491,368.021 830.824,361.354 830.5,354.5 Z"/></g>
<g><path style="opacity:1" fill="#39a594" d="M 784.5,347.5 C 787.907,352.997 790.241,358.997 791.5,365.5C 791.826,374.017 791.493,382.35 790.5,390.5C 788.942,381.934 786.609,373.601 783.5,365.5C 784.49,359.69 784.823,353.69 784.5,347.5 Z"/></g>
<g><path style="opacity:1" fill="#3ba88c" d="M 582.5,366.5 C 583.919,365.549 585.585,365.216 587.5,365.5C 592.833,365.5 598.167,365.5 603.5,365.5C 603.5,367.167 603.5,368.833 603.5,370.5C 601.585,370.216 599.919,370.549 598.5,371.5C 593.879,371.406 589.546,372.406 585.5,374.5C 585.5,371.833 585.5,369.167 585.5,366.5C 584.5,366.5 583.5,366.5 582.5,366.5 Z"/></g>
<g><path style="opacity:1" fill="#35a5d8" d="M 704.5,333.5 C 743.534,379.538 752.034,430.871 730,487.5C 727.563,493.112 724.23,493.778 720,489.5C 719.333,487.833 719.333,486.167 720,484.5C 739.649,435.624 734.149,389.957 703.5,347.5C 704.486,343.03 704.819,338.363 704.5,333.5 Z"/></g>
<g><path style="opacity:1" fill="#36a0ba" d="M 853.5,359.5 C 856.829,366.65 858.163,374.15 857.5,382C 855.934,382.765 854.601,382.598 853.5,381.5C 853.5,374.167 853.5,366.833 853.5,359.5 Z"/></g>
<g><path style="opacity:1" fill="#3da752" d="M 549.5,359.5 C 550.486,363.97 550.819,368.637 550.5,373.5C 546.5,373.5 542.5,373.5 538.5,373.5C 538.5,378.5 538.5,383.5 538.5,388.5C 536.833,390.5 535.167,392.5 533.5,394.5C 533.824,387.646 533.491,380.979 532.5,374.5C 533.906,371.586 535.906,369.086 538.5,367C 541.792,363.862 545.458,361.362 549.5,359.5 Z"/></g>
<g><path style="opacity:1" fill="#41a7ad" d="M 587.5,365.5 C 603.601,363.272 618.601,366.605 632.5,375.5C 632.5,377.167 632.5,378.833 632.5,380.5C 622.194,373.846 610.861,370.846 598.5,371.5C 599.919,370.549 601.585,370.216 603.5,370.5C 603.5,368.833 603.5,367.167 603.5,365.5C 598.167,365.5 592.833,365.5 587.5,365.5 Z"/></g>
<g><path style="opacity:1" fill="#37a4a8" d="M 810.5,357.5 C 813.353,363.073 815.02,369.073 815.5,375.5C 815.829,388.677 815.495,401.677 814.5,414.5C 813.738,403.357 812.071,392.357 809.5,381.5C 810.492,373.684 810.826,365.684 810.5,357.5 Z"/></g>
<g><path style="opacity:1" fill="#45ab77" d="M 582.5,366.5 C 583.5,366.5 584.5,366.5 585.5,366.5C 585.5,369.167 585.5,371.833 585.5,374.5C 578.095,377.389 571.928,382.056 567,388.5C 567.118,383.067 566.285,378.067 564.5,373.5C 569.823,369.611 575.823,367.278 582.5,366.5 Z"/></g>
<g><path style="opacity:1" fill="#fcfcfd" d="M 348.5,371.5 C 379.131,367.561 401.298,379.228 415,406.5C 418.283,415.567 419.283,424.9 418,434.5C 416.039,437.135 413.539,438.969 410.5,440C 383.502,440.5 356.502,440.667 329.5,440.5C 334,455.928 344.333,463.928 360.5,464.5C 372.98,464.26 382.98,459.26 390.5,449.5C 398.167,454 405.833,458.5 413.5,463C 393.081,488.031 367.414,495.365 336.5,485C 309.384,471.609 297.884,449.776 302,419.5C 307.864,394.136 323.364,378.136 348.5,371.5 Z"/></g>
<g><path style="opacity:1" fill="#fcfcfc" d="M 485.5,371.5 C 489.524,372.038 493.524,372.705 497.5,373.5C 500.162,374.499 502.828,375.499 505.5,376.5C 508.796,378.821 512.129,381.154 515.5,383.5C 517.167,385.833 519.167,387.833 521.5,389.5C 522.74,390.973 523.74,392.64 524.5,394.5C 521.926,396.024 519.259,397.358 516.5,398.5C 510.782,400.63 505.115,402.964 499.5,405.5C 490.202,393.904 478.535,390.738 464.5,396C 457.606,401.841 457.939,407.175 465.5,412C 478.1,415.587 490.766,418.92 503.5,422C 526.75,431.743 532.583,447.909 521,470.5C 509.573,483.455 495.073,489.789 477.5,489.5C 454.563,490.536 437.23,481.369 425.5,462C 432.507,458.167 439.84,454.834 447.5,452C 449.447,451.009 451.447,450.675 453.5,451C 457.243,458.541 463.243,463.208 471.5,465C 478.833,466.14 485.833,465.14 492.5,462C 497.765,456.593 497.765,451.26 492.5,446C 480.625,442.623 468.625,439.623 456.5,437C 432.065,428.964 424.898,413.131 435,389.5C 448.285,373.903 465.119,367.903 485.5,371.5 Z"/></g>
<g><path style="opacity:1" fill="#fdfdfe" d="M 598.5,371.5 C 610.861,370.846 622.194,373.846 632.5,380.5C 649.06,393.288 657.393,410.288 657.5,431.5C 656.523,449.113 649.857,464.113 637.5,476.5C 626.119,485.405 613.119,489.738 598.5,489.5C 586.279,488.723 576.279,483.723 568.5,474.5C 568.44,473.957 568.107,473.624 567.5,473.5C 566.501,487.818 566.167,502.151 566.5,516.5C 565.102,525.066 560.102,530.232 551.5,532C 547.179,532.499 542.846,532.666 538.5,532.5C 538.5,498.167 538.5,463.833 538.5,429.5C 538.5,419.833 538.5,410.167 538.5,400.5C 538.5,396.5 538.5,392.5 538.5,388.5C 538.5,383.5 538.5,378.5 538.5,373.5C 542.5,373.5 546.5,373.5 550.5,373.5C 551.167,373.5 551.833,373.5 552.5,373.5C 556.5,373.5 560.5,373.5 564.5,373.5C 566.285,378.067 567.118,383.067 567,388.5C 571.928,382.056 578.095,377.389 585.5,374.5C 589.546,372.406 593.879,371.406 598.5,371.5 Z"/></g>
<g><path style="opacity:1" fill="#37a5aa" d="M 769.5,364.5 C 771.405,368.216 772.739,372.216 773.5,376.5C 773.828,387.346 773.494,398.013 772.5,408.5C 771.916,401.326 770.583,394.326 768.5,387.5C 769.492,380.018 769.825,372.352 769.5,364.5 Z"/></g>
<g><path style="opacity:1" fill="#2a2756" d="M 175.5,372.5 C 177.136,373.749 178.303,375.416 179,377.5C 183.813,390.774 188.313,404.108 192.5,417.5C 181.48,417.832 170.48,417.499 159.5,416.5C 165.037,401.886 170.371,387.22 175.5,372.5 Z"/></g>
<g><path style="opacity:1" fill="#35a6d8" d="M 688.5,345.5 C 713.924,373.468 724.758,406.468 721,444.5C 718.655,460.209 713.989,475.209 707,489.5C 704.503,491.478 701.669,491.978 698.5,491C 696.718,488.757 696.218,486.257 697,483.5C 717.565,440.636 714.398,399.636 687.5,360.5C 688.487,355.695 688.821,350.695 688.5,345.5 Z"/></g>
<g><path style="opacity:1" fill="#35a0be" d="M 835.5,371.5 C 838.709,380.383 840.043,389.549 839.5,399C 837.613,399.78 835.946,399.613 834.5,398.5C 835.493,389.682 835.827,380.682 835.5,371.5 Z"/></g>
<g><path style="opacity:1" fill="#3ca743" d="M 532.5,374.5 C 533.491,380.979 533.824,387.646 533.5,394.5C 531.399,400.538 528.399,406.038 524.5,411C 520.74,412.176 517.907,411.01 516,407.5C 515.505,404.469 515.671,401.469 516.5,398.5C 519.259,397.358 521.926,396.024 524.5,394.5C 523.74,392.64 522.74,390.973 521.5,389.5C 524.04,383.634 527.707,378.634 532.5,374.5 Z"/></g>
<g><path style="opacity:1" fill="#35a7cf" d="M 644.5,359.5 C 656.047,367.707 665.047,378.041 671.5,390.5C 671.5,416.833 671.5,443.167 671.5,469.5C 668.121,477.744 663.121,484.91 656.5,491C 648.317,493.99 644.817,491.156 646,482.5C 673.016,452.584 675.682,420.584 654,386.5C 650.936,382.333 647.436,378.667 643.5,375.5C 644.488,370.36 644.821,365.026 644.5,359.5 Z"/></g>
<g><path style="opacity:1" fill="#35a3b9" d="M 773.5,376.5 C 775.258,379.854 776.258,383.521 776.5,387.5C 777.157,411.191 776.49,434.524 774.5,457.5C 773.883,457.389 773.383,457.056 773,456.5C 773.744,440.488 773.577,424.488 772.5,408.5C 773.494,398.013 773.828,387.346 773.5,376.5 Z"/></g>
<g><path style="opacity:1" fill="#35a6d7" d="M 663.5,349.5 C 676.433,359.668 686.266,372.335 693,387.5C 706.525,422.144 703.859,455.477 685,487.5C 680.819,492.769 676.819,492.769 673,487.5C 672.333,485.833 672.333,484.167 673,482.5C 693.931,449.522 694.931,415.855 676,381.5C 671.973,375.439 667.473,369.772 662.5,364.5C 663.487,359.695 663.821,354.695 663.5,349.5 Z"/></g>
<g><path style="opacity:1" fill="#36a6bb" d="M 791.5,365.5 C 795.019,373.742 797.352,382.408 798.5,391.5C 798.5,405.5 798.5,419.5 798.5,433.5C 797.178,433.67 796.011,433.337 795,432.5C 794.865,418.332 793.365,404.332 790.5,390.5C 791.493,382.35 791.826,374.017 791.5,365.5 Z"/></g>
<g><path style="opacity:1" fill="#35a3c4" d="M 815.5,375.5 C 819.089,387.118 821.423,399.118 822.5,411.5C 822.167,415.989 819.833,417.489 815.5,416C 814.944,415.617 814.611,415.117 814.5,414.5C 815.495,401.677 815.829,388.677 815.5,375.5 Z"/></g>
<g><path style="opacity:1" fill="#35a6da" d="M 671.5,390.5 C 680.877,406.899 684.044,424.566 681,443.5C 679.089,452.742 675.923,461.409 671.5,469.5C 671.5,443.167 671.5,416.833 671.5,390.5 Z"/></g>
<g><path style="opacity:1" fill="#292655" d="M 354.5,395.5 C 372.028,393.752 384.028,400.919 390.5,417C 370.503,417.5 350.503,417.667 330.5,417.5C 334.37,405.629 342.37,398.295 354.5,395.5 Z"/></g>
<g><path style="opacity:1" fill="#359bc6" d="M 798.5,391.5 C 801.667,404.527 802.833,417.86 802,431.5C 801.184,432.823 800.017,433.489 798.5,433.5C 798.5,419.5 798.5,405.5 798.5,391.5 Z"/></g>
<g><path style="opacity:1" fill="#2a2756" d="M 588.5,398.5 C 611.664,396.393 624.997,406.726 628.5,429.5C 625.607,453.125 612.274,463.625 588.5,461C 571.75,454.687 564.25,442.52 566,424.5C 568.645,411.493 576.145,402.827 588.5,398.5 Z"/></g>
<g><path style="opacity:1" fill="#35a4cc" d="M 776.5,387.5 C 781.714,409.792 782.88,432.458 780,455.5C 778.59,458.136 776.757,458.803 774.5,457.5C 776.49,434.524 777.157,411.191 776.5,387.5 Z"/></g>
<g><path style="opacity:1" fill="#3da7d5" d="M 632.5,375.5 C 660.654,396.816 668.488,424.149 656,457.5C 651.806,466.85 645.639,474.517 637.5,480.5C 637.5,479.167 637.5,477.833 637.5,476.5C 649.857,464.113 656.523,449.113 657.5,431.5C 657.393,410.288 649.06,393.288 632.5,380.5C 632.5,378.833 632.5,377.167 632.5,375.5 Z"/></g>
<g><path style="opacity:1" fill="#3fa640" d="M 538.5,400.5 C 538.5,410.167 538.5,419.833 538.5,429.5C 533.857,428.682 531.524,425.849 531.5,421C 532.568,413.627 534.901,406.794 538.5,400.5 Z"/></g>
<g><path style="opacity:1" fill="#3aa57c" d="M 597.5,406.5 C 597.5,410.833 597.5,415.167 597.5,419.5C 593.352,419.574 590.019,421.241 587.5,424.5C 588.108,419.056 587.442,414.056 585.5,409.5C 588.968,406.886 592.968,405.886 597.5,406.5 Z"/></g>
<g><path style="opacity:1" fill="#37a5b0" d="M 597.5,406.5 C 601.942,406.732 605.942,408.065 609.5,410.5C 609.828,422.678 609.495,434.678 608.5,446.5C 604.181,444.041 599.515,443.041 594.5,443.5C 595.9,442.9 596.9,441.9 597.5,440.5C 605.623,437.917 608.123,432.584 605,424.5C 603.14,421.796 600.64,420.129 597.5,419.5C 597.5,415.167 597.5,410.833 597.5,406.5 Z"/></g>
<g><path style="opacity:1" fill="#3aa75f" d="M 585.5,409.5 C 587.442,414.056 588.108,419.056 587.5,424.5C 586.597,427.391 586.264,430.391 586.5,433.5C 586.5,437.5 586.5,441.5 586.5,445.5C 585.571,446.315 584.571,447.148 583.5,448C 582.251,448.74 581.251,448.573 580.5,447.5C 581.495,436.012 581.828,424.345 581.5,412.5C 582.262,410.738 583.596,409.738 585.5,409.5 Z"/></g>
<g><path style="opacity:1" fill="#35a7cd" d="M 609.5,410.5 C 622.983,421.892 623.983,434.392 612.5,448C 610.648,448.773 609.314,448.273 608.5,446.5C 609.495,434.678 609.828,422.678 609.5,410.5 Z"/></g>
<g><path style="opacity:1" fill="#3aa546" d="M 581.5,412.5 C 581.828,424.345 581.495,436.012 580.5,447.5C 572.597,439.483 570.763,430.149 575,419.5C 576.666,416.669 578.832,414.336 581.5,412.5 Z"/></g>
<g><path style="opacity:1" fill="#272654" d="M 597.5,419.5 C 600.64,420.129 603.14,421.796 605,424.5C 608.123,432.584 605.623,437.917 597.5,440.5C 592.28,440.401 588.613,438.068 586.5,433.5C 586.264,430.391 586.597,427.391 587.5,424.5C 590.019,421.241 593.352,419.574 597.5,419.5 Z"/></g>
<g><path style="opacity:1" fill="#3aa376" d="M 586.5,433.5 C 588.613,438.068 592.28,440.401 597.5,440.5C 596.9,441.9 595.9,442.9 594.5,443.5C 591.673,443.584 589.006,444.25 586.5,445.5C 586.5,441.5 586.5,437.5 586.5,433.5 Z"/></g>
<g><path style="opacity:1" fill="#adacbe" d="M 568.5,474.5 C 567.833,488.5 567.167,502.5 566.5,516.5C 566.167,502.151 566.501,487.818 567.5,473.5C 568.107,473.624 568.44,473.957 568.5,474.5 Z"/></g>
<g><path style="opacity:1" fill="#3da8a8" d="M 637.5,476.5 C 637.5,477.833 637.5,479.167 637.5,480.5C 627.591,489.451 615.924,493.951 602.5,494C 600.616,492.951 599.282,491.451 598.5,489.5C 613.119,489.738 626.119,485.405 637.5,476.5 Z"/></g>
<g><path style="opacity:1" fill="#9998ae" d="M 172.5,515.5 C 175.625,514.521 178.958,514.187 182.5,514.5C 182.5,513.5 182.5,512.5 182.5,511.5C 177.833,511.5 173.167,511.5 168.5,511.5C 168.5,518.833 168.5,526.167 168.5,533.5C 167.508,526.018 167.175,518.352 167.5,510.5C 172.833,510.5 178.167,510.5 183.5,510.5C 183.5,512.167 183.5,513.833 183.5,515.5C 179.833,515.5 176.167,515.5 172.5,515.5 Z"/></g>
<g><path style="opacity:1" fill="#9694ab" d="M 257.5,515.5 C 260.625,514.521 263.958,514.187 267.5,514.5C 267.5,513.5 267.5,512.5 267.5,511.5C 262.833,511.5 258.167,511.5 253.5,511.5C 253.5,518.833 253.5,526.167 253.5,533.5C 252.508,526.018 252.175,518.352 252.5,510.5C 257.833,510.5 263.167,510.5 268.5,510.5C 268.5,512.167 268.5,513.833 268.5,515.5C 264.833,515.5 261.167,515.5 257.5,515.5 Z"/></g>
<g><path style="opacity:1" fill="#fefffe" d="M 272.5,510.5 C 273.833,510.5 275.167,510.5 276.5,510.5C 276.5,518.5 276.5,526.5 276.5,534.5C 275.167,534.5 273.833,534.5 272.5,534.5C 272.5,526.5 272.5,518.5 272.5,510.5 Z"/></g>
<g><path style="opacity:1" fill="#fefffe" d="M 373.5,510.5 C 374.833,510.5 376.167,510.5 377.5,510.5C 377.5,518.5 377.5,526.5 377.5,534.5C 376.167,534.5 374.833,534.5 373.5,534.5C 373.5,526.5 373.5,518.5 373.5,510.5 Z"/></g>
<g><path style="opacity:1" fill="#fefffe" d="M 459.5,510.5 C 460.833,510.5 462.167,510.5 463.5,510.5C 463.5,518.5 463.5,526.5 463.5,534.5C 462.167,534.5 460.833,534.5 459.5,534.5C 459.5,526.5 459.5,518.5 459.5,510.5 Z"/></g>
<g><path style="opacity:1" fill="#f2f2f5" d="M 466.5,510.5 C 468.167,510.5 469.833,510.5 471.5,510.5C 472.827,516.314 474.66,521.981 477,527.5C 478.735,522.129 480.568,516.796 482.5,511.5C 484.074,510.369 485.741,510.202 487.5,511C 484.531,518.74 481.864,526.574 479.5,534.5C 477.712,534.785 476.045,534.452 474.5,533.5C 471.54,525.919 468.874,518.252 466.5,510.5 Z"/></g>
<g><path style="opacity:1" fill="#f3f3f5" d="M 112.5,510.5 C 114.144,510.286 115.644,510.62 117,511.5C 119.808,518.757 122.308,526.09 124.5,533.5C 121.489,531.617 118.156,530.284 114.5,529.5C 110.844,530.284 107.511,531.617 104.5,533.5C 106.764,525.707 109.431,518.041 112.5,510.5 Z"/></g>
<g><path style="opacity:1" fill="#efeef2" d="M 132.5,510.5 C 136.981,509.88 140.648,511.213 143.5,514.5C 142.855,515.646 142.022,516.646 141,517.5C 137.658,513.68 134.491,513.68 131.5,517.5C 135.337,519.089 139.17,520.756 143,522.5C 145.477,526.78 144.644,530.28 140.5,533C 137.167,533.667 133.833,533.667 130.5,533C 125.844,531.249 125.511,529.082 129.5,526.5C 131.933,529.242 134.933,530.075 138.5,529C 139.833,527.667 139.833,526.333 138.5,525C 134.549,524.464 131.049,522.964 128,520.5C 126.571,515.783 128.071,512.45 132.5,510.5 Z"/></g>
<g><path style="opacity:1" fill="#ededf1" d="M 152.5,510.5 C 156.981,509.88 160.648,511.213 163.5,514.5C 162.855,515.646 162.022,516.646 161,517.5C 158.033,514.009 155.2,513.842 152.5,517C 152.645,517.772 152.978,518.439 153.5,519C 156.903,519.578 160.07,520.745 163,522.5C 165.462,526.869 164.629,530.369 160.5,533C 157.167,533.667 153.833,533.667 150.5,533C 145.844,531.249 145.511,529.082 149.5,526.5C 151.933,529.242 154.933,530.075 158.5,529C 159.833,527.667 159.833,526.333 158.5,525C 154.549,524.464 151.049,522.964 148,520.5C 146.571,515.783 148.071,512.45 152.5,510.5 Z"/></g>
<g><path style="opacity:1" fill="#f8f8f9" d="M 172.5,515.5 C 172.5,517.167 172.5,518.833 172.5,520.5C 176.167,520.5 179.833,520.5 183.5,520.5C 183.5,521.833 183.5,523.167 183.5,524.5C 179.833,524.5 176.167,524.5 172.5,524.5C 172.5,526.167 172.5,527.833 172.5,529.5C 176.167,529.5 179.833,529.5 183.5,529.5C 183.5,530.833 183.5,532.167 183.5,533.5C 178.5,533.5 173.5,533.5 168.5,533.5C 168.5,526.167 168.5,518.833 168.5,511.5C 173.167,511.5 177.833,511.5 182.5,511.5C 182.5,512.5 182.5,513.5 182.5,514.5C 178.958,514.187 175.625,514.521 172.5,515.5 Z"/></g>
<g><path style="opacity:1" fill="#f6f6f8" d="M 205.5,510.5 C 206.833,510.5 208.167,510.5 209.5,510.5C 209.5,518.167 209.5,525.833 209.5,533.5C 208.167,533.5 206.833,533.5 205.5,533.5C 205.666,528.489 205.499,523.489 205,518.5C 203.023,521.312 200.856,523.978 198.5,526.5C 196.174,524.003 194.007,521.336 192,518.5C 191.501,523.489 191.334,528.489 191.5,533.5C 190.167,533.5 188.833,533.5 187.5,533.5C 187.5,526.167 187.5,518.833 187.5,511.5C 189.199,511.34 190.866,511.506 192.5,512C 194.34,514.669 196.34,517.169 198.5,519.5C 201.209,516.792 203.542,513.792 205.5,510.5 Z"/></g>
<g><path style="opacity:1" fill="#9d9bb1" d="M 225.5,511.5 C 221.833,511.5 218.167,511.5 214.5,511.5C 214.5,518.833 214.5,526.167 214.5,533.5C 213.508,526.018 213.175,518.352 213.5,510.5C 217.702,510.183 221.702,510.517 225.5,511.5 Z"/></g>
<g><path style="opacity:1" fill="#f4f3f6" d="M 225.5,511.5 C 230.037,512.226 231.87,514.893 231,519.5C 230.167,520.333 229.333,521.167 228.5,522C 231.203,523.82 232.036,526.32 231,529.5C 230.5,531.333 229.333,532.5 227.5,533C 223.179,533.499 218.846,533.666 214.5,533.5C 214.5,526.167 214.5,518.833 214.5,511.5C 218.167,511.5 221.833,511.5 225.5,511.5 Z"/></g>
<g><path style="opacity:1" fill="#fcfcfd" d="M 240.5,529.5 C 243.833,529.5 247.167,529.5 250.5,529.5C 250.5,530.833 250.5,532.167 250.5,533.5C 245.5,533.5 240.5,533.5 235.5,533.5C 235.5,526.167 235.5,518.833 235.5,511.5C 236.833,511.5 238.167,511.5 239.5,511.5C 239.177,517.69 239.51,523.69 240.5,529.5 Z"/></g>
<g><path style="opacity:1" fill="#58557a" d="M 240.5,529.5 C 239.51,523.69 239.177,517.69 239.5,511.5C 238.167,511.5 236.833,511.5 235.5,511.5C 235.5,518.833 235.5,526.167 235.5,533.5C 234.508,526.018 234.175,518.352 234.5,510.5C 236.5,510.5 238.5,510.5 240.5,510.5C 240.5,516.833 240.5,523.167 240.5,529.5 Z"/></g>
<g><path style="opacity:1" fill="#faf9fb" d="M 257.5,515.5 C 257.5,517.167 257.5,518.833 257.5,520.5C 261.167,520.5 264.833,520.5 268.5,520.5C 268.5,521.833 268.5,523.167 268.5,524.5C 264.833,524.5 261.167,524.5 257.5,524.5C 257.5,526.167 257.5,527.833 257.5,529.5C 261.167,529.5 264.833,529.5 268.5,529.5C 268.5,530.833 268.5,532.167 268.5,533.5C 263.5,533.5 258.5,533.5 253.5,533.5C 253.5,526.167 253.5,518.833 253.5,511.5C 258.167,511.5 262.833,511.5 267.5,511.5C 267.5,512.5 267.5,513.5 267.5,514.5C 263.958,514.187 260.625,514.521 257.5,515.5 Z"/></g>
<g><path style="opacity:1" fill="#f1f1f4" d="M 287.5,510.5 C 289.288,510.215 290.955,510.548 292.5,511.5C 295.744,518.648 298.411,525.982 300.5,533.5C 297.05,534.244 295.384,532.91 295.5,529.5C 292.15,529.335 288.817,529.502 285.5,530C 284.663,531.011 284.33,532.178 284.5,533.5C 282.712,533.785 281.045,533.452 279.5,532.5C 282.744,525.352 285.411,518.018 287.5,510.5 Z"/></g>
<g><path style="opacity:1" fill="#fafafb" d="M 310.5,511.5 C 311.833,511.5 313.167,511.5 314.5,511.5C 314.177,517.69 314.51,523.69 315.5,529.5C 318.833,529.5 322.167,529.5 325.5,529.5C 325.5,530.833 325.5,532.167 325.5,533.5C 320.5,533.5 315.5,533.5 310.5,533.5C 310.5,526.167 310.5,518.833 310.5,511.5 Z"/></g>
<g><path style="opacity:1" fill="#9c9ab0" d="M 310.5,511.5 C 311.919,510.549 313.585,510.216 315.5,510.5C 315.5,516.833 315.5,523.167 315.5,529.5C 314.51,523.69 314.177,517.69 314.5,511.5C 313.167,511.5 311.833,511.5 310.5,511.5 Z"/></g>
<g><path style="opacity:1" fill="#f3f2f5" d="M 333.5,515.5 C 332.549,516.919 332.216,518.585 332.5,520.5C 336.167,520.5 339.833,520.5 343.5,520.5C 343.5,521.833 343.5,523.167 343.5,524.5C 339.833,524.5 336.167,524.5 332.5,524.5C 332.5,526.167 332.5,527.833 332.5,529.5C 336.167,529.5 339.833,529.5 343.5,529.5C 343.5,530.833 343.5,532.167 343.5,533.5C 338.5,533.5 333.5,533.5 328.5,533.5C 328.5,525.833 328.5,518.167 328.5,510.5C 333.5,510.5 338.5,510.5 343.5,510.5C 343.5,512.167 343.5,513.833 343.5,515.5C 340.167,515.5 336.833,515.5 333.5,515.5 Z"/></g>
<g><path style="opacity:1" fill="#f0eff3" d="M 354.5,510.5 C 360.006,509.378 364.34,511.044 367.5,515.5C 366.672,516.415 365.672,517.081 364.5,517.5C 357.948,512.781 353.614,514.281 351.5,522C 351.976,528.248 355.31,530.581 361.5,529C 363.032,528.3 364.032,527.134 364.5,525.5C 362.257,524.526 359.924,524.192 357.5,524.5C 357.5,523.167 357.5,521.833 357.5,520.5C 361.5,520.5 365.5,520.5 369.5,520.5C 370.025,525.948 368.025,530.115 363.5,533C 350.358,534.86 345.191,529.36 348,516.5C 350.063,514.266 352.229,512.266 354.5,510.5 Z"/></g>
<g><path style="opacity:1" fill="#ececf0" d="M 386.5,510.5 C 391.139,510.046 395.139,511.38 398.5,514.5C 397.24,515.382 396.074,516.382 395,517.5C 392.033,514.009 389.2,513.842 386.5,517C 386.645,517.772 386.978,518.439 387.5,519C 391.451,519.536 394.951,521.036 398,523.5C 399.608,530.62 396.774,533.954 389.5,533.5C 385.653,533.969 382.653,532.635 380.5,529.5C 381.347,528.155 382.513,527.155 384,526.5C 386.642,529.029 389.808,530.029 393.5,529.5C 393.714,527.856 393.38,526.356 392.5,525C 389.363,524.399 386.363,523.399 383.5,522C 380.262,517.017 381.262,513.183 386.5,510.5 Z"/></g>
<g><path style="opacity:1" fill="#fbfbfc" d="M 402.5,511.5 C 403.833,511.5 405.167,511.5 406.5,511.5C 406.5,517.5 406.5,523.5 406.5,529.5C 410.167,529.5 413.833,529.5 417.5,529.5C 417.5,530.833 417.5,532.167 417.5,533.5C 412.5,533.5 407.5,533.5 402.5,533.5C 402.5,526.167 402.5,518.833 402.5,511.5 Z"/></g>
<g><path style="opacity:1" fill="#f1f1f4" d="M 427.5,510.5 C 429.167,510.5 430.833,510.5 432.5,510.5C 434.589,518.018 437.256,525.352 440.5,532.5C 438.955,533.452 437.288,533.785 435.5,533.5C 435.67,532.178 435.337,531.011 434.5,530C 431.183,529.502 427.85,529.335 424.5,529.5C 424.616,532.91 422.95,534.244 419.5,533.5C 422.163,525.845 424.83,518.178 427.5,510.5 Z"/></g>
<g><path style="opacity:1" fill="#dedde5" d="M 439.5,510.5 C 445.167,510.5 450.833,510.5 456.5,510.5C 456.5,512.167 456.5,513.833 456.5,515.5C 454.5,515.5 452.5,515.5 450.5,515.5C 450.5,521.5 450.5,527.5 450.5,533.5C 448.833,533.5 447.167,533.5 445.5,533.5C 445.5,527.5 445.5,521.5 445.5,515.5C 443.5,515.5 441.5,515.5 439.5,515.5C 439.5,513.833 439.5,512.167 439.5,510.5 Z"/></g>
<g><path style="opacity:1" fill="#f1f0f4" d="M 494.5,510.5 C 496.288,510.215 497.955,510.548 499.5,511.5C 502.167,518.5 504.833,525.5 507.5,532.5C 505.955,533.452 504.288,533.785 502.5,533.5C 502.427,530.05 500.594,528.717 497,529.5C 493.406,528.717 491.573,530.05 491.5,533.5C 489.712,533.785 488.045,533.452 486.5,532.5C 489.371,525.22 492.037,517.886 494.5,510.5 Z"/></g>
<g><path style="opacity:1" fill="#a4a2b7" d="M 225.5,515.5 C 223.167,515.5 220.833,515.5 218.5,515.5C 218.5,516.833 218.5,518.167 218.5,519.5C 220.833,519.5 223.167,519.5 225.5,519.5C 223.052,520.473 220.385,520.806 217.5,520.5C 217.5,518.5 217.5,516.5 217.5,514.5C 220.385,514.194 223.052,514.527 225.5,515.5 Z"/></g>
<g><path style="opacity:1" fill="#2a2656" d="M 225.5,515.5 C 226.833,516.833 226.833,518.167 225.5,519.5C 223.167,519.5 220.833,519.5 218.5,519.5C 218.5,518.167 218.5,516.833 218.5,515.5C 220.833,515.5 223.167,515.5 225.5,515.5 Z"/></g>
<g><path style="opacity:1" fill="#36325f" d="M 289.5,517.5 C 291.19,519.504 292.524,521.837 293.5,524.5C 291.604,525.466 289.604,525.799 287.5,525.5C 287.963,522.779 288.629,520.112 289.5,517.5 Z"/></g>
<g><path style="opacity:1" fill="#332f5d" d="M 429.5,517.5 C 431.267,519.792 432.267,522.458 432.5,525.5C 430.473,525.662 428.473,525.495 426.5,525C 427.601,522.528 428.601,520.028 429.5,517.5 Z"/></g>
<g><path style="opacity:1" fill="#383461" d="M 496.5,517.5 C 498.201,519.731 499.534,522.231 500.5,525C 498.167,525.667 495.833,525.667 493.5,525C 494.642,522.55 495.642,520.05 496.5,517.5 Z"/></g>
<g><path style="opacity:1" fill="#34305e" d="M 113.5,517.5 C 115.555,519.234 116.888,521.567 117.5,524.5C 115.5,525.833 113.5,525.833 111.5,524.5C 112.577,522.271 113.244,519.937 113.5,517.5 Z"/></g>
<g><path style="opacity:1" fill="#646284" d="M 333.5,515.5 C 333.5,516.833 333.5,518.167 333.5,519.5C 337.042,519.187 340.375,519.521 343.5,520.5C 339.833,520.5 336.167,520.5 332.5,520.5C 332.216,518.585 332.549,516.919 333.5,515.5 Z"/></g>
<g><path style="opacity:1" fill="#282555" d="M 218.5,524.5 C 221.167,524.5 223.833,524.5 226.5,524.5C 226.714,526.144 226.38,527.644 225.5,529C 223.19,529.497 220.857,529.663 218.5,529.5C 218.5,527.833 218.5,526.167 218.5,524.5 Z"/></g>
<g><path style="opacity:1" fill="#dddce4" d="M 367.5,540.5 C 370.399,542.146 373.399,542.812 376.5,542.5C 376.167,544.167 375.167,545.167 373.5,545.5C 370.845,544.382 368.178,544.382 365.5,545.5C 365.392,543.486 366.058,541.82 367.5,540.5 Z"/></g>
<g><path style="opacity:1" fill="#757391" d="M 215.5,547.5 C 210.167,547.5 204.833,547.5 199.5,547.5C 199.5,548.833 199.5,550.167 199.5,551.5C 198.549,550.081 198.216,548.415 198.5,546.5C 204.358,546.178 210.025,546.511 215.5,547.5 Z"/></g>
<g><path style="opacity:1" fill="#737190" d="M 316.5,547.5 C 321.64,546.512 326.974,546.179 332.5,546.5C 332.784,548.415 332.451,550.081 331.5,551.5C 331.5,550.167 331.5,548.833 331.5,547.5C 326.5,547.5 321.5,547.5 316.5,547.5 Z"/></g>
<g><path style="opacity:1" fill="#f5f5f7" d="M 105.5,547.5 C 110.297,547.121 114.964,547.621 119.5,549C 126.167,555.333 126.167,561.667 119.5,568C 114.964,569.379 110.297,569.879 105.5,569.5C 105.5,562.167 105.5,554.833 105.5,547.5 Z"/></g>
<g><path style="opacity:1" fill="#eeeef1" d="M 135.5,546.5 C 148.281,547.423 152.447,553.757 148,565.5C 140.504,572.665 133.837,571.998 128,563.5C 125.66,555.525 128.16,549.858 135.5,546.5 Z"/></g>
<g><path style="opacity:1" fill="#eeeef2" d="M 160.5,547.5 C 165.833,547.5 171.167,547.5 176.5,547.5C 176.5,548.833 176.5,550.167 176.5,551.5C 172.833,551.5 169.167,551.5 165.5,551.5C 165.5,553.167 165.5,554.833 165.5,556.5C 169.167,556.5 172.833,556.5 176.5,556.5C 176.5,557.833 176.5,559.167 176.5,560.5C 172.833,560.5 169.167,560.5 165.5,560.5C 165.5,562.167 165.5,563.833 165.5,565.5C 169.167,565.5 172.833,565.5 176.5,565.5C 176.5,566.833 176.5,568.167 176.5,569.5C 171.167,569.5 165.833,569.5 160.5,569.5C 160.5,562.167 160.5,554.833 160.5,547.5 Z"/></g>
<g><path style="opacity:1" fill="#ececf0" d="M 184.5,546.5 C 189.244,546.04 193.244,547.54 196.5,551C 195.069,551.465 193.903,552.299 193,553.5C 190.033,550.009 187.2,549.842 184.5,553C 184.645,553.772 184.978,554.439 185.5,555C 188.709,556.092 191.876,557.259 195,558.5C 197.856,565.782 195.356,569.782 187.5,570.5C 183.743,570.123 180.743,568.457 178.5,565.5C 180.516,562.201 182.516,562.034 184.5,565C 186.81,565.497 189.143,565.663 191.5,565.5C 191.714,563.856 191.38,562.356 190.5,561C 186.599,560.324 183.099,558.824 180,556.5C 178.571,551.783 180.071,548.45 184.5,546.5 Z"/></g>
<g><path style="opacity:1" fill="#f9f9fa" d="M 215.5,547.5 C 215.5,548.833 215.5,550.167 215.5,551.5C 213.5,551.5 211.5,551.5 209.5,551.5C 209.5,557.5 209.5,563.5 209.5,569.5C 208.167,569.5 206.833,569.5 205.5,569.5C 205.5,563.5 205.5,557.5 205.5,551.5C 203.5,551.5 201.5,551.5 199.5,551.5C 199.5,550.167 199.5,548.833 199.5,547.5C 204.833,547.5 210.167,547.5 215.5,547.5 Z"/></g>
<g><path style="opacity:1" fill="#f3f3f5" d="M 222.5,547.5 C 224.5,547.5 226.5,547.5 228.5,547.5C 230.833,554.833 233.167,562.167 235.5,569.5C 232.489,567.617 229.156,566.284 225.5,565.5C 221.844,566.284 218.511,567.617 215.5,569.5C 217.823,562.182 220.156,554.849 222.5,547.5 Z"/></g>
<g><path style="opacity:1" fill="#f6f6f8" d="M 238.5,547.5 C 244.105,546.908 249.439,547.741 254.5,550C 258.957,556.553 258.29,562.553 252.5,568C 247.964,569.379 243.297,569.879 238.5,569.5C 238.5,562.167 238.5,554.833 238.5,547.5 Z"/></g>
<g><path style="opacity:1" fill="#ededf1" d="M 268.5,546.5 C 280.562,547.042 285.062,553.042 282,564.5C 273.992,572.994 266.992,572.327 261,562.5C 259.505,555.162 262.005,549.828 268.5,546.5 Z"/></g>
<g><path style="opacity:1" fill="#f6f5f7" d="M 294.5,547.5 C 299.297,547.121 303.964,547.621 308.5,549C 314.975,555.222 314.975,561.556 308.5,568C 303.934,569.309 299.267,569.809 294.5,569.5C 294.5,562.167 294.5,554.833 294.5,547.5 Z"/></g>
<g><path style="opacity:1" fill="#f2f2f5" d="M 316.5,547.5 C 321.5,547.5 326.5,547.5 331.5,547.5C 331.5,548.833 331.5,550.167 331.5,551.5C 328.167,551.5 324.833,551.5 321.5,551.5C 321.5,553.167 321.5,554.833 321.5,556.5C 324.833,556.5 328.167,556.5 331.5,556.5C 331.5,557.833 331.5,559.167 331.5,560.5C 328.167,560.5 324.833,560.5 321.5,560.5C 321.5,562.167 321.5,563.833 321.5,565.5C 324.833,565.5 328.167,565.5 331.5,565.5C 331.5,566.833 331.5,568.167 331.5,569.5C 326.5,569.5 321.5,569.5 316.5,569.5C 316.5,562.167 316.5,554.833 316.5,547.5 Z"/></g>
<g><path style="opacity:1" fill="#ececf0" d="M 347.5,546.5 C 352.244,546.04 356.244,547.54 359.5,551C 358.069,551.465 356.903,552.299 356,553.5C 353.033,550.009 350.2,549.842 347.5,553C 347.645,553.772 347.978,554.439 348.5,555C 351.709,556.092 354.876,557.259 358,558.5C 360.874,565.74 358.374,569.74 350.5,570.5C 346.743,570.123 343.743,568.457 341.5,565.5C 343.478,562.255 345.478,562.088 347.5,565C 349.81,565.497 352.143,565.663 354.5,565.5C 354.714,563.856 354.38,562.356 353.5,561C 349.599,560.324 346.099,558.824 343,556.5C 341.571,551.783 343.071,548.45 347.5,546.5 Z"/></g>
<g><path style="opacity:1" fill="#f2f2f4" d="M 368.5,547.5 C 370.467,547.261 372.301,547.594 374,548.5C 377.004,555.345 379.504,562.345 381.5,569.5C 378.05,570.244 376.384,568.91 376.5,565.5C 373.102,565.18 369.768,565.513 366.5,566.5C 365.625,568.773 363.958,569.773 361.5,569.5C 363.427,562.051 365.761,554.717 368.5,547.5 Z"/></g>
<g><path style="opacity:1" fill="#eeedf1" d="M 391.5,546.5 C 400.002,545.893 404.669,549.726 405.5,558C 405.492,565.675 401.659,569.842 394,570.5C 384.358,567.875 381.024,561.875 384,552.5C 386.114,549.879 388.614,547.879 391.5,546.5 Z"/></g>
<g><path style="opacity:1" fill="#fafafb" d="M 416.5,547.5 C 420.846,547.334 425.179,547.501 429.5,548C 431.333,548.5 432.5,549.667 433,551.5C 434.377,560.954 430.21,564.954 420.5,563.5C 420.5,565.5 420.5,567.5 420.5,569.5C 419.167,569.5 417.833,569.5 416.5,569.5C 416.5,562.167 416.5,554.833 416.5,547.5 Z"/></g>
<g><path style="opacity:1" fill="#f2f2f5" d="M 442.5,547.5 C 444.288,547.215 445.955,547.548 447.5,548.5C 450.444,555.331 452.777,562.331 454.5,569.5C 452.042,569.773 450.375,568.773 449.5,566.5C 446.232,565.513 442.898,565.18 439.5,565.5C 439.616,568.91 437.95,570.244 434.5,569.5C 436.574,561.944 439.241,554.611 442.5,547.5 Z"/></g>
<g><path style="opacity:1" fill="#9a98af" d="M 461.5,547.5 C 460.167,547.5 458.833,547.5 457.5,547.5C 457.5,552.833 457.5,558.167 457.5,563.5C 456.511,558.025 456.178,552.358 456.5,546.5C 458.415,546.216 460.081,546.549 461.5,547.5 Z"/></g>
<g><path style="opacity:1" fill="#f5f5f7" d="M 461.5,547.5 C 461.334,552.844 461.501,558.177 462,563.5C 465.156,566.399 467.822,566.065 470,562.5C 470.499,557.511 470.666,552.511 470.5,547.5C 471.833,547.5 473.167,547.5 474.5,547.5C 474.666,553.509 474.499,559.509 474,565.5C 470.473,570.472 465.973,571.638 460.5,569C 458.84,567.512 457.84,565.679 457.5,563.5C 457.5,558.167 457.5,552.833 457.5,547.5C 458.833,547.5 460.167,547.5 461.5,547.5 Z"/></g>
<g><path style="opacity:1" fill="#fefefe" d="M 493.5,565.5 C 493.5,566.833 493.5,568.167 493.5,569.5C 488.833,569.5 484.167,569.5 479.5,569.5C 479.5,562.167 479.5,554.833 479.5,547.5C 480.833,547.5 482.167,547.5 483.5,547.5C 483.5,553.5 483.5,559.5 483.5,565.5C 486.833,565.5 490.167,565.5 493.5,565.5 Z"/></g>
<g><path style="opacity:1" fill="#ededf1" d="M 503.5,546.5 C 517.072,547.314 521.239,553.981 516,566.5C 507.875,572.608 501.209,571.275 496,562.5C 495.333,559.833 495.333,557.167 496,554.5C 498.028,551.308 500.528,548.641 503.5,546.5 Z"/></g>
<g><path style="opacity:1" fill="#2d2a59" d="M 109.5,551.5 C 119.373,551.192 122.04,555.359 117.5,564C 114.986,565.252 112.32,565.752 109.5,565.5C 109.5,560.833 109.5,556.167 109.5,551.5 Z"/></g>
<g><path style="opacity:1" fill="#2b2757" d="M 135.5,551.5 C 144.85,551.365 147.517,555.532 143.5,564C 133.722,566.889 130.222,563.389 133,553.5C 133.995,552.934 134.828,552.267 135.5,551.5 Z"/></g>
<g><path style="opacity:1" fill="#34305e" d="M 242.5,551.5 C 248.331,550.186 251.998,552.353 253.5,558C 252.296,563.945 248.629,566.445 242.5,565.5C 242.5,560.833 242.5,556.167 242.5,551.5 Z"/></g>
<g><path style="opacity:1" fill="#2b2857" d="M 268.5,551.5 C 278.309,551.138 280.976,555.305 276.5,564C 268.447,566.951 264.613,564.118 265,555.5C 266.376,554.295 267.542,552.962 268.5,551.5 Z"/></g>
<g><path style="opacity:1" fill="#2a2756" d="M 298.5,551.5 C 308.311,551.139 310.977,555.306 306.5,564C 303.986,565.252 301.32,565.752 298.5,565.5C 298.5,560.833 298.5,556.167 298.5,551.5 Z"/></g>
<g><path style="opacity:1" fill="#2b2756" d="M 390.5,551.5 C 397.996,550.174 401.496,553.174 401,560.5C 398.156,565.866 394.156,566.866 389,563.5C 386.66,559.052 387.16,555.052 390.5,551.5 Z"/></g>
<g><path style="opacity:1" fill="#9291a9" d="M 426.5,551.5 C 424.833,551.5 423.167,551.5 421.5,551.5C 421.5,554.167 421.5,556.833 421.5,559.5C 420.523,556.713 420.19,553.713 420.5,550.5C 422.735,550.205 424.735,550.539 426.5,551.5 Z"/></g>
<g><path style="opacity:1" fill="#2a2756" d="M 426.5,551.5 C 429.973,553.563 430.306,556.063 427.5,559C 425.527,559.495 423.527,559.662 421.5,559.5C 421.5,556.833 421.5,554.167 421.5,551.5C 423.167,551.5 424.833,551.5 426.5,551.5 Z"/></g>
<g><path style="opacity:1" fill="#2b2857" d="M 503.5,551.5 C 510.669,550.513 514.169,553.513 514,560.5C 510.468,566.29 506.135,566.957 501,562.5C 499.812,558.259 500.645,554.592 503.5,551.5 Z"/></g>
<g><path style="opacity:1" fill="#34305e" d="M 224.5,554.5 C 225.376,554.369 226.043,554.702 226.5,555.5C 229.892,560.724 228.559,562.39 222.5,560.5C 223.372,558.55 224.039,556.55 224.5,554.5 Z"/></g>
<g><path style="opacity:1" fill="#332f5d" d="M 370.5,554.5 C 372.306,556.089 373.639,558.089 374.5,560.5C 372.604,561.466 370.604,561.799 368.5,561.5C 368.878,559.079 369.545,556.746 370.5,554.5 Z"/></g>
<g><path style="opacity:1" fill="#36325f" d="M 444.5,553.5 C 446.02,555.89 447.02,558.557 447.5,561.5C 445.396,561.799 443.396,561.466 441.5,560.5C 442.702,558.22 443.702,555.886 444.5,553.5 Z"/></g>
<g><path style="opacity:1" fill="#696687" d="M 331.5,565.5 C 332.451,566.919 332.784,568.585 332.5,570.5C 326.974,570.821 321.64,570.488 316.5,569.5C 321.5,569.5 326.5,569.5 331.5,569.5C 331.5,568.167 331.5,566.833 331.5,565.5 Z"/></g>
<g><path style="opacity:1" fill="#6c6a8a" d="M 493.5,565.5 C 494.451,566.919 494.784,568.585 494.5,570.5C 489.305,570.821 484.305,570.487 479.5,569.5C 484.167,569.5 488.833,569.5 493.5,569.5C 493.5,568.167 493.5,566.833 493.5,565.5 Z"/></g>
</svg>
