 <svg  version="1.0" xmlns="http://www.w3.org/2000/svg"  width="300.000000pt" height="300.000000pt" viewBox="0 0 300.000000 300.000000"  preserveAspectRatio="xMidYMid meet">  <g transform="translate(0.000000,300.000000) scale(0.100000,-0.100000)" fill="#b70100" stroke="none"> <path d="M0 1500 l0 -1500 1500 0 1500 0 0 1500 0 1500 -1500 0 -1500 0 0 -1500z m2468 2 l2 -962 -965 2 -965 3 0 958 c0 526 0 959 0 962 0 3 433 4 963 3 l962 -3 3 -963z"/> <path d="M590 1500 l0 -910 910 0 910 0 0 910 0 910 -910 0 -910 0 0 -910z m488 -397 c-3 -15 -16 -19 -66 -21 -58 -3 -62 -4 -62 -27 0 -24 3 -25 55 -25 48 0 55 -2 55 -20 0 -18 -7 -20 -55 -20 l-55 0 0 -45 c0 -38 -3 -45 -20 -45 -19 0 -20 7 -20 110 l0 110 86 0 c76 0 85 -2 82 -17z m196 -88 c25 -58 46 -108 46 -110 0 -3 -9 -5 -20 -5 -12 0 -25 10 -32 25 -10 22 -17 25 -64 25 -49 0 -54 -2 -60 -25 -4 -18 -13 -25 -30 -25 l-24 0 26 58 c14 31 35 81 47 109 17 41 27 53 43 53 18 0 30 -19 68 -105z m273 85 c39 -23 56 -74 42 -126 -14 -50 -58 -74 -136 -74 l-63 0 0 110 0 110 63 0 c44 0 71 -6 94 -20z m293 0 c0 -18 -7 -20 -65 -20 -63 0 -65 -1 -65 -25 0 -24 3 -25 55 -25 48 0 55 -2 55 -20 0 -18 -7 -20 -56 -20 -54 0 -55 0 -52 -27 3 -27 6 -28 66 -31 46 -2 62 -7 62 -17 0 -12 -17 -15 -85 -15 l-85 0 0 110 0 110 85 0 c78 0 85 -2 85 -20z m227 -2 c54 -50 12 -128 -68 -128 -38 0 -39 -1 -39 -35 0 -28 -4 -35 -20 -35 -19 0 -20 7 -20 110 l0 110 62 0 c50 0 66 -4 85 -22z"/> <path d="M1188 1029 l-17 -39 35 0 c39 0 40 3 16 47 l-17 32 -17 -40z"/> <path d="M1430 1010 l0 -70 44 0 c35 0 48 5 60 22 39 56 5 118 -64 118 l-40 0 0 -70z"/> <path d="M1960 1044 c0 -34 1 -35 36 -32 71 6 68 68 -2 68 -32 0 -34 -2 -34 -36z"/> </g> </svg> 