<?xml version="1.0" standalone="no"?>
<!DOCTYPE svg PUBLIC "-//W3C//DTD SVG 20010904//EN"
 "http://www.w3.org/TR/2001/REC-SVG-20010904/DTD/svg10.dtd">
<svg version="1.0" xmlns="http://www.w3.org/2000/svg"
 width="220.000000pt" height="220.000000pt" viewBox="0 0 220.000000 220.000000"
 preserveAspectRatio="xMidYMid meet">

<g transform="translate(0.000000,220.000000) scale(0.100000,-0.100000)"
fill="#000000" stroke="none">
<path d="M920 2127 c-91 -40 -275 -120 -408 -177 -258 -111 -306 -141 -345
-214 -22 -41 -22 -42 -25 -682 l-3 -641 28 -12 c15 -7 230 -101 476 -208 306
-133 455 -193 470 -189 58 15 826 360 857 385 19 15 46 50 60 77 l25 48 3 636
3 637 -28 12 c-148 68 -924 401 -934 401 -8 0 -88 -33 -179 -73z m345 -403
c33 -8 98 -33 145 -56 68 -33 102 -58 170 -127 93 -93 141 -173 180 -296 30
-95 31 -269 2 -369 l-20 -69 25 -20 c95 -75 130 -173 100 -278 -42 -144 -205
-221 -341 -160 -25 11 -46 23 -46 26 0 4 26 39 59 78 35 44 60 84 63 103 l4
31 -60 -49 c-232 -187 -516 -215 -779 -76 -38 20 -94 65 -148 118 -137 136
-202 290 -202 480 0 117 20 198 75 310 33 67 58 102 127 170 178 179 403 243
646 184z"/>
<path d="M928 1587 c-67 -23 -176 -90 -185 -113 -2 -6 5 -27 16 -45 41 -67 24
-113 -63 -172 -22 -15 -26 -25 -26 -67 0 -47 -1 -49 -49 -79 -91 -55 -75 -97
60 -151 76 -31 129 -74 129 -105 0 -7 -14 -42 -31 -78 -17 -37 -29 -76 -27
-89 4 -30 91 -88 174 -118 291 -102 608 74 689 385 20 77 20 159 0 175 -8 7
-35 15 -60 18 l-45 5 6 -45 c7 -50 1 -66 -51 -127 -19 -24 -35 -54 -35 -67 0
-40 -37 -102 -100 -166 -65 -67 -95 -74 -118 -26 -17 36 -17 133 -1 188 12 38
11 44 -6 56 -10 8 -33 14 -49 14 -65 0 -107 19 -122 55 -29 70 -13 127 52 185
51 44 99 63 141 55 104 -19 124 33 46 116 l-47 51 17 48 c9 26 14 55 11 63
-10 26 -85 49 -174 54 -71 3 -96 0 -152 -20z"/>
</g>
</svg>
