<?xml version="1.0" encoding="UTF-8"?>
<svg version="1.1" xmlns="http://www.w3.org/2000/svg" width="295" height="295">
<path d="M0 0 C1.56234375 0.44121437 1.56234375 0.44121437 3.15625 0.89134216 C6.4820269 1.83318157 9.80345655 2.78944473 13.125 3.74609375 C15.29400458 4.36226613 17.46327368 4.9775082 19.6328125 5.59179688 C31.13568801 8.85677448 42.61668271 12.19591326 54.09280396 15.55351257 C61.42610978 17.69611448 68.76903584 19.80344546 76.1171875 21.89453125 C77.18157043 22.19751633 78.24595337 22.5005014 79.34259033 22.81266785 C83.68048541 24.04687058 88.01864169 25.28014261 92.35742188 26.51123047 C95.59034179 27.428923 98.82256365 28.34903956 102.0546875 29.26953125 C103.04089081 29.54864349 104.02709412 29.82775574 105.04318237 30.11532593 C105.94658356 30.37294708 106.84998474 30.63056824 107.78076172 30.89599609 C108.57441132 31.12137054 109.36806091 31.346745 110.1857605 31.57894897 C112.125 32.18359375 112.125 32.18359375 114.125 33.18359375 C114.125 99.84359375 114.125 166.50359375 114.125 235.18359375 C105.36855964 239.56181393 96.71145487 243.79932099 87.75 247.68359375 C86.6787085 248.1535376 85.60741699 248.62348145 84.50366211 249.10766602 C79.69459367 251.21432052 74.87879655 253.29742442 70.02734375 255.3046875 C69.28339355 255.61664063 68.53944336 255.92859375 67.77294922 256.25 C66.42651024 256.8124086 65.07548519 257.36401702 63.71923828 257.90234375 C60.02363983 259.4532568 58.72172047 260.5729916 57.125 264.18359375 C55.12890625 265.4921875 55.12890625 265.4921875 52.6875 266.62109375 C51.35138672 267.24757813 51.35138672 267.24757813 49.98828125 267.88671875 C48.57095703 268.52867187 48.57095703 268.52867187 47.125 269.18359375 C45.69220703 269.85648437 45.69220703 269.85648437 44.23046875 270.54296875 C32.40068633 276.04519313 32.40068633 276.04519313 25.93383789 276.51928711 C21.20708079 277.02684675 17.53602042 278.46307526 13.30859375 280.5625 C11.87045869 281.24287232 10.43230715 281.92320982 8.99414062 282.60351562 C6.77178363 283.67475903 4.55202406 284.75118659 2.33325195 285.82983398 C0.16425434 286.87857745 -2.01299912 287.90847901 -4.19140625 288.9375 C-4.84371719 289.26246964 -5.49602814 289.58743927 -6.16810608 289.92225647 C-14.7469137 293.96107797 -22.02811065 291.90467443 -30.75 289.3671875 C-31.7915625 289.07304459 -32.833125 288.77890167 -33.90625 288.47584534 C-37.2320269 287.53400593 -40.55345655 286.57774277 -43.875 285.62109375 C-46.04400458 285.00492137 -48.21327368 284.3896793 -50.3828125 283.77539062 C-61.88568801 280.51041302 -73.36668271 277.17127424 -84.84280396 273.81367493 C-92.17610978 271.67107302 -99.51903584 269.56374204 -106.8671875 267.47265625 C-107.93157043 267.16967117 -108.99595337 266.8666861 -110.09259033 266.55451965 C-114.43048541 265.32031692 -118.76864169 264.08704489 -123.10742188 262.85595703 C-126.34034179 261.9382645 -129.57256365 261.01814794 -132.8046875 260.09765625 C-133.79089081 259.81854401 -134.77709412 259.53943176 -135.79318237 259.25186157 C-137.14828415 258.86542984 -137.14828415 258.86542984 -138.53076172 258.47119141 C-139.72123611 258.13312973 -139.72123611 258.13312973 -140.9357605 257.78823853 C-142.875 257.18359375 -142.875 257.18359375 -144.875 256.18359375 C-144.875 189.52359375 -144.875 122.86359375 -144.875 54.18359375 C-136.59996504 50.04607627 -128.46859804 46.01838685 -120 42.37109375 C-108.62572265 37.41881508 -97.30835325 32.34668043 -86 27.24609375 C-73.31271287 21.52582085 -60.62416802 15.80973149 -47.88989258 10.19458008 C-42.92172574 8.00101108 -37.97616263 5.77484452 -33.06640625 3.453125 C-32.15407227 3.02652588 -31.24173828 2.59992676 -30.30175781 2.16040039 C-28.63222411 1.37692945 -26.96813671 0.58167342 -25.31152344 -0.22875977 C-24.57579102 -0.57221436 -23.84005859 -0.91566895 -23.08203125 -1.26953125 C-22.4578833 -1.57020508 -21.83373535 -1.87087891 -21.19067383 -2.18066406 C-13.83540165 -4.19997126 -7.08462636 -2.06115281 0 0 Z M41.125 267.18359375 C40.465 267.84359375 39.805 268.50359375 39.125 269.18359375 C40.775 268.85359375 42.425 268.52359375 44.125 268.18359375 C43.135 267.85359375 42.145 267.52359375 41.125 267.18359375 Z " fill="#2C8BED" transform="translate(162.875,2.81640625)"/>
<path d="M0 0 C1.71328491 0.01740234 1.71328491 0.01740234 3.46118164 0.03515625 C29.79801276 0.54397208 52.96511809 11.59172016 71.78515625 29.90234375 C87.19745384 46.12456115 98.33990112 67.70173001 99.1875 90.375 C99.2390625 91.61507812 99.290625 92.85515625 99.34375 94.1328125 C100.06537281 119.98846811 91.76985052 145.18643148 74.1875 164.375 C73.36636719 165.28894531 72.54523438 166.20289063 71.69921875 167.14453125 C61.98557043 177.43380317 50.38709313 185.23306895 37.1875 190.375 C36.26195312 190.74238281 35.33640625 191.10976562 34.3828125 191.48828125 C10.65703161 200.52510915 -15.62708174 199.44754942 -38.81542969 189.2890625 C-50.92140113 183.74813865 -60.54152034 176.90939627 -69.8125 167.375 C-70.64523438 166.5396875 -71.47796875 165.704375 -72.3359375 164.84375 C-84.03763921 152.54298506 -91.74206288 136.79153115 -95.8125 120.375 C-96.01746094 119.62089844 -96.22242188 118.86679688 -96.43359375 118.08984375 C-102.08235537 93.50799147 -95.98417085 66.50792645 -82.8125 45.375 C-80.62991181 42.23522856 -78.27917448 39.29525719 -75.8125 36.375 C-75.16796875 35.58480469 -74.5234375 34.79460937 -73.859375 33.98046875 C-60.92555483 18.7712543 -44.13011489 8.28552472 -24.8125 3.375 C-23.94971436 3.12492187 -23.08692871 2.87484375 -22.19799805 2.6171875 C-14.69403822 0.54119239 -7.76877717 -0.10190838 0 0 Z " fill="#FCFDFE" transform="translate(146.8125,50.625)"/>
<path d="M0 0 C0 0.66 0 1.32 0 2 C-0.66 2 -1.32 2 -2 2 C-2 17.51 -2 33.02 -2 49 C0.64 49.33 3.28 49.66 6 50 C6 50.33 6 50.66 6 51 C5.13387085 51.01401855 5.13387085 51.01401855 4.25024414 51.02832031 C-26.22427869 51.64402821 -51.33552426 59.8606883 -73.6328125 81.5625 C-92.5641675 101.47805389 -100.63523349 127.17277947 -100.27734375 154.17578125 C-99.4001171 180.76753234 -86.08802071 204.4094873 -67.4609375 222.75 C-64.72367263 225.25264217 -61.88890185 227.42174091 -58.7890625 229.453125 C-56.29444083 231.61004679 -54.81106108 234.25136913 -53 237 C-51.30671301 238.92794724 -49.57532609 240.82292349 -47.8125 242.6875 C-43.38883247 247.41879804 -39.24331697 252.30456362 -35.1796875 257.3515625 C-33.02242601 259.97275119 -30.78689 262.49154281 -28.5 265 C-24.59357582 269.28621542 -20.93139907 273.73031614 -17.28515625 278.23828125 C-13.66197848 282.61706191 -9.84180691 286.81306622 -6 291 C-9.14805332 293.2298711 -11.72102652 293.14023816 -15.44580078 292.54833984 C-21.35701945 291.27930934 -27.13960031 289.51333424 -32.9375 287.8125 C-34.45431276 287.37253439 -35.97132756 286.93326479 -37.48852539 286.49462891 C-40.825016 285.52967884 -44.16072406 284.56207858 -47.49609375 283.59326172 C-56.57172285 280.96145237 -65.66096331 278.37700773 -74.74804688 275.78509521 C-78.96452286 274.58194393 -83.18037135 273.37660217 -87.39624023 272.17132568 C-95.35615766 269.89577599 -103.31706456 267.62384974 -111.28125 265.36328125 C-112.61597975 264.9839323 -113.95069717 264.60453994 -115.28540039 264.22509766 C-117.64348994 263.55514107 -120.00202074 262.88673474 -122.36108398 262.22021484 C-123.36469971 261.93484863 -124.36831543 261.64948242 -125.40234375 261.35546875 C-126.25304443 261.11465576 -127.10374512 260.87384277 -127.98022461 260.62573242 C-130 260 -130 260 -132 259 C-132 192.34 -132 125.68 -132 57 C-123.72496504 52.86248252 -115.59359804 48.8347931 -107.125 45.1875 C-95.75072265 40.23522133 -84.43335325 35.16308668 -73.125 30.0625 C-60.43888708 24.34275651 -47.74954475 18.63200162 -35.01928711 13.01098633 C-30.03220659 10.80664583 -25.06213196 8.57545964 -20.12109375 6.26953125 C-19.19973633 5.84293213 -18.27837891 5.41633301 -17.32910156 4.97680664 C-15.63512255 4.19009273 -13.94523409 3.39447404 -12.26074219 2.58764648 C-7.98695258 0.60988214 -4.821247 -0.45989638 0 0 Z " fill="#4A98E8" transform="translate(150,0)"/>
<path d="M0 0 C1.155 -0.01611328 2.31 -0.03222656 3.5 -0.04882812 C10.93331317 -0.053023 17.61439073 0.74036544 24.625 3.3125 C26.41809961 5.10559961 25.92307043 7.63625978 26 10.0625 C25.94501658 15.87012414 25.94501658 15.87012414 23.5 19.25 C22.55125 19.930625 21.6025 20.61125 20.625 21.3125 C16.21674969 24.5967845 16.21674969 24.5967845 13.625 29.3125 C13.39264412 31.53075028 13.39264412 31.53075028 13.375 33.875 C13.34921875 34.66003906 13.3234375 35.44507813 13.296875 36.25390625 C13.40515625 36.93324219 13.5134375 37.61257812 13.625 38.3125 C17.1173253 40.64071686 18.74559 40.56265737 22.875 40.6875 C28.69932448 41.06974154 32.03271041 41.6972933 36.625 45.3125 C39.6590194 49.04667772 40.625 50.44940416 40.625 55.3125 C39.25011713 55.33999766 37.87506609 55.3591164 36.5 55.375 C35.73429687 55.38660156 34.96859375 55.39820313 34.1796875 55.41015625 C31.26162162 55.29860939 28.50357116 54.79947632 25.625 54.3125 C16.9194307 53.40481031 10.77273703 53.59739871 3.8203125 59.23046875 C-3.25873338 65.49823989 -3.25873338 65.49823989 -6.578125 73.88671875 C-6.67212627 80.12996954 -6.6973266 84.92803965 -3.375 90.3125 C0.45434657 93.17436148 3.33629732 93.6788971 8.0625 93.8125 C16.78546736 94.32619683 16.78546736 94.32619683 20.625 97.3125 C21.92810789 99.91871578 21.8898156 101.49157165 21 104.25 C20.731875 104.971875 20.46375 105.69375 20.1875 106.4375 C16.87133 115.6677612 18.66980586 124.21824185 21.625 133.3125 C24.70268217 133.85109438 26.82143078 133.83305113 29.48828125 132.10546875 C31.64134917 130.26306394 33.6373619 128.33266309 35.625 126.3125 C36.39585937 125.54035156 37.16671875 124.76820313 37.9609375 123.97265625 C44.19253572 117.42016178 48.97539919 110.80329964 50.5 101.75 C51.66719977 95.35873133 56.23576559 91.09270004 60.34375 86.3125 C62.27942378 83.29096045 61.84224685 81.21182674 61.3515625 77.765625 C60.25182395 74.05252926 58.20765348 71.23571064 55.90234375 68.16015625 C54.625 66.3125 54.625 66.3125 54.625 64.3125 C55.305625 64.6425 55.98625 64.9725 56.6875 65.3125 C60.1553986 66.49306122 62.98446032 66.52253114 66.625 66.3125 C67.9991663 65.14656538 67.9991663 65.14656538 68 61.9375 C68.625 58.3125 68.625 58.3125 69.9375 56.3125 C71.625 55.3125 71.625 55.3125 73.73046875 55.75 C74.35566406 55.935625 74.98085937 56.12125 75.625 56.3125 C81.23422003 77.98652618 77.60602673 99.26266748 66.69384766 118.54101562 C64.09918364 122.84135415 61.00995517 126.61857326 57.625 130.3125 C57.06167969 130.94414062 56.49835938 131.57578125 55.91796875 132.2265625 C41.84566509 147.18868395 21.82468335 154.90509577 1.58325195 155.65136719 C-18.76189305 155.99396378 -35.44464336 148.82920879 -51.375 136.3125 C-50.84859182 132.32288009 -49.85200671 130.25292463 -47.125 127.3125 C-46.4959375 126.62414062 -45.866875 125.93578125 -45.21875 125.2265625 C-43.72532991 123.67618995 -42.18214082 122.17386169 -40.625 120.6875 C-37.11214169 116.9794829 -35.60803936 113.78841597 -34.8125 108.75 C-35.0637925 105.19583825 -35.0637925 105.19583825 -37.625 102.9375 C-38.87226852 102.05861079 -40.12278406 101.18432581 -41.375 100.3125 C-42.20257813 99.62027344 -43.03015625 98.92804688 -43.8828125 98.21484375 C-49.62242999 93.53087798 -54.66145627 90.55727541 -61.625 88.1875 C-74.33781708 83.75614095 -74.33781708 83.75614095 -77.375 78.3125 C-78.3532816 72.17738515 -77.70897285 66.34340245 -76.375 60.3125 C-75.01955078 60.25642578 -75.01955078 60.25642578 -73.63671875 60.19921875 C-72.45722656 60.13347656 -71.27773437 60.06773437 -70.0625 60 C-68.89074219 59.94199219 -67.71898438 59.88398438 -66.51171875 59.82421875 C-63.46653757 59.53489355 -63.46653757 59.53489355 -61.53125 58.16015625 C-59.90043486 55.55415773 -59.65574971 53.0902801 -59.1875 50.0625 C-57.69821081 43.03710962 -55.12138042 40.31181238 -49.375 36.3125 C-48.069976 35.26644963 -46.77738359 34.20462965 -45.5 33.125 C-44.94570312 32.67769531 -44.39140625 32.23039062 -43.8203125 31.76953125 C-41.12382821 29.05118358 -40.41140372 26.79484932 -40.125 23 C-40.39042038 19.08504945 -41.16290705 16.02453465 -42.375 12.3125 C-28.88841205 3.23498888 -16.08148102 -0.04457173 0 0 Z " fill="#1E6BBE" transform="translate(147.375,69.6875)"/>
<path d="M0 0 C0.99 0.495 0.99 0.495 2 1 C1.27296875 1.65484375 0.5459375 2.3096875 -0.203125 2.984375 C-9.64175314 11.53253662 -18.96981427 20.24427211 -27.234375 29.953125 C-29.3943342 32.45714849 -31.63487993 34.87997698 -33.875 37.3125 C-37.9715383 41.79830212 -41.82105571 46.42919043 -45.62890625 51.16015625 C-49.12907692 55.35228817 -52.8647183 59.30715239 -56.6171875 63.2734375 C-58.77843136 65.74646736 -60.42380552 68.12944714 -62 71 C-65.3 70.67 -68.6 70.34 -72 70 C-71 68 -71 68 -68 67 C-68.92619141 66.00033203 -68.92619141 66.00033203 -69.87109375 64.98046875 C-75.03975644 59.3555162 -79.98531489 53.63067311 -84.78515625 47.68359375 C-87.66716132 44.19164052 -90.71174991 40.86448844 -93.76171875 37.51953125 C-96.02847158 34.96795083 -98.17540087 32.34828468 -100.3125 29.6875 C-104.35107188 24.6768117 -108.65331075 19.97157067 -113.1027832 15.3269043 C-115.40507273 12.89191362 -116.92621801 11.22134597 -118 8 C-114.55214701 9.31657146 -111.25044469 10.8355293 -107.9387207 12.4621582 C-84.12077724 24.05035477 -58.43191436 26.41348266 -33.1796875 18.1171875 C-20.88519695 13.79750163 -10.32526443 7.94640449 0 0 Z " fill="#0B5EB6" transform="translate(211,224)"/>
<path d="M0 0 C14.95754717 0.08254717 14.95754717 0.08254717 19.125 4.25 C20.24684775 14.69921046 20.24684775 14.69921046 17 19.1875 C15.576875 20.2084375 15.576875 20.2084375 14.125 21.25 C9.71674969 24.5342845 9.71674969 24.5342845 7.125 29.25 C6.89264412 31.46825028 6.89264412 31.46825028 6.875 33.8125 C6.84921875 34.59753906 6.8234375 35.38257813 6.796875 36.19140625 C6.90515625 36.87074219 7.0134375 37.55007812 7.125 38.25 C10.6173253 40.57821686 12.24559 40.50015737 16.375 40.625 C22.19932448 41.00724154 25.53271041 41.6347933 30.125 45.25 C33.1590194 48.98417772 34.125 50.38690416 34.125 55.25 C32.75011713 55.27749766 31.37506609 55.2966164 30 55.3125 C29.23429687 55.32410156 28.46859375 55.33570313 27.6796875 55.34765625 C24.76225303 55.23613353 22.00351827 54.73336021 19.125 54.25 C9.39369309 53.33913123 2.94785588 54.19359544 -4.875 60.25 C-7.15598677 53.88900195 -7.1493863 47.93853105 -7.10546875 41.2265625 C-7.10501053 40.08464447 -7.10455231 38.94272644 -7.1040802 37.76620483 C-7.10106948 35.36414545 -7.09321872 32.96208782 -7.08081055 30.56005859 C-7.06245922 26.86679246 -7.06030167 23.17377589 -7.06054688 19.48046875 C-7.0556349 17.14583115 -7.04980799 14.81119525 -7.04296875 12.4765625 C-7.04185593 11.36624664 -7.0407431 10.25593079 -7.03959656 9.11196899 C-7.03321671 8.09355927 -7.02683685 7.07514954 -7.02026367 6.02587891 C-7.01645187 5.12543854 -7.01264008 4.22499817 -7.00871277 3.29727173 C-6.72972883 -0.97424208 -3.62524483 0.05117993 0 0 Z " fill="#2E71BE" transform="translate(153.875,69.75)"/>
<path d="M0 0 C0.33 0 0.66 0 1 0 C7.890361 26.41305048 7.890361 53.58694952 1 80 C0.67 80 0.34 80 0 80 C0 53.6 0 27.2 0 0 Z " fill="#000000" transform="translate(278,109)"/>
<path d="M0 0 C0.33 0 0.66 0 1 0 C1 25.74 1 51.48 1 78 C-9.29867823 57.40264355 -7.25175045 23.65482065 -0.8984375 2.296875 C-0.45371094 1.15992187 -0.45371094 1.15992187 0 0 Z " fill="#000000" transform="translate(16,110)"/>
<path d="M0 0 C0.33 0 0.66 0 1 0 C4.10002268 15.1679681 4.10002268 30.8320319 1 46 C0.67 46 0.34 46 0 46 C0 30.82 0 15.64 0 0 Z " fill="#0000B1" transform="translate(278,126)"/>
<path d="M0 0 C0.33 0 0.66 0 1 0 C1 15.18 1 30.36 1 46 C0.67 46 0.34 46 0 46 C-2.77436044 30.36945146 -2.54873097 15.63373373 0 0 Z " fill="#0000B1" transform="translate(16,126)"/>
<path d="M0 0 C0.66 0.33 1.32 0.66 2 1 C-6.12462648 7.46146765 -17.04711946 12.22148751 -27 15 C-29.17578125 14.54907227 -29.17578125 14.54907227 -31 14 C-26.62629197 11.97783359 -22.24805269 9.96596756 -17.86523438 7.96362305 C-16.37402401 7.28058499 -14.88410576 6.59471877 -13.39550781 5.90600586 C-11.2591725 4.91819968 -9.11844087 3.94056106 -6.9765625 2.96484375 C-6.30879791 2.65344955 -5.64103333 2.34205536 -4.95303345 2.02122498 C-3.328028 1.28697507 -1.66617802 0.63530815 0 0 Z " fill="#000000" transform="translate(220,264)"/>
<path d="M0 0 C0 0.66 0 1.32 0 2 C-0.66 2 -1.32 2 -2 2 C-2 12.23 -2 22.46 -2 33 C-2.33 33 -2.66 33 -3 33 C-3.33 22.77 -3.66 12.54 -4 2 C-4.99 2 -5.98 2 -7 2 C-7 2.66 -7 3.32 -7 4 C-7.99 3.67 -8.98 3.34 -10 3 C-6.68152292 -0.06320961 -4.44849969 -0.3033068 0 0 Z " fill="#5FAEF7" transform="translate(150,0)"/>
<path d="M0 0 C0.66 0.33 1.32 0.66 2 1 C0.06478939 2.79419526 -1.8730354 4.58541329 -3.8125 6.375 C-4.63331055 7.13683594 -4.63331055 7.13683594 -5.47070312 7.9140625 C-7.90022015 10.15216303 -10.24568668 12.16379112 -13 14 C-13 12.68 -13 11.36 -13 10 C-11 8.125 -11 8.125 -8 6 C-6.56031554 4.91957137 -5.12290165 3.83611208 -3.6875 2.75 C-2.45892386 1.83254203 -1.22995949 0.9156026 0 0 Z " fill="#2470C7" transform="translate(211,224)"/>
<path d="M0 0 C0.33 0 0.66 0 1 0 C1 1.65 1 3.3 1 5 C3.64 5.33 6.28 5.66 9 6 C9 6.33 9 6.66 9 7 C3.39 7 -2.22 7 -8 7 C-4 5 -4 5 0 5 C0 3.35 0 1.7 0 0 Z " fill="#4B89CE" transform="translate(147,44)"/>
<path d="M0 0 C0.33 0 0.66 0 1 0 C1 2.97 1 5.94 1 9 C1.66 9 2.32 9 3 9 C3.66 7.68 4.32 6.36 5 5 C5 9.01474237 3.33218233 10.81975137 1 14 C0.67 14 0.34 14 0 14 C0 9.38 0 4.76 0 0 Z " fill="#407FC6" transform="translate(64,82)"/>
<path d="M0 0 C0.33 0.66 0.66 1.32 1 2 C2.32 2 3.64 2 5 2 C5 2.66 5 3.32 5 4 C1.7 3.67 -1.6 3.34 -5 3 C-4.67 2.34 -4.34 1.68 -4 1 C-1.9375 0.375 -1.9375 0.375 0 0 Z " fill="#046FDC" transform="translate(144,291)"/>
<path d="M0 0 C3 1 3 1 3 1 Z " fill="#000000" transform="translate(184,280)"/>
<path d="M0 0 C2 1 2 1 2 1 Z " fill="#000000" transform="translate(187,279)"/>
<path d="M0 0 C2 1 2 1 2 1 Z " fill="#000000" transform="translate(222,263)"/>
<path d="" fill="#000000" transform="translate(0,0)"/>
<path d="" fill="#000000" transform="translate(0,0)"/>
</svg>
