<?xml version="1.0" standalone="no"?>
<!DOCTYPE svg PUBLIC "-//W3C//DTD SVG 20010904//EN"
 "http://www.w3.org/TR/2001/REC-SVG-20010904/DTD/svg10.dtd">
<svg version="1.0" xmlns="http://www.w3.org/2000/svg"
 width="512.000000pt" height="512.000000pt" viewBox="0 0 512.000000 512.000000"
 preserveAspectRatio="xMidYMid meet">

<g transform="translate(0.000000,512.000000) scale(0.100000,-0.100000)"
fill="#000000" stroke="none">
<path d="M1675 4804 c-169 -20 -260 -39 -327 -68 -148 -65 -344 -211 -533
-401 -133 -132 -198 -216 -247 -321 -30 -64 -33 -77 -33 -169 0 -116 20 -168
68 -173 30 -4 95 51 143 120 28 40 29 45 35 207 5 144 9 173 29 219 42 97 171
190 315 227 178 46 816 37 1390 -20 208 -21 255 -27 255 -34 -1 -18 -44 -55
-115 -102 -189 -122 -329 -318 -384 -534 -31 -124 -69 -435 -71 -587 0 -4 -28
6 -62 21 -35 16 -93 36 -130 46 l-68 18 0 533 0 534 -45 0 -45 0 0 -539 0
-538 -58 -12 c-73 -14 -179 -65 -257 -123 -83 -62 -205 -177 -205 -193 0 -26
37 -26 75 -1 20 14 62 30 93 37 67 14 235 6 302 -14 l45 -13 5 -949 5 -950 43
-3 42 -3 0 916 0 916 23 -7 c42 -13 106 -64 137 -109 58 -84 73 -149 107 -460
15 -132 18 -249 18 -665 0 -481 -1 -510 -22 -603 -50 -227 -147 -341 -309
-362 -64 -9 -143 11 -289 71 -313 131 -390 143 -544 86 -89 -34 -230 -106
-336 -173 -74 -46 -186 -163 -216 -225 -26 -54 -14 -94 28 -94 25 1 32 9 63
73 45 92 98 129 196 135 79 5 157 -17 354 -103 267 -116 307 -121 480 -63 250
85 363 159 596 392 141 141 154 158 203 253 99 196 146 389 161 668 5 93 10
387 10 653 l0 482 158 0 c194 0 331 -14 388 -39 36 -16 44 -25 50 -56 3 -20 3
-58 0 -86 -6 -41 -4 -49 9 -49 9 0 23 16 31 38 9 20 42 93 74 162 33 69 78
172 100 230 23 58 44 110 46 116 4 8 -33 11 -123 10 -70 -1 -265 0 -432 2
l-303 2 5 268 c4 232 9 293 36 472 42 276 46 288 142 383 43 42 82 89 85 102
8 32 -12 33 438 -11 438 -42 558 -42 721 0 208 54 389 167 543 338 49 55 65
88 42 88 -5 0 -36 -17 -69 -39 -78 -50 -172 -87 -258 -102 -157 -27 -584 -9
-968 41 -82 10 -235 28 -340 40 -104 11 -302 34 -440 50 -137 16 -313 34 -390
40 -130 9 -402 11 -470 4z"/>
</g>
</svg>
