<?xml version="1.0" encoding="UTF-8"?>
<!DOCTYPE svg PUBLIC "-//W3C//DTD SVG 1.1//EN" "http://www.w3.org/Graphics/SVG/1.1/DTD/svg11.dtd">
<svg xmlns="http://www.w3.org/2000/svg" version="1.1" width="2820px" height="1992px" style="shape-rendering:geometricPrecision; text-rendering:geometricPrecision; image-rendering:optimizeQuality; fill-rule:evenodd; clip-rule:evenodd" xmlns:xlink="http://www.w3.org/1999/xlink">
<g><path style="opacity:1" fill="#fefffe" d="M -0.5,-0.5 C 939.5,-0.5 1879.5,-0.5 2819.5,-0.5C 2819.5,663.5 2819.5,1327.5 2819.5,1991.5C 1879.5,1991.5 939.5,1991.5 -0.5,1991.5C -0.5,1327.5 -0.5,663.5 -0.5,-0.5 Z"/></g>
<g><path style="opacity:1" fill="#004387" d="M 366.5,372.5 C 656.5,372.333 946.5,372.5 1236.5,373C 1304.15,382.378 1356.32,415.545 1393,472.5C 1408.91,499.683 1418.58,529.017 1422,560.5C 1422.67,848.833 1422.67,1137.17 1422,1425.5C 1413.18,1495.05 1379.35,1548.22 1320.5,1585C 1294.53,1599.88 1266.53,1609.21 1236.5,1613C 946.5,1613.67 656.5,1613.67 366.5,1613C 288.41,1601.1 232.243,1559.93 198,1489.5C 190.245,1470.22 184.912,1450.22 182,1429.5C 181.333,1138.5 181.333,847.5 182,556.5C 193.702,478.469 234.868,422.636 305.5,389C 325.367,381.54 345.701,376.04 366.5,372.5 Z"/></g>
<g><path style="opacity:1" fill="#f9ea26" d="M 375.5,980.5 C 375.5,1118.17 375.5,1255.83 375.5,1393.5C 343.167,1393.5 310.833,1393.5 278.5,1393.5C 278.5,1255.83 278.5,1118.17 278.5,980.5C 310.833,980.5 343.167,980.5 375.5,980.5 Z"/></g>
<g><path style="opacity:1" fill="#f9e927" d="M 458.5,980.5 C 489.167,980.5 519.833,980.5 550.5,980.5C 550.5,1014.83 550.5,1049.17 550.5,1083.5C 570.833,1083.5 591.167,1083.5 611.5,1083.5C 611.5,1106.5 611.5,1129.5 611.5,1152.5C 591.167,1152.5 570.833,1152.5 550.5,1152.5C 550.168,1193 550.501,1233.34 551.5,1273.5C 551.21,1286.38 554.71,1298.04 562,1308.5C 567.774,1313.14 574.274,1316.3 581.5,1318C 591.178,1318.53 600.845,1318.37 610.5,1317.5C 611.5,1317.5 612.5,1317.5 613.5,1317.5C 613.5,1341.17 613.5,1364.83 613.5,1388.5C 584.137,1399.97 554.137,1401.47 523.5,1393C 507.612,1387.77 493.779,1379.27 482,1367.5C 465.506,1342.89 457.672,1315.55 458.5,1285.5C 458.5,1241.17 458.5,1196.83 458.5,1152.5C 443.5,1152.5 428.5,1152.5 413.5,1152.5C 413.5,1129.5 413.5,1106.5 413.5,1083.5C 428.5,1083.5 443.5,1083.5 458.5,1083.5C 458.5,1049.17 458.5,1014.83 458.5,980.5 Z"/></g>
<g><path style="opacity:1" fill="#2e6176" d="M 550.5,980.5 C 551.498,1014.33 551.832,1048.33 551.5,1082.5C 571.674,1082.17 591.674,1082.5 611.5,1083.5C 591.167,1083.5 570.833,1083.5 550.5,1083.5C 550.5,1049.17 550.5,1014.83 550.5,980.5 Z"/></g>
<g><path style="opacity:1" fill="#f7e828" d="M 1161.5,980.5 C 1191.5,980.333 1221.5,980.5 1251.5,981C 1225.37,1013.55 1199.03,1045.88 1172.5,1078C 1150.17,1078.67 1127.83,1078.67 1105.5,1078C 1124.83,1045.84 1143.5,1013.34 1161.5,980.5 Z"/></g>
<g><path style="opacity:1" fill="#004286" d="M 1606.5,980.5 C 1632.17,980.333 1657.84,980.5 1683.5,981C 1717.5,982.101 1749.5,990.434 1779.5,1006C 1815.02,1030.93 1827.85,1064.76 1818,1107.5C 1809.75,1130.55 1794.92,1148.05 1773.5,1160C 1766.83,1163.33 1760.17,1166.67 1753.5,1170C 1815.62,1188.36 1842.45,1229.86 1834,1294.5C 1826,1327.34 1807.17,1352.01 1777.5,1368.5C 1746.46,1382.74 1713.79,1390.9 1679.5,1393C 1636.5,1394.9 1593.5,1394.9 1550.5,1393C 1539.8,1392.03 1529.14,1390.86 1518.5,1389.5C 1518.5,1256.5 1518.5,1123.5 1518.5,990.5C 1530.49,988.737 1542.49,986.903 1554.5,985C 1572.02,983.937 1589.36,982.437 1606.5,980.5 Z"/></g>
<g><path style="opacity:1" fill="#004286" d="M 1971.5,980.5 C 1997.5,980.333 2023.5,980.5 2049.5,981C 2083.18,982.212 2114.84,990.545 2144.5,1006C 2176.65,1027.91 2190.15,1058.41 2185,1097.5C 2179.11,1125.4 2163.61,1146.23 2138.5,1160C 2131.91,1163.46 2125.25,1166.63 2118.5,1169.5C 2118.71,1170.09 2119.04,1170.59 2119.5,1171C 2167.25,1183.4 2194.42,1213.9 2201,1262.5C 2201.93,1313.85 2179.43,1350.69 2133.5,1373C 2104.87,1383.91 2075.2,1390.57 2044.5,1393C 1990.64,1396.2 1936.97,1394.37 1883.5,1387.5C 1883.5,1255.17 1883.5,1122.83 1883.5,990.5C 1912.8,985.803 1942.13,982.469 1971.5,980.5 Z"/></g>
<g><path style="opacity:1" fill="#004286" d="M 2362.5,980.5 C 2406.41,980.17 2450.24,980.503 2494,981.5C 2542.48,1119.06 2590.64,1256.73 2638.5,1394.5C 2601.83,1394.83 2565.16,1394.5 2528.5,1393.5C 2516.57,1357.62 2504.57,1321.79 2492.5,1286C 2449.17,1285.5 2405.83,1285.33 2362.5,1285.5C 2352.19,1321.89 2341.19,1358.05 2329.5,1394C 2294.5,1394.67 2259.5,1394.67 2224.5,1394C 2271.19,1256.4 2317.19,1118.57 2362.5,980.5 Z"/></g>
<g><path style="opacity:1" fill="#fefffe" d="M 1993.5,1049.5 C 2016.7,1048.36 2039.7,1049.86 2062.5,1054C 2078.65,1058.48 2089.15,1068.65 2094,1084.5C 2097.4,1106.7 2089.23,1122.86 2069.5,1133C 2057.05,1138.36 2044.05,1141.36 2030.5,1142C 2014.5,1142.5 1998.5,1142.67 1982.5,1142.5C 1982.5,1112.17 1982.5,1081.83 1982.5,1051.5C 1986.34,1051.07 1990,1050.4 1993.5,1049.5 Z"/></g>
<g><path style="opacity:1" fill="#fefffe" d="M 2424.5,1051.5 C 2426.5,1055.19 2428.34,1059.19 2430,1063.5C 2445,1113.32 2460.5,1162.99 2476.5,1212.5C 2443.16,1212.83 2409.83,1212.5 2376.5,1211.5C 2395.13,1159.03 2411.13,1105.7 2424.5,1051.5 Z"/></g>
<g><path style="opacity:1" fill="#fefffe" d="M 1628.5,1052.5 C 1646.86,1052.25 1665.19,1052.75 1683.5,1054C 1699.04,1056.02 1711.87,1062.85 1722,1074.5C 1734.23,1103.15 1726.4,1123.99 1698.5,1137C 1687.5,1140.95 1676.17,1143.61 1664.5,1145C 1648.17,1145.5 1631.84,1145.67 1615.5,1145.5C 1615.5,1114.83 1615.5,1084.17 1615.5,1053.5C 1620.03,1053.82 1624.37,1053.48 1628.5,1052.5 Z"/></g>
<g><path style="opacity:1" fill="#f9e927" d="M 946.5,1189.5 C 946.5,1255.5 946.5,1321.5 946.5,1387.5C 920.167,1387.5 893.833,1387.5 867.5,1387.5C 863.874,1377.65 860.374,1367.65 857,1357.5C 834.209,1380.64 806.376,1393.14 773.5,1395C 731.904,1400.14 697.404,1387.3 670,1356.5C 652.643,1331.72 647.309,1304.39 654,1274.5C 662.478,1248.7 678.311,1228.87 701.5,1215C 731.446,1199.13 763.446,1189.47 797.5,1186C 817.456,1184.08 837.456,1183.25 857.5,1183.5C 857.627,1167.26 850.627,1155.09 836.5,1147C 829.315,1142.96 821.648,1140.3 813.5,1139C 770.921,1134.17 731.087,1142 694,1162.5C 687.827,1142.65 681.66,1122.82 675.5,1103C 676.101,1101.39 677.101,1100.06 678.5,1099C 699.792,1088.86 722.126,1081.86 745.5,1078C 773.327,1073.67 801.327,1072.34 829.5,1074C 858.985,1076.37 885.318,1086.37 908.5,1104C 933.739,1126.79 946.405,1155.29 946.5,1189.5 Z"/></g>
<g><path style="opacity:1" fill="#3e6872" d="M 458.5,980.5 C 458.5,1014.83 458.5,1049.17 458.5,1083.5C 443.5,1083.5 428.5,1083.5 413.5,1083.5C 427.99,1082.5 442.657,1082.17 457.5,1082.5C 457.168,1048.33 457.502,1014.33 458.5,980.5 Z"/></g>
<g><path style="opacity:1" fill="#f9e927" d="M 1007.5,1083.5 C 1039.17,1083.5 1070.83,1083.5 1102.5,1083.5C 1102.33,1140.17 1102.5,1196.83 1103,1253.5C 1104,1261.5 1105,1269.5 1106,1277.5C 1114.77,1309.66 1135.93,1324.16 1169.5,1321C 1187.86,1318.27 1202.36,1309.43 1213,1294.5C 1216.44,1288.87 1219.1,1282.87 1221,1276.5C 1221.5,1212.17 1221.67,1147.83 1221.5,1083.5C 1253.5,1083.5 1285.5,1083.5 1317.5,1083.5C 1317.5,1185.83 1317.5,1288.17 1317.5,1390.5C 1291.83,1390.67 1266.16,1390.5 1240.5,1390C 1235.87,1375.87 1231.37,1361.7 1227,1347.5C 1208.2,1371.59 1183.7,1386.76 1153.5,1393C 1127.8,1397.41 1102.47,1396.07 1077.5,1389C 1044.3,1376.14 1023.13,1352.64 1014,1318.5C 1010.52,1303.74 1008.52,1288.74 1008,1273.5C 1007.5,1210.17 1007.33,1146.83 1007.5,1083.5 Z"/></g>
<g><path style="opacity:1" fill="#547b67" d="M 413.5,1152.5 C 428.5,1152.5 443.5,1152.5 458.5,1152.5C 458.5,1196.83 458.5,1241.17 458.5,1285.5C 457.501,1241.67 457.168,1197.67 457.5,1153.5C 442.657,1153.83 427.99,1153.5 413.5,1152.5 Z"/></g>
<g><path style="opacity:1" fill="#3a6972" d="M 611.5,1152.5 C 591.674,1153.5 571.674,1153.83 551.5,1153.5C 551.5,1193.5 551.5,1233.5 551.5,1273.5C 550.501,1233.34 550.168,1193 550.5,1152.5C 570.833,1152.5 591.167,1152.5 611.5,1152.5 Z"/></g>
<g><path style="opacity:1" fill="#000d1b" d="M 1980.5,1209.5 C 1980.17,1246.91 1980.51,1284.24 1981.5,1321.5C 1980.17,1303.18 1979.5,1284.51 1979.5,1265.5C 1979.5,1246.66 1979.83,1228 1980.5,1209.5 Z"/></g>
<g><path style="opacity:1" fill="#fefffe" d="M 1980.5,1209.5 C 1997.5,1209.33 2014.5,1209.5 2031.5,1210C 2050.33,1210.95 2067.66,1216.28 2083.5,1226C 2099.69,1239.89 2105.52,1257.39 2101,1278.5C 2096.34,1293.99 2086.84,1305.49 2072.5,1313C 2053.48,1320.88 2033.65,1324.05 2013,1322.5C 2002.49,1322.37 1991.99,1322.03 1981.5,1321.5C 1980.51,1284.24 1980.17,1246.91 1980.5,1209.5 Z"/></g>
<g><path style="opacity:1" fill="#fefffe" d="M 1612.5,1212.5 C 1633.85,1212.2 1655.19,1212.7 1676.5,1214C 1686.43,1215.93 1696.1,1218.59 1705.5,1222C 1733.42,1237.75 1741.59,1260.92 1730,1291.5C 1720.77,1306.54 1707.6,1316.37 1690.5,1321C 1683.53,1322.46 1676.53,1323.79 1669.5,1325C 1650.43,1326.02 1631.43,1325.52 1612.5,1323.5C 1612.5,1286.5 1612.5,1249.5 1612.5,1212.5 Z"/></g>
<g><path style="opacity:1" fill="#024387" d="M 828.5,1245.5 C 839.5,1245.5 850.5,1245.5 861.5,1245.5C 861.5,1255.5 861.5,1265.5 861.5,1275.5C 858.342,1306.85 841.009,1326.02 809.5,1333C 798.774,1333.9 788.107,1333.57 777.5,1332C 754.711,1322.35 746.877,1305.52 754,1281.5C 757.674,1273.49 763.174,1266.99 770.5,1262C 788.376,1251.54 807.709,1246.04 828.5,1245.5 Z"/></g>
<g><path style="opacity:1" fill="#54776a" d="M 828.5,1245.5 C 839.654,1244.51 850.988,1244.17 862.5,1244.5C 862.828,1255.01 862.494,1265.35 861.5,1275.5C 861.5,1265.5 861.5,1255.5 861.5,1245.5C 850.5,1245.5 839.5,1245.5 828.5,1245.5 Z"/></g>
<g><path style="opacity:1" fill="#6e8d5d" d="M 610.5,1317.5 C 611.568,1316.57 612.901,1316.23 614.5,1316.5C 614.831,1340.67 614.498,1364.67 613.5,1388.5C 613.5,1364.83 613.5,1341.17 613.5,1317.5C 612.5,1317.5 611.5,1317.5 610.5,1317.5 Z"/></g>
<g><path style="opacity:1" fill="#99a94f" d="M 946.5,1189.5 C 947.499,1255.66 947.832,1322 947.5,1388.5C 920.661,1388.83 893.995,1388.5 867.5,1387.5C 893.833,1387.5 920.167,1387.5 946.5,1387.5C 946.5,1321.5 946.5,1255.5 946.5,1189.5 Z"/></g>
<g><path style="opacity:1" fill="#acb546" d="M 375.5,980.5 C 376.5,1118.33 376.833,1256.33 376.5,1394.5C 343.662,1394.83 310.996,1394.5 278.5,1393.5C 310.833,1393.5 343.167,1393.5 375.5,1393.5C 375.5,1255.83 375.5,1118.17 375.5,980.5 Z"/></g>
</svg>
