<?xml version="1.0" encoding="UTF-8"?>
<!DOCTYPE svg PUBLIC "-//W3C//DTD SVG 1.1//EN" "http://www.w3.org/Graphics/SVG/1.1/DTD/svg11.dtd">
<svg xmlns="http://www.w3.org/2000/svg" version="1.1" width="1200px" height="1200px" style="shape-rendering:geometricPrecision; text-rendering:geometricPrecision; image-rendering:optimizeQuality; fill-rule:evenodd; clip-rule:evenodd" xmlns:xlink="http://www.w3.org/1999/xlink">
<g><path style="opacity:1" fill="#fefefe" d="M -0.5,-0.5 C 399.5,-0.5 799.5,-0.5 1199.5,-0.5C 1199.5,399.5 1199.5,799.5 1199.5,1199.5C 799.5,1199.5 399.5,1199.5 -0.5,1199.5C -0.5,799.5 -0.5,399.5 -0.5,-0.5 Z"/></g>
<g><path style="opacity:1" fill="#000000" d="M 669.5,152.5 C 762.834,152.333 856.167,152.5 949.5,153C 947.291,154.873 945.458,157.04 944,159.5C 943.667,191.5 943.333,223.5 943,255.5C 940.271,292.796 920.771,315.963 884.5,325C 791.853,326.475 699.186,326.975 606.5,326.5C 606.333,288.165 606.5,249.832 607,211.5C 615.148,178.181 635.981,158.514 669.5,152.5 Z"/></g>
<g><path style="opacity:1" fill="#000000" d="M 605.5,378.5 C 694.834,378.333 784.167,378.5 873.5,379C 910.945,382.117 933.778,401.95 942,438.5C 943.146,499.982 943.646,561.482 943.5,623C 943.333,680.833 943.167,738.667 943,796.5C 938.787,912.471 887.953,1001.3 790.5,1063C 733.248,1095.75 671.582,1110.25 605.5,1106.5C 605.5,863.833 605.5,621.167 605.5,378.5 Z"/></g>
<g><path style="opacity:1" fill="#000000" d="M 216.5,534.5 C 307.834,534.333 399.167,534.5 490.5,535C 519.605,539.769 539.438,555.936 550,583.5C 551.637,588.714 552.637,594.047 553,599.5C 553.5,768.5 553.667,937.5 553.5,1106.5C 442.736,1111.23 352.236,1071.23 282,986.5C 245.469,939.072 224.136,885.405 218,825.5C 216.529,728.517 216.029,631.517 216.5,534.5 Z"/></g>
</svg>
