<?xml version="1.0" encoding="UTF-8"?>
<!DOCTYPE svg PUBLIC "-//W3C//DTD SVG 1.1//EN" "http://www.w3.org/Graphics/SVG/1.1/DTD/svg11.dtd">
<svg xmlns="http://www.w3.org/2000/svg" version="1.1" width="512px" height="416px" style="shape-rendering:geometricPrecision; text-rendering:geometricPrecision; image-rendering:optimizeQuality; fill-rule:evenodd; clip-rule:evenodd" xmlns:xlink="http://www.w3.org/1999/xlink">
<g><path style="opacity:1" fill="#fffefe" d="M -0.5,-0.5 C 170.167,-0.5 340.833,-0.5 511.5,-0.5C 511.5,21.1667 511.5,42.8333 511.5,64.5C 340.833,64.5 170.167,64.5 -0.5,64.5C -0.5,42.8333 -0.5,21.1667 -0.5,-0.5 Z"/></g>
<g><path style="opacity:1" fill="#feb500" d="M -0.5,64.5 C 170.167,64.5 340.833,64.5 511.5,64.5C 511.5,113.167 511.5,161.833 511.5,210.5C 502.5,210.5 493.5,210.5 484.5,210.5C 484.667,195.496 484.5,180.496 484,165.5C 480.015,148.848 469.848,138.015 453.5,133C 422.868,131.38 392.201,131.047 361.5,132C 349.823,135.414 340.323,141.914 333,151.5C 325.562,140.857 315.396,134.357 302.5,132C 274.167,131.333 245.833,131.333 217.5,132C 208.716,133.725 201.049,137.559 194.5,143.5C 190.167,143.5 185.833,143.5 181.5,143.5C 181.5,139.5 181.5,135.5 181.5,131.5C 132.833,131.5 84.1667,131.5 35.5,131.5C 35.5,157.833 35.5,184.167 35.5,210.5C 23.5,210.5 11.5,210.5 -0.5,210.5C -0.5,161.833 -0.5,113.167 -0.5,64.5 Z"/></g>
<g><path style="opacity:1" fill="#515256" d="M 484.5,210.5 C 484.5,224.5 484.5,238.5 484.5,252.5C 460.167,252.5 435.833,252.5 411.5,252.5C 411.5,266.5 411.5,280.5 411.5,294.5C 411.5,300.833 411.5,307.167 411.5,313.5C 387.5,313.5 363.5,313.5 339.5,313.5C 339.5,309.5 339.5,305.5 339.5,301.5C 359.674,301.83 379.674,301.497 399.5,300.5C 399.5,282.5 399.5,264.5 399.5,246.5C 399.5,222.167 399.5,197.833 399.5,173.5C 403.5,173.5 407.5,173.5 411.5,173.5C 411.5,195.833 411.5,218.167 411.5,240.5C 431.833,240.5 452.167,240.5 472.5,240.5C 472.831,215.994 472.498,191.661 471.5,167.5C 469.388,158.555 464.388,151.721 456.5,147C 453.756,146.197 451.089,145.197 448.5,144C 419.833,143.333 391.167,143.333 362.5,144C 347.82,148.499 340.153,158.332 339.5,173.5C 335.167,173.5 330.833,173.5 326.5,173.5C 326.68,166.706 324.68,160.706 320.5,155.5C 315.787,149.137 309.453,145.304 301.5,144C 273.5,143.333 245.5,143.333 217.5,144C 203.252,147.746 195.252,156.913 193.5,171.5C 193.334,179.84 193.5,188.173 194,196.5C 217.5,220 241,243.5 264.5,267C 261.667,269.833 258.833,272.667 256,275.5C 230.965,250.632 206.132,225.632 181.5,200.5C 181.333,188.495 181.5,176.495 182,164.5C 184.138,156.214 188.304,149.214 194.5,143.5C 201.049,137.559 208.716,133.725 217.5,132C 245.833,131.333 274.167,131.333 302.5,132C 315.396,134.357 325.562,140.857 333,151.5C 340.323,141.914 349.823,135.414 361.5,132C 392.201,131.047 422.868,131.38 453.5,133C 469.848,138.015 480.015,148.848 484,165.5C 484.5,180.496 484.667,195.496 484.5,210.5 Z"/></g>
<g><path style="opacity:1" fill="#525357" d="M 181.5,143.5 C 161.167,143.5 140.833,143.5 120.5,143.5C 120.5,167.833 120.5,192.167 120.5,216.5C 120.5,234.5 120.5,252.5 120.5,270.5C 116.5,270.5 112.5,270.5 108.5,270.5C 108.5,228.167 108.5,185.833 108.5,143.5C 88.1667,143.5 67.8333,143.5 47.5,143.5C 47.3333,187.835 47.5,232.168 48,276.5C 48.2321,277.737 48.7321,278.737 49.5,279.5C 53.0908,290.921 60.7575,298.088 72.5,301C 100.5,301.667 128.5,301.667 156.5,301C 171.736,296.941 179.736,287.108 180.5,271.5C 184.833,271.5 189.167,271.5 193.5,271.5C 194.641,287.488 202.974,297.155 218.5,300.5C 245.997,301.664 273.664,301.83 301.5,301C 314.122,298.379 322.289,290.879 326,278.5C 326.667,268.5 326.667,258.5 326,248.5C 323.963,246.294 321.797,244.294 319.5,242.5C 298.868,221.368 278.035,200.368 257,179.5C 256.333,178.833 256.333,178.167 257,177.5C 258.626,175.195 260.46,173.195 262.5,171.5C 263.391,170.89 264.391,170.557 265.5,170.5C 289.5,195.167 313.833,219.5 338.5,243.5C 338.903,256.885 338.403,270.218 337,283.5C 334.763,290.316 331.263,296.316 326.5,301.5C 318.527,307.553 309.527,311.386 299.5,313C 271.5,313.667 243.5,313.667 215.5,313C 211.01,311.726 206.677,310.059 202.5,308C 196.679,304.175 191.513,299.675 187,294.5C 179.086,304.374 168.919,310.541 156.5,313C 128.167,313.667 99.8333,313.667 71.5,313C 59.502,310.343 49.8353,304.176 42.5,294.5C 36.0737,281.275 33.7404,267.275 35.5,252.5C 35.5,238.5 35.5,224.5 35.5,210.5C 35.5,184.167 35.5,157.833 35.5,131.5C 84.1667,131.5 132.833,131.5 181.5,131.5C 181.5,135.5 181.5,139.5 181.5,143.5 Z"/></g>
<g><path style="opacity:1" fill="#f0f1f1" d="M 320.5,155.5 C 319.226,156.189 319.226,157.023 320.5,158C 316.962,160.269 313.295,162.269 309.5,164C 294.617,165.65 279.95,167.816 265.5,170.5C 264.391,170.557 263.391,170.89 262.5,171.5C 262.44,170.957 262.107,170.624 261.5,170.5C 253.303,172.706 244.969,174.206 236.5,175C 222.484,178.171 208.484,181.671 194.5,185.5C 194.819,180.637 194.486,175.97 193.5,171.5C 195.252,156.913 203.252,147.746 217.5,144C 245.5,143.333 273.5,143.333 301.5,144C 309.453,145.304 315.787,149.137 320.5,155.5 Z"/></g>
<g><path style="opacity:1" fill="#f9f9f9" d="M 471.5,167.5 C 471.667,180.504 471.5,193.504 471,206.5C 470.827,202.459 470.327,198.459 469.5,194.5C 450.971,204.928 432.637,215.595 414.5,226.5C 413.672,230.796 413.172,235.129 413,239.5C 412.832,217.33 412.332,195.33 411.5,173.5C 407.5,173.5 403.5,173.5 399.5,173.5C 399.5,197.833 399.5,222.167 399.5,246.5C 398.215,243.411 397.549,240.078 397.5,236.5C 378.74,243.641 360.074,250.975 341.5,258.5C 340.67,264.472 340.17,270.472 340,276.5C 339.83,265.326 339.33,254.326 338.5,243.5C 313.833,219.5 289.5,195.167 265.5,170.5C 279.95,167.816 294.617,165.65 309.5,164C 313.295,162.269 316.962,160.269 320.5,158C 319.226,157.023 319.226,156.189 320.5,155.5C 324.68,160.706 326.68,166.706 326.5,173.5C 330.833,173.5 335.167,173.5 339.5,173.5C 340.153,158.332 347.82,148.499 362.5,144C 391.167,143.333 419.833,143.333 448.5,144C 451.089,145.197 453.756,146.197 456.5,147C 464.388,151.721 469.388,158.555 471.5,167.5 Z"/></g>
<g><path style="opacity:1" fill="#e7e8e9" d="M 108.5,270.5 C 107.669,255.339 107.169,240.005 107,224.5C 84,238.167 65.6667,256.5 52,279.5C 51.2303,280.598 50.397,280.598 49.5,279.5C 48.7321,278.737 48.2321,277.737 48,276.5C 47.5,232.168 47.3333,187.835 47.5,143.5C 67.8333,143.5 88.1667,143.5 108.5,143.5C 108.5,185.833 108.5,228.167 108.5,270.5 Z"/></g>
<g><path style="opacity:1" fill="#e9ebec" d="M 181.5,143.5 C 185.833,143.5 190.167,143.5 194.5,143.5C 188.304,149.214 184.138,156.214 182,164.5C 181.5,176.495 181.333,188.495 181.5,200.5C 180.672,194.347 180.172,188.013 180,181.5C 179.788,184.758 179.288,187.924 178.5,191C 158.524,198.158 139.19,206.658 120.5,216.5C 120.5,192.167 120.5,167.833 120.5,143.5C 140.833,143.5 161.167,143.5 181.5,143.5 Z"/></g>
<g><path style="opacity:1" fill="#edeeef" d="M 471.5,167.5 C 472.498,191.661 472.831,215.994 472.5,240.5C 452.167,240.5 431.833,240.5 411.5,240.5C 411.5,218.167 411.5,195.833 411.5,173.5C 412.332,195.33 412.832,217.33 413,239.5C 413.172,235.129 413.672,230.796 414.5,226.5C 432.637,215.595 450.971,204.928 469.5,194.5C 470.327,198.459 470.827,202.459 471,206.5C 471.5,193.504 471.667,180.504 471.5,167.5 Z"/></g>
<g><path style="opacity:1" fill="#fafafb" d="M 262.5,171.5 C 260.46,173.195 258.626,175.195 257,177.5C 256.333,178.167 256.333,178.833 257,179.5C 278.035,200.368 298.868,221.368 319.5,242.5C 319.565,242.938 319.399,243.272 319,243.5C 317.281,241.443 315.281,239.776 313,238.5C 298.2,247.147 283.367,255.647 268.5,264C 265.238,268.267 261.571,272.267 257.5,276C 255.097,276.63 253.263,275.797 252,273.5C 238.55,281.473 225.05,289.307 211.5,297C 215.943,298.94 220.61,299.94 225.5,300C 223.19,300.497 220.857,300.663 218.5,300.5C 202.974,297.155 194.641,287.488 193.5,271.5C 189.167,271.5 184.833,271.5 180.5,271.5C 179.736,287.108 171.736,296.941 156.5,301C 128.5,301.667 100.5,301.667 72.5,301C 60.7575,298.088 53.0908,290.921 49.5,279.5C 50.397,280.598 51.2303,280.598 52,279.5C 65.6667,256.5 84,238.167 107,224.5C 107.169,240.005 107.669,255.339 108.5,270.5C 112.5,270.5 116.5,270.5 120.5,270.5C 120.5,252.5 120.5,234.5 120.5,216.5C 139.19,206.658 158.524,198.158 178.5,191C 179.288,187.924 179.788,184.758 180,181.5C 180.172,188.013 180.672,194.347 181.5,200.5C 206.132,225.632 230.965,250.632 256,275.5C 258.833,272.667 261.667,269.833 264.5,267C 241,243.5 217.5,220 194,196.5C 193.5,188.173 193.334,179.84 193.5,171.5C 194.486,175.97 194.819,180.637 194.5,185.5C 208.484,181.671 222.484,178.171 236.5,175C 244.969,174.206 253.303,172.706 261.5,170.5C 262.107,170.624 262.44,170.957 262.5,171.5 Z"/></g>
<g><path style="opacity:1" fill="#00c5d3" d="M -0.5,210.5 C 11.5,210.5 23.5,210.5 35.5,210.5C 35.5,224.5 35.5,238.5 35.5,252.5C 23.5,252.5 11.5,252.5 -0.5,252.5C -0.5,238.5 -0.5,224.5 -0.5,210.5 Z"/></g>
<g><path style="opacity:1" fill="#01c5d3" d="M 484.5,210.5 C 493.5,210.5 502.5,210.5 511.5,210.5C 511.5,224.5 511.5,238.5 511.5,252.5C 502.5,252.5 493.5,252.5 484.5,252.5C 484.5,238.5 484.5,224.5 484.5,210.5 Z"/></g>
<g><path style="opacity:1" fill="#eeeff0" d="M 399.5,246.5 C 399.5,264.5 399.5,282.5 399.5,300.5C 378.993,300.17 358.66,300.503 338.5,301.5C 334.5,301.5 330.5,301.5 326.5,301.5C 331.263,296.316 334.763,290.316 337,283.5C 338.403,270.218 338.903,256.885 338.5,243.5C 339.33,254.326 339.83,265.326 340,276.5C 340.17,270.472 340.67,264.472 341.5,258.5C 360.074,250.975 378.74,243.641 397.5,236.5C 397.549,240.078 398.215,243.411 399.5,246.5 Z"/></g>
<g><path style="opacity:1" fill="#f4f5f5" d="M 319.5,242.5 C 321.797,244.294 323.963,246.294 326,248.5C 326.667,258.5 326.667,268.5 326,278.5C 322.289,290.879 314.122,298.379 301.5,301C 273.664,301.83 245.997,301.664 218.5,300.5C 220.857,300.663 223.19,300.497 225.5,300C 220.61,299.94 215.943,298.94 211.5,297C 225.05,289.307 238.55,281.473 252,273.5C 253.263,275.797 255.097,276.63 257.5,276C 261.571,272.267 265.238,268.267 268.5,264C 283.367,255.647 298.2,247.147 313,238.5C 315.281,239.776 317.281,241.443 319,243.5C 319.399,243.272 319.565,242.938 319.5,242.5 Z"/></g>
<g><path style="opacity:1" fill="#0695ad" d="M -0.5,252.5 C 11.5,252.5 23.5,252.5 35.5,252.5C 33.7404,267.275 36.0737,281.275 42.5,294.5C 28.1667,294.5 13.8333,294.5 -0.5,294.5C -0.5,280.5 -0.5,266.5 -0.5,252.5 Z"/></g>
<g><path style="opacity:1" fill="#0695ac" d="M 484.5,252.5 C 493.5,252.5 502.5,252.5 511.5,252.5C 511.5,266.5 511.5,280.5 511.5,294.5C 478.167,294.5 444.833,294.5 411.5,294.5C 411.5,280.5 411.5,266.5 411.5,252.5C 435.833,252.5 460.167,252.5 484.5,252.5 Z"/></g>
<g><path style="opacity:1" fill="#fefefe" d="M -0.5,294.5 C 13.8333,294.5 28.1667,294.5 42.5,294.5C 49.8353,304.176 59.502,310.343 71.5,313C 99.8333,313.667 128.167,313.667 156.5,313C 168.919,310.541 179.086,304.374 187,294.5C 191.513,299.675 196.679,304.175 202.5,308C 206.677,310.059 211.01,311.726 215.5,313C 243.5,313.667 271.5,313.667 299.5,313C 309.527,311.386 318.527,307.553 326.5,301.5C 330.5,301.5 334.5,301.5 338.5,301.5C 338.183,305.702 338.517,309.702 339.5,313.5C 363.5,313.5 387.5,313.5 411.5,313.5C 411.5,307.167 411.5,300.833 411.5,294.5C 444.833,294.5 478.167,294.5 511.5,294.5C 511.5,334.833 511.5,375.167 511.5,415.5C 340.833,415.5 170.167,415.5 -0.5,415.5C -0.5,375.167 -0.5,334.833 -0.5,294.5 Z"/></g>
<g><path style="opacity:1" fill="#c9c9ca" d="M 399.5,300.5 C 379.674,301.497 359.674,301.83 339.5,301.5C 339.5,305.5 339.5,309.5 339.5,313.5C 338.517,309.702 338.183,305.702 338.5,301.5C 358.66,300.503 378.993,300.17 399.5,300.5 Z"/></g>
</svg>
