<?xml version="1.0" standalone="no"?>
<!DOCTYPE svg PUBLIC "-//W3C//DTD SVG 20010904//EN"
 "http://www.w3.org/TR/2001/REC-SVG-20010904/DTD/svg10.dtd">
<svg version="1.0" xmlns="http://www.w3.org/2000/svg"
 width="1100.000000pt" height="769.000000pt" viewBox="0 0 1100.000000 769.000000"
 preserveAspectRatio="xMidYMid meet">

<g transform="translate(0.000000,769.000000) scale(0.100000,-0.100000)"
fill="#000000" stroke="none">
<path d="M10 3850 l0 -3840 5495 0 5495 0 0 3840 0 3840 -5495 0 -5495 0 0
-3840z m3780 1685 l0 -145 -640 0 -640 0 0 -1285 0 -1285 -92 0 c-51 0 -123 3
-160 7 l-68 6 0 1278 0 1279 -620 0 -620 0 2 -1387 3 -1388 29 -52 c59 -108
184 -207 306 -244 63 -19 93 -19 1116 -17 l1050 3 75 37 c82 41 173 121 219
195 l30 47 0 178 0 178 160 0 160 0 0 -168 0 -169 38 -59 c55 -84 152 -170
242 -213 l75 -36 1048 -3 c908 -2 1056 0 1113 13 137 32 234 102 283 205 l26
55 3 350 2 350 -232 211 c-128 116 -408 370 -622 565 -214 195 -443 401 -508
459 -111 99 -118 107 -118 143 0 89 79 160 187 168 l43 3 312 -280 c172 -154
453 -406 623 -559 171 -153 379 -339 463 -414 l152 -136 0 -460 c0 -351 -3
-472 -14 -510 -44 -168 -157 -298 -331 -381 -136 -65 -76 -62 -1355 -67
l-1165 -4 -77 27 c-42 14 -102 42 -134 61 -59 35 -173 138 -192 174 -10 19
-13 18 -44 -20 -76 -93 -184 -173 -293 -216 l-60 -24 -1115 3 c-1217 4 -1177
2 -1345 63 -218 79 -394 263 -456 477 -19 65 -19 112 -18 1594 0 840 4 1529 7
1532 3 3 713 6 1579 6 l1573 0 0 -145z m2975 112 c106 -43 180 -94 256 -174
l62 -67 20 28 c59 81 185 177 285 218 l57 23 1105 3 c1213 3 1193 3 1361 -58
206 -75 372 -232 451 -429 l23 -56 3 -944 2 -943 -775 3 -775 4 -2 -605 c0
-333 -1 -612 -2 -620 -1 -13 -98 -15 -799 -18 l-797 -2 0 145 0 145 640 0 640
0 0 1280 0 1280 160 0 160 0 0 -630 0 -630 620 0 621 0 -3 728 -3 727 -30 60
c-37 74 -127 164 -209 210 -120 67 -81 65 -1209 65 -992 0 -1019 -1 -1074 -20
-113 -40 -240 -146 -288 -241 -24 -46 -25 -58 -25 -216 l0 -168 -157 1 -158 2
-5 178 -5 179 -34 49 c-66 96 -158 171 -261 213 l-55 23 -1066 0 c-951 0
-1071 -2 -1120 -16 -162 -48 -255 -146 -280 -293 -10 -64 -11 -641 -1 -657 6
-10 669 -613 1246 -1134 l237 -215 -5 -44 c-12 -88 -72 -141 -178 -156 l-48
-7 -102 92 c-57 51 -229 206 -383 344 -154 138 -410 368 -569 511 -159 143
-315 282 -345 309 -31 27 -78 69 -105 94 l-49 45 2 469 c2 389 5 478 18 521
59 199 223 346 453 406 72 19 116 20 1245 20 l1170 1 80 -33z"/>
</g>
</svg>
